<svg width="24" height="24" viewBox="0 0 24 24" fill="none" xmlns="http://www.w3.org/2000/svg">
<path d="M5 5C5 3.89543 5.89543 3 7 3H17.9965C19.101 3 19.9965 3.89543 19.9965 5V16.4987C19.9965 17.3018 19.5161 18.027 18.7766 18.3403L13.2784 20.6695C12.7797 20.8808 12.2167 20.8808 11.7181 20.6695L6.21986 18.3403C5.48038 18.027 5 17.3018 5 16.4987V5Z" fill="#121212"/>
<mask id="path-2-inside-1_71_373" fill="white">
<path d="M12 7H13V12L12.5 12.5L12 12V7Z"/>
</mask>
<path d="M12 7H13V12L12.5 12.5L12 12V7Z" fill="#121212"/>
<path d="M12 7V-23H-18V7H12ZM13 7H43V-23H13V7ZM13 12L34.2132 33.2132L43 24.4264V12H13ZM12 12H-18V24.4264L-9.2132 33.2132L12 12ZM12.5 12.5L-8.7132 33.7132L12.5 54.9264L33.7132 33.7132L12.5 12.5ZM12 37H13V-23H12V37ZM-17 7V12H43V7H-17ZM42 12V7H-18V12H42ZM-8.2132 -9.2132L-8.7132 -8.7132L33.7132 33.7132L34.2132 33.2132L-8.2132 -9.2132ZM33.7132 -8.7132L33.2132 -9.2132L-9.2132 33.2132L-8.7132 33.7132L33.7132 -8.7132Z" fill="white" mask="url(#path-2-inside-1_71_373)"/>
<rect x="12.25" y="13.25" width="0.5" height="0.5" fill="#121212" stroke="white" stroke-width="0.5"/>
</svg>
