<svg width="32" height="21" viewBox="0 0 32 21" fill="none" xmlns="http://www.w3.org/2000/svg">
<g clip-path="url(#clip0_1108_24025)">
<path d="M1.62051 0H29.9794C30.8744 0 31.5999 0.725544 31.5999 1.62051V18.6359C31.5999 19.5309 30.8744 20.2564 29.9794 20.2564H1.62051C0.725542 20.2564 0 19.5309 0 18.6359V1.62051C0 0.725544 0.725542 0 1.62051 0Z" fill="#0E4C96"/>
<path d="M25.6133 14.636C25.6133 16.322 24.2469 17.6891 22.5603 17.6891H5.98535V5.62112C5.98535 3.93473 7.35197 2.56767 9.03859 2.56767L25.6131 2.56763L25.6132 14.636L25.6133 14.636Z" fill="white"/>
<path d="M20.2106 10.3931C20.684 10.4034 21.1601 10.3722 21.6316 10.4093C22.1091 10.4984 22.2243 11.2213 21.8 11.4581C21.5107 11.6142 21.1667 11.5162 20.8529 11.5437H20.2106L20.2106 10.3931V10.3931ZM21.9054 9.09086C22.0105 9.46212 21.6527 9.79546 21.295 9.74433H20.2106C20.2181 9.39422 20.1957 9.01425 20.2216 8.68257C20.6561 8.69477 21.0946 8.65762 21.5265 8.70198C21.7121 8.74861 21.8674 8.90118 21.9054 9.09086ZM24.5155 3.58517C24.5357 4.29418 24.5184 5.04067 24.5242 5.76407C24.5228 8.70514 24.5271 11.6461 24.522 14.5874C24.5029 15.6896 23.5261 16.6472 22.4315 16.6692C21.3358 16.6737 20.2399 16.6698 19.1442 16.6711V12.2248C20.3381 12.2186 21.5328 12.2372 22.7262 12.2154C23.2799 12.1806 23.8862 11.8153 23.912 11.2061C23.9772 10.5942 23.4003 10.1709 22.8525 10.1041C22.6419 10.0986 22.6482 10.0427 22.8525 10.0183C23.3748 9.90541 23.7851 9.36473 23.6314 8.82323C23.5003 8.2537 22.8709 8.03327 22.3473 8.03437C21.2797 8.02707 20.2119 8.03331 19.1443 8.03125C19.1512 7.20118 19.1299 6.37022 19.1559 5.54076C19.2404 4.45842 20.2418 3.56588 21.3211 3.58521H24.5155V3.58517Z" fill="url(#paint0_linear_1108_24025)"/>
<path d="M7.07914 5.65314C7.10644 4.55269 8.08746 3.60275 9.18073 3.58671C10.2723 3.58335 11.364 3.58622 12.4557 3.58525C12.4527 7.26725 12.4617 10.9497 12.4511 14.6315C12.4091 15.7186 11.4387 16.6504 10.3575 16.6696C9.26379 16.6736 8.16998 16.6701 7.07626 16.6713V12.0751C8.13863 12.326 9.25269 12.4329 10.3364 12.2664C10.9844 12.1621 11.6931 11.8441 11.9125 11.172C12.074 10.597 11.983 9.99198 12.007 9.40191V8.03161H10.1314C10.123 8.93784 10.1487 9.84573 10.1178 10.751C10.0673 11.3074 9.51638 11.6609 8.99158 11.6421C8.3407 11.649 7.0511 11.1705 7.0511 11.1705C7.04786 9.47232 7.06998 7.34577 7.07914 5.65351V5.65314Z" fill="url(#paint1_linear_1108_24025)"/>
<path d="M13.1557 8.58426C13.0571 8.60521 13.1359 8.24797 13.1106 8.11245C13.1173 7.25561 13.0966 6.39783 13.1221 5.54159C13.2065 4.45467 14.2156 3.55987 15.2992 3.58531H18.4902C18.4873 7.26727 18.4962 10.9497 18.4857 14.6315C18.4436 15.7186 17.4732 16.6504 16.392 16.6696C15.2983 16.6737 14.2044 16.6703 13.1106 16.6714V11.6356C13.8576 12.2485 14.8729 12.3439 15.8036 12.3456C16.5051 12.3454 17.2027 12.2373 17.8839 12.0754V11.1528C17.1161 11.5355 16.2135 11.7786 15.3623 11.5587C14.7686 11.4108 14.3376 10.8371 14.3472 10.2243C14.2784 9.58716 14.652 8.91436 15.2782 8.72492C16.0556 8.48152 16.9031 8.66768 17.6318 8.98408C17.788 9.06588 17.9464 9.16724 17.8839 8.90626V8.18108C16.6651 7.89117 15.368 7.78438 14.1434 8.09989C13.789 8.19992 13.4437 8.35156 13.1557 8.58434V8.58426Z" fill="url(#paint2_linear_1108_24025)"/>
</g>
<defs>
<linearGradient id="paint0_linear_1108_24025" x1="19.1234" y1="10.1521" x2="24.5063" y2="10.1521" gradientUnits="userSpaceOnUse">
<stop stop-color="#007B40"/>
<stop offset="1" stop-color="#55B330"/>
</linearGradient>
<linearGradient id="paint1_linear_1108_24025" x1="7.08907" y1="10.1521" x2="12.4677" y2="10.1521" gradientUnits="userSpaceOnUse">
<stop stop-color="#1D2970"/>
<stop offset="1" stop-color="#006DBA"/>
</linearGradient>
<linearGradient id="paint2_linear_1108_24025" x1="13.115" y1="10.2957" x2="18.4962" y2="10.2957" gradientUnits="userSpaceOnUse">
<stop stop-color="#6E2B2F"/>
<stop offset="1" stop-color="#E30138"/>
</linearGradient>
<clipPath id="clip0_1108_24025">
<rect width="31.5999" height="20.2564" fill="white"/>
</clipPath>
</defs>
</svg>
