<svg width="24" height="24" viewBox="0 0 24 24" fill="none" xmlns="http://www.w3.org/2000/svg">
<path d="M11.73 7.53972C8.65243 7.53972 6.49354 8.86032 6.49354 8.86032C7.67634 7.80384 9.74336 7.19522 9.74336 7.19522L9.54814 7C7.60743 7.03445 5.85046 8.37802 5.85046 8.37802C3.87531 12.5006 4.00162 16.0605 4.00162 16.0605C5.60931 18.139 7.99787 17.9897 7.99787 17.9897L8.8132 16.9562C7.37777 16.6461 6.47057 15.3714 6.47057 15.3714C6.47057 15.3714 8.62946 16.8413 11.73 16.8413C14.8305 16.8413 16.9894 15.3714 16.9894 15.3714C16.9894 15.3714 16.0822 16.6461 14.6468 16.9562L15.4621 17.9897C15.4621 17.9897 17.8507 18.139 19.4584 16.0605C19.4584 16.0605 19.5847 12.5006 17.6095 8.37802C17.6095 8.37802 15.8526 7.03445 13.9119 7L13.7166 7.19522C13.7166 7.19522 15.7837 7.80384 16.9665 8.86032C16.9665 8.86032 14.8076 7.53972 11.73 7.53972ZM9.35292 11.892C10.0993 11.892 10.708 12.5465 10.6965 13.3504C10.6965 14.1427 10.0993 14.8088 9.35292 14.8088C8.61798 14.8088 8.02084 14.1427 8.02084 13.3504C8.02084 12.5465 8.6065 11.892 9.35292 11.892ZM14.1415 11.892C14.888 11.892 15.4851 12.5465 15.4851 13.3504C15.4851 14.1427 14.888 14.8088 14.1415 14.8088C13.4066 14.8088 12.8094 14.1427 12.8094 13.3504C12.8094 12.5465 13.3951 11.892 14.1415 11.892Z" fill="#121212"/>
</svg>
