<svg width="32" height="21" viewBox="0 0 32 21" fill="none" xmlns="http://www.w3.org/2000/svg">
<g clip-path="url(#clip0_1108_24036)">
<path d="M1.68857 0H29.9722C30.9051 0 31.6608 0.769055 31.6608 1.71856V18.5176C31.6608 19.4671 30.9051 20.2362 29.9722 20.2362H1.68857C0.755645 20.2362 0 19.4671 0 18.5176V1.71856C0 0.769055 0.755645 0 1.68857 0Z" fill="black"/>
<path d="M6.77595 7.34903C7.05144 7.25585 7.34718 7.20723 7.65508 7.20723C9.00011 7.20723 10.1223 8.16338 10.3775 9.43139L12.2817 9.04247C11.8441 6.88718 9.94001 5.26257 7.65508 5.26257C7.13246 5.26257 6.63011 5.34769 6.16016 5.50565L6.77595 7.34903V7.34903Z" fill="#FFF100"/>
<path d="M4.5277 13.5232L5.81601 12.0647C5.24073 11.5543 4.88016 10.8129 4.88016 9.98239C4.88016 9.15597 5.24073 8.41049 5.81601 7.90408L4.5277 6.44971C3.55134 7.31664 2.93555 8.57663 2.93555 9.98648C2.93555 11.3922 3.55134 12.6562 4.5277 13.5232V13.5232Z" fill="#00A3DF"/>
<path d="M10.3777 10.5414C10.1184 11.8094 9.00025 12.7615 7.65522 12.7615C7.34733 12.7615 7.05158 12.7129 6.77204 12.6197L6.15625 14.463C6.6262 14.621 7.13261 14.7061 7.65522 14.7061C9.94015 14.7061 11.8442 13.0856 12.2818 10.9303L10.3777 10.5414Z" fill="#EE4023"/>
<path d="M18.6254 11.846C18.3094 12.154 17.884 12.3403 17.414 12.3322C17.0899 12.3281 16.7902 12.2309 16.539 12.0689L15.9069 13.0736C16.3404 13.345 16.8468 13.5071 17.3978 13.5152C18.1959 13.5273 18.9251 13.2113 19.4559 12.6968L18.6254 11.846ZM17.4829 7.75019C15.8948 7.72588 14.5822 8.99798 14.5579 10.5861C14.5498 11.1816 14.7199 11.7407 15.0238 12.2025L20.2418 9.97025C19.9501 8.71844 18.832 7.77445 17.4829 7.75019V7.75019ZM15.753 10.8129C15.7449 10.7481 15.7409 10.6792 15.7409 10.6104C15.7571 9.67451 16.5268 8.92502 17.4627 8.94126C17.9731 8.94933 18.4269 9.18025 18.7307 9.54486L15.753 10.8129ZM21.8826 6.45374V12.0161L22.8469 12.4172L22.389 13.5151L21.4329 13.1181C21.2182 13.0249 21.0724 12.8831 20.963 12.7211C20.8576 12.559 20.7766 12.3321 20.7766 12.0324V6.45374H21.8826V6.45374ZM25.3627 9.0263C25.5328 8.96958 25.7111 8.94122 25.9015 8.94122C26.7239 8.94122 27.4046 9.52457 27.5625 10.2984L28.7253 10.0594C28.4579 8.74271 27.2952 7.7542 25.9015 7.7542C25.5815 7.7542 25.2736 7.8069 24.99 7.90008L25.3627 9.0263ZM23.9893 12.7899L24.7752 11.9027C24.4228 11.5908 24.204 11.137 24.204 10.6306C24.204 10.1242 24.4268 9.67049 24.7752 9.36256L23.9893 8.47537C23.3938 9.00203 23.017 9.77583 23.017 10.6347C23.017 11.4936 23.3938 12.2633 23.9893 12.7899V12.7899ZM27.5625 10.9749C27.4046 11.7488 26.7199 12.3321 25.9015 12.3321C25.7152 12.3321 25.5328 12.2997 25.3627 12.243L24.9859 13.3693C25.2736 13.4665 25.5815 13.5192 25.9015 13.5192C27.2952 13.5192 28.4579 12.5307 28.7253 11.214L27.5625 10.9749V10.9749Z" fill="white"/>
</g>
<defs>
<clipPath id="clip0_1108_24036">
<rect width="31.6" height="20.2564" fill="white"/>
</clipPath>
</defs>
</svg>
