<svg width="24" height="24" viewBox="0 0 24 24" fill="none" xmlns="http://www.w3.org/2000/svg">
<path fill-rule="evenodd" clip-rule="evenodd" d="M20.3041 0H3.37821C2.0063 0 1.5 0.506305 1.5 1.87886V18.4408C1.5 18.5961 1.50626 18.7404 1.51998 18.8741C1.55122 19.1737 1.5571 19.464 1.83573 19.7945C1.86296 19.8269 2.14744 20.0386 2.14744 20.0386C2.30045 20.1136 2.40494 20.1689 2.57751 20.2384L10.9121 23.7302C11.3447 23.9286 11.5257 24.0059 11.8399 23.9997V23.9997C11.8403 23.9997 11.8408 23.9997 11.8412 23.9997C11.8416 23.9997 11.842 23.9997 11.8424 23.9997V23.9997C12.1566 24.0059 12.3376 23.9286 12.7703 23.7302L21.1049 20.2384C21.2775 20.1689 21.3819 20.1136 21.535 20.0386C21.535 20.0386 21.8194 19.8269 21.8466 19.7945C22.1252 19.464 22.1311 19.1737 22.1623 18.8741C22.1761 18.7404 22.1824 18.5961 22.1824 18.4408V1.87886C22.1824 0.506305 21.676 0 20.3041 0Z" fill="#2F2D2E"/>
<path fill-rule="evenodd" clip-rule="evenodd" d="M7.1438 17.0825L7.17435 17.0596L7.20085 17.0367V16.9985V16.9603V16.9221V16.8877V16.8495V16.8114V16.7731V16.7349V16.6967V16.6623V16.6242V16.5859V16.5478V16.5095V16.4713V16.4331V16.3988V16.3605V16.3223V16.2841V16.2459V16.2077V16.1695V16.1352V16.0969V16.0587V16.0205V15.9823V15.9441V15.9097V15.8715V15.8333V15.7954H7.16285H7.1249H7.0867H7.04875H7.01075H6.97275H6.93455H6.89655H6.8586H6.8206H6.7824H6.74445H6.7065H6.66845H6.6303H6.59235H6.55435H6.51635H6.47815H6.44015H6.4022H6.36425H6.32605H6.28805H6.25005H6.2121H6.1739H6.1359H6.0979H6.06H6.022H5.9838H5.9458V15.8333V15.8677V15.906V15.9441V15.9823V16.0167V16.0549V16.0931V16.1313V16.1657V16.2039V16.2421V16.2803V16.3147V16.3529H5.9838H6.01815H6.05615H6.0941H6.13215H6.16645H6.20445H6.2424H6.2804H6.3148H6.35275H6.39075H6.42875H6.4631H6.5011V16.3911V16.4293V16.4675V16.5057V16.5478V16.5859V16.6242V16.6623V16.7005L6.4707 16.7197L6.444 16.7349L6.40985 16.7502L6.3793 16.7655L6.3451 16.7808L6.31095 16.7884L6.273 16.7999L6.2348 16.8075L6.1968 16.8151L6.15885 16.819L6.11705 16.8228L6.075 16.8266H6.0294H5.9876L5.9458 16.8228L5.9078 16.819L5.86985 16.8114L5.83165 16.8037L5.79365 16.7922L5.75565 16.7808L5.7213 16.7655L5.6872 16.7502L5.65295 16.7349L5.6224 16.7158L5.5921 16.6967L5.5618 16.6738L5.5312 16.6509L5.5047 16.628L5.48175 16.6012L5.45525 16.5745L5.4323 16.5478L5.4096 16.5172L5.3905 16.4866L5.37145 16.4561L5.35255 16.4217L5.3373 16.3872L5.322 16.3491L5.31075 16.3185L5.2993 16.2841L5.29165 16.2498L5.284 16.2154L5.27635 16.181L5.27255 16.1428L5.26875 16.1084L5.26515 16.0702V16.032V16.0244V15.9823L5.26875 15.9441L5.27255 15.906L5.2802 15.8639L5.28785 15.8296L5.29545 15.7915L5.3069 15.7534L5.322 15.719L5.33345 15.6846L5.3487 15.6502L5.36785 15.6196L5.3867 15.5853L5.4058 15.5547L5.4247 15.5279L5.4476 15.4974L5.4741 15.4706L5.49705 15.4439L5.52355 15.421L5.5503 15.3981L5.5768 15.3752L5.6074 15.3561L5.6377 15.3369L5.66825 15.3178L5.70245 15.3026L5.7366 15.2873L5.77075 15.2758L5.80515 15.2644L5.8393 15.2567L5.87725 15.2491L5.91165 15.2453L5.9496 15.2415H5.9876H6.0294L6.0714 15.2453L6.1132 15.2491L6.1512 15.2529L6.1892 15.2605L6.22715 15.2682L6.26155 15.2758L6.29565 15.2873L6.32985 15.2987L6.3604 15.3102L6.39075 15.3255L6.4213 15.3408L6.4554 15.3599L6.4858 15.3789L6.51635 15.3981L6.5467 15.4172L6.57705 15.4401L6.6076 15.4592L6.6379 15.4859L6.66845 15.5089L6.6912 15.4783L6.7179 15.4515L6.74065 15.421L6.76735 15.3904L6.79005 15.3599L6.81295 15.3331L6.8395 15.3026L6.8624 15.272L6.88895 15.2415L6.91185 15.2147L6.93455 15.1841L6.9613 15.1536L6.984 15.1269L7.00695 15.0963L7.03345 15.0657L7.05635 15.0352L7.08285 15.0084L7.1058 14.9778L7.07545 14.9549L7.0449 14.9282L7.01455 14.9053L6.984 14.8823L6.95365 14.8632L6.92335 14.8403L6.88895 14.8212L6.8586 14.8021L6.82445 14.783L6.7939 14.7639L6.75975 14.7486L6.72555 14.7295L6.6912 14.7142L6.65705 14.6989L6.6229 14.6837L6.5885 14.6722L6.55815 14.6608L6.524 14.6531L6.48965 14.6417L6.4554 14.634L6.4213 14.6264L6.38695 14.6188L6.34895 14.6111L6.31095 14.6035L6.2766 14.5997L6.2348 14.592L6.1968 14.5882H6.15885L6.11705 14.5844L6.075 14.5805H6.0332H5.9914H5.95345H5.91165L5.87345 14.5844L5.8354 14.5882L5.7975 14.592L5.7595 14.5958L5.7213 14.6035L5.6833 14.6073L5.64535 14.6149L5.61115 14.6264L5.573 14.634L5.53885 14.6455L5.5047 14.6531L5.4703 14.6684L5.4323 14.6799L5.402 14.6913L5.364 14.7105L5.32965 14.7257L5.29545 14.741L5.26135 14.7601L5.22695 14.7792L5.19275 14.7983L5.16245 14.8174L5.13185 14.8365L5.10155 14.8594L5.071 14.8785L5.04065 14.9014L5.0141 14.9244L4.98354 14.9511L4.95704 14.974L4.93032 15.0008L4.90378 15.0275L4.88085 15.0542L4.85435 15.081L4.83142 15.1078L4.80871 15.1383L4.78579 15.1689L4.76312 15.1994L4.74398 15.23L4.72494 15.2605L4.70602 15.2911L4.68693 15.3217L4.66784 15.3561L4.6528 15.3904L4.6375 15.4248L4.62224 15.4592L4.60716 15.4936L4.59186 15.5318L4.5804 15.5662L4.56894 15.6044L4.55773 15.6387L4.55006 15.677L4.5386 15.7151L4.53097 15.7495L4.52718 15.7877L4.51955 15.8257L4.51567 15.8677L4.5121 15.906V15.9441L4.5083 15.9861V16.0244V16.032V16.0702V16.1122L4.5121 16.1504L4.51567 16.1886L4.51955 16.2269L4.5233 16.2612L4.53097 16.2994L4.53481 16.3338L4.54243 16.372L4.5539 16.4064L4.56152 16.4446L4.57277 16.4789L4.5804 16.5133L4.5957 16.5478L4.60716 16.5783L4.62224 16.6127L4.6375 16.647L4.6528 16.6814L4.66784 16.7158L4.68693 16.7464L4.70602 16.7808L4.72494 16.8114L4.74398 16.8419L4.7667 16.8725L4.78579 16.903L4.80871 16.9298L4.83142 16.9603L4.85435 16.987L4.88085 17.0138L4.90761 17.0406L4.93412 17.0634L4.96088 17.0902L4.98738 17.1131L5.0141 17.1361L5.0445 17.159L5.0748 17.1819L5.10535 17.2048L5.1357 17.2239L5.16625 17.243L5.20045 17.2621L5.23075 17.281L5.26515 17.3001L5.2993 17.3154L5.33345 17.3307L5.36785 17.3459L5.4058 17.3612L5.43995 17.3727L5.4741 17.3879L5.5085 17.3994L5.5465 17.4071L5.58065 17.4185L5.61885 17.4262L5.65295 17.4338L5.69095 17.4414L5.72895 17.4491L5.76715 17.4529L5.80515 17.4567L5.8431 17.4605L5.8849 17.4644L5.92285 17.4682H5.9611H6.00285H6.0447H6.0865L6.12825 17.4644L6.16645 17.4605L6.20825 17.4567L6.24625 17.4529L6.28805 17.4491L6.32605 17.4452L6.36425 17.4376L6.4022 17.43L6.43635 17.4224L6.4746 17.4147L6.5087 17.4032L6.5467 17.3918L6.58085 17.3803L6.6152 17.3688L6.64945 17.3574L6.68355 17.3421L6.7218 17.3268L6.7559 17.3115L6.7939 17.2963L6.82805 17.2771L6.8624 17.2621L6.89655 17.243L6.93075 17.2239L6.96515 17.2048L6.99545 17.1857L7.026 17.1666L7.05635 17.1437L7.0867 17.1246L7.11725 17.1017L7.1438 17.0825ZM19.1669 16.6891L19.1707 16.6508L19.1745 16.6088V16.5668V16.5591V16.5171L19.1707 16.4751L19.1669 16.4369L19.1592 16.3987L19.1516 16.3605L19.144 16.3261L19.1327 16.2917L19.1213 16.2574L19.106 16.2268L19.0869 16.1924L19.068 16.1618L19.0451 16.1275L19.0224 16.0969L18.9957 16.0702L18.9691 16.0396L18.9386 16.0129L18.9083 15.9861L18.8779 15.967L18.8473 15.9441L18.817 15.925L18.7829 15.9059L18.7485 15.8868L18.7105 15.8677L18.6725 15.8524L18.6345 15.8333L18.5925 15.8183L18.5584 15.8068L18.5242 15.7953L18.486 15.7839L18.4518 15.7724L18.4139 15.7609L18.3759 15.7495L18.3376 15.7419L18.2958 15.7304L18.2579 15.7189L18.2161 15.7113L18.1743 15.6998L18.1325 15.6884L18.0905 15.6769L18.0525 15.6692L18.0184 15.6578L17.984 15.6502L17.9536 15.6387L17.9233 15.6311L17.8777 15.6158L17.8356 15.6005L17.7977 15.5852L17.7673 15.5661L17.733 15.547L17.7064 15.5203L17.6912 15.4973L17.6723 15.4553L17.6684 15.4057V15.398L17.6723 15.3598L17.6873 15.3255L17.7102 15.2911L17.7444 15.2605L17.7712 15.2452L17.8015 15.2299L17.8356 15.2223L17.8739 15.2146L17.9157 15.207H17.9613H17.9993L18.0334 15.2108L18.0716 15.2146L18.1096 15.2185L18.1476 15.2261L18.1855 15.2338L18.2237 15.2414L18.2617 15.2528L18.2997 15.2643L18.3415 15.2758L18.3721 15.2911L18.4062 15.3025L18.4365 15.3178L18.4709 15.3331L18.5013 15.3483L18.5354 15.3636L18.566 15.3828L18.6001 15.398L18.6307 15.4209L18.6611 15.44L18.6952 15.4592L18.7258 15.482L18.7485 15.4515L18.7676 15.4209L18.7902 15.3904L18.8132 15.3598L18.8359 15.3255L18.855 15.2949L18.8779 15.2643L18.9006 15.2338L18.9197 15.2032L18.9424 15.1726L18.9653 15.1421L18.9844 15.1115L19.0071 15.0772L19.03 15.0466L19.0527 15.016L19.0718 14.9855L19.0945 14.9549L19.0642 14.932L19.0339 14.9091L19.0033 14.8861L18.9729 14.867L18.9386 14.8441L18.9083 14.825L18.8741 14.8059L18.8397 14.7868L18.8094 14.7715L18.7752 14.7524L18.737 14.7371L18.7028 14.7218L18.6687 14.7066L18.6345 14.6951L18.5963 14.6799L18.5622 14.6722L18.528 14.6607L18.4898 14.6493L18.4556 14.6416L18.4177 14.634L18.3797 14.6263L18.3453 14.6187L18.3073 14.6111L18.2655 14.6072L18.2275 14.5996L18.1855 14.5958H18.1476L18.1058 14.5919L18.064 14.5882H18.0222H17.9804H17.9383H17.9004L17.8624 14.5919L17.8244 14.5958L17.7862 14.5996L17.7483 14.6034L17.7141 14.6111L17.6761 14.6187L17.6418 14.6263L17.6075 14.634L17.5772 14.6416L17.5428 14.6531L17.5049 14.6683L17.4669 14.6799L17.4325 14.6951L17.3984 14.7142L17.3642 14.7295L17.3298 14.7486L17.2995 14.7677L17.2691 14.7906L17.2386 14.8135L17.2121 14.8326L17.1815 14.8594L17.155 14.89L17.1283 14.9167L17.1018 14.9472L17.0788 14.9778L17.0561 15.0084L17.037 15.0427L17.0181 15.0772L17.0029 15.1115L16.9876 15.1459L16.9725 15.1803L16.9649 15.2146L16.9534 15.2491L16.9458 15.2834L16.9381 15.3178L16.9343 15.356L16.9305 15.3904L16.9267 15.4286V15.4668V15.4744V15.5165L16.9305 15.5585L16.9343 15.5967L16.9381 15.6349L16.9458 15.6692L16.9534 15.7075L16.9649 15.738L16.9761 15.7724L16.9876 15.803L17.0029 15.8295L17.0219 15.8638L17.0408 15.8944L17.06 15.9212L17.0826 15.9479L17.1055 15.9746L17.1321 16.0014L17.1588 16.0281L17.1853 16.0511L17.2159 16.0702L17.2462 16.0931L17.2804 16.1122L17.3109 16.1313L17.3489 16.1504L17.3831 16.1695L17.4213 16.1848L17.4593 16.2L17.4972 16.2153L17.539 16.2306L17.5734 16.2421L17.6075 16.2535L17.6418 16.265L17.6797 16.2727L17.7141 16.2841L17.7521 16.2955L17.79 16.3032L17.8282 16.3147L17.8662 16.3223L17.908 16.3338L17.946 16.3414L17.9878 16.3529L18.026 16.3605L18.064 16.3719L18.0981 16.3796L18.1325 16.3911L18.1628 16.3987L18.1894 16.4064L18.235 16.4254L18.2732 16.4407L18.3073 16.456L18.3376 16.4713L18.3682 16.4942L18.3947 16.5171L18.4139 16.5438L18.4292 16.5821L18.4329 16.6279V16.6355L18.4292 16.6738L18.4177 16.7081L18.4024 16.7387L18.3797 16.7655L18.3492 16.7884L18.3226 16.8036L18.2921 16.8151L18.2579 16.8227L18.2237 16.8304L18.1855 16.838L18.1437 16.8418H18.0981H18.0601L18.0184 16.838H17.9804L17.9422 16.8304L17.9004 16.8266L17.8624 16.8189L17.8244 16.8113L17.7862 16.8036L17.7521 16.7922L17.7141 16.7807L17.6761 16.7692L17.6418 16.754L17.6075 16.7425L17.5734 16.7272L17.539 16.712L17.5049 16.6967L17.4746 16.6775L17.4401 16.6623L17.4098 16.6432L17.3757 16.6203L17.3451 16.6012L17.3109 16.5783L17.2804 16.5553L17.2462 16.5324L17.2159 16.5095L17.1929 16.54L17.1664 16.5668L17.1435 16.5974L17.117 16.6279L17.0941 16.6546L17.0714 16.6852L17.0447 16.7158L17.0219 16.7425L16.9952 16.7731L16.9725 16.7998L16.9458 16.8304L16.9231 16.8609L16.9002 16.8877L16.8736 16.9182L16.8507 16.9488L16.8242 16.9756L16.8013 17.0061L16.8316 17.0328L16.8583 17.0558L16.8887 17.0787L16.9193 17.1016L16.9496 17.1245L16.9799 17.1475L17.0105 17.1666L17.0408 17.1856L17.0752 17.2048L17.1055 17.2238L17.1397 17.243L17.1741 17.2583L17.2082 17.2771L17.2424 17.2924L17.2768 17.3077L17.3148 17.323L17.3489 17.3344L17.3869 17.3459L17.4213 17.3612L17.4593 17.3726L17.4972 17.3841L17.5314 17.3918L17.5696 17.4032L17.6075 17.4108L17.6455 17.4185L17.6835 17.4261L17.7217 17.4337L17.7597 17.4376L17.7977 17.4452L17.8395 17.449L17.8777 17.4529L17.9157 17.4567H17.9574L17.9954 17.4605H18.0334H18.0754H18.1172H18.1552L18.1932 17.4567L18.235 17.4529L18.2732 17.449L18.3073 17.4452L18.3453 17.4414L18.3835 17.4337L18.4177 17.4261L18.4518 17.4185L18.4898 17.4108L18.5242 17.3994L18.5622 17.3879L18.6001 17.3765L18.6381 17.3612L18.6763 17.3459L18.7105 17.3268L18.7446 17.3115L18.779 17.2924L18.8094 17.2695L18.8397 17.2506L18.8702 17.2277L18.8968 17.2048L18.9273 17.178L18.95 17.1551L18.9768 17.1283L18.9994 17.1016L19.0186 17.0711L19.0413 17.0405L19.0604 17.0099L19.0795 16.9794L19.0945 16.945L19.1098 16.9144L19.1251 16.88L19.1366 16.8418L19.144 16.8074L19.1554 16.7692L19.1631 16.731L19.1669 16.6891ZM16.4653 17.4147H16.5035H16.5415V17.3765V17.3421V17.3039V17.2657V17.2278V17.1933V17.1551V17.117V17.0825V17.0444V17.0062V16.9718V16.9336V16.8954V16.8572V16.8228V16.7846H16.5035H16.4653H16.4273H16.3894H16.3514H16.3132H16.2752H16.2373H16.1993H16.1572H16.1193H16.0813H16.0433H16.0051H15.9671H15.9291H15.8912H15.853H15.815H15.777H15.7391H15.701H15.6629H15.6249H15.5869H15.5489H15.5107H15.4727H15.4348H15.393H15.3548H15.3168H15.2788H15.2408H15.2027H15.1647H15.1267H15.0887H15.0505V16.7464V16.7044V16.6661V16.628V16.5859V16.5478V16.5095V16.4675V16.4293V16.3911V16.3491V16.3109H15.0887H15.1267H15.1647H15.2027H15.2408H15.2788H15.3168H15.3548H15.3892H15.4271H15.4651H15.5031H15.5413H15.5793H15.6173H15.6552H15.6934H15.7314H15.7694H15.8074H15.8455H15.8835H15.9215H15.9595H15.9977H16.0357H16.0698H16.1078H16.146H16.184H16.222H16.2599H16.2981H16.3361H16.3741V16.2727V16.2383V16.2001V16.1619V16.1275V16.0893V16.0511V16.0129V15.9785V15.9403V15.9021V15.8677V15.8296V15.7915V15.7572V15.719H16.3361H16.2981H16.2599H16.222H16.184H16.146H16.1078H16.0698H16.0357H15.9977H15.9595H15.9215H15.8835H15.8455H15.8074H15.7694H15.7314H15.6934H15.6552H15.6173H15.5793H15.5413H15.5031H15.4651H15.4271H15.3892H15.3548H15.3168H15.2788H15.2408H15.2027H15.1647H15.1267H15.0887H15.0505V15.6808V15.6426V15.6044V15.5662V15.5279V15.4898V15.4554V15.4172V15.3789V15.3408V15.3026V15.2644H15.0887H15.1267H15.1647H15.2027H15.2408H15.2788H15.3129H15.3509H15.3892H15.4271H15.4651H15.5031H15.5413H15.5793H15.6173H15.6552H15.6934H15.7314H15.7694H15.8035H15.8417H15.8797H15.9177H15.9556H15.9939H16.0318H16.0698H16.1078H16.146H16.184H16.222H16.2599H16.2943H16.3323H16.3702H16.4083H16.4464H16.4844H16.5224V15.2262V15.1918V15.1536V15.1154V15.0772V15.0428V15.0046V14.9664V14.932V14.8938V14.8556V14.8212V14.783V14.7448V14.7066V14.6722V14.634H16.4844H16.4464H16.4083H16.3702H16.3323H16.2943H16.2561H16.2181H16.1802H16.1422H16.104H16.066H16.028H15.9901H15.9556H15.9177H15.8797H15.8417H15.8035H15.7656H15.7276H15.6896H15.6514H15.6134H15.5754H15.5375H15.4995H15.4613H15.4233H15.3853H15.3474H15.3091H15.2711H15.2332H15.1952H15.157H15.119H15.081H15.0431H15.0049H14.9669H14.9289H14.8909H14.8566H14.8186H14.7806H14.7426H14.7045H14.6664H14.6285H14.5905H14.5523H14.5143H14.4763H14.4384H14.4002H14.3622H14.3242V14.6722V14.7105V14.7486V14.7869V14.825V14.8632V14.9014V14.9397V14.9778V15.0161V15.0542V15.0925V15.1306V15.1689V15.207V15.2453V15.2835V15.3217V15.3561V15.3942V15.4325V15.4706V15.5089V15.5471V15.5853V15.6235V15.6617V15.6998V15.7381V15.7763V15.8145V15.8525V15.8907V15.9289V15.9671V16.0052V16.0435V16.0816V16.1199V16.1581V16.1963V16.2345V16.2727V16.3109V16.3491V16.3872V16.4255V16.4637V16.5019V16.5401V16.5783V16.6165V16.6547V16.6929V16.7273V16.7655V16.8037V16.8419V16.8801V16.9183V16.9565V16.9947V17.0329V17.0711V17.1093V17.1475V17.1857V17.2239V17.2621V17.3001V17.3383V17.3765V17.4147H14.3622H14.4002H14.4384H14.4763H14.5143H14.5523H14.5905H14.6285H14.6664H14.7082H14.7463H14.7844H14.8224H14.8604H14.8983H14.9366H14.9746H15.0125H15.0505H15.0887H15.1267H15.1647H15.2027H15.2408H15.2788H15.3168H15.3548H15.393H15.4348H15.4727H15.5107H15.5489H15.5869H15.6249H15.6629H15.701H15.7391H15.777H15.815H15.853H15.8912H15.9291H15.9671H16.0051H16.0433H16.0813H16.1193H16.1572H16.1993H16.2373H16.2752H16.3132H16.3514H16.3894H16.4273H16.4653ZM13.7247 17.4147H13.6867H13.6487H13.6067H13.5687H13.5307H13.4928H13.4545H13.4166H13.3748H13.3368H13.2988H13.2606H13.2226H13.1847H13.1429H13.1047H13.0667H13.0287V17.3765V17.3383V17.3001V17.2619V17.2234V17.1853V17.147V17.1088V17.0706V17.0325V16.9942V16.9559V16.9176V16.8794V16.8412V16.803V16.7646V16.7263V16.6882V16.65V16.6118V16.5736V16.5352V16.497V16.4587V16.4205V16.3823V16.3441V16.3057V16.2675V16.2293V16.1911V16.1529V16.1147V16.0763V16.0381V15.9999V15.9617V15.9235V15.885V15.8469V15.8086V15.7704L13.0096 15.801L12.9869 15.8356L12.9678 15.8662L12.9451 15.8967L12.926 15.9311L12.9031 15.9617L12.8842 15.9922L12.8651 16.0268L12.8424 16.0574L12.8233 16.0879L12.8004 16.1185L12.7815 16.1531L12.7586 16.1837L12.7397 16.2142L12.7206 16.2486L12.6977 16.2794L12.6788 16.31L12.6559 16.3443L12.637 16.3749L12.6141 16.4055L12.5952 16.4401L12.5761 16.4707L12.5532 16.5012L12.5343 16.5356L12.5114 16.5664L12.4925 16.5969L12.4696 16.6275L12.4505 16.6619L12.4316 16.6926L12.4087 16.7232L12.3899 16.7576L12.3669 16.7882L12.3478 16.8187L12.3251 16.8534L12.306 16.8839H12.291L12.2681 16.8495L12.2489 16.8187L12.2262 16.7843L12.2071 16.7538L12.1844 16.7194L12.1653 16.6886L12.1427 16.6542L12.1235 16.6237L12.1006 16.5893L12.0817 16.5588L12.0588 16.5241L12.04 16.4936L12.0171 16.4592L11.9979 16.4286L11.9752 16.394L11.9561 16.3635L11.9334 16.3291L11.9105 16.2985L11.8914 16.2639L11.8687 16.2334L11.8496 16.199L11.8269 16.1684L11.8078 16.1338L11.7851 16.1032L11.766 16.0689L11.7431 16.0383L11.7242 16.0039L11.7013 15.9731L11.6824 15.9388L11.6595 15.9082L11.6404 15.8738L11.6177 15.8433L11.5986 15.8086L11.5759 15.7781V15.8163V15.8545V15.8927V15.9311V15.9693V16.0075V16.0457V16.0839V16.1223V16.1606V16.1949V16.2331V16.2713V16.3095V16.348V16.3862V16.4244V16.4625V16.5008V16.539V16.5774V16.6156V16.6538V16.692V16.7302V16.7684V16.8068V16.845V16.8832V16.9214V16.9596V16.998V17.0325V17.0706V17.1088V17.147V17.1853V17.2234V17.2619V17.3001V17.3383V17.3765V17.4147H11.5379H11.4998H11.4617H11.4238H11.3858H11.3476H11.3096H11.2717H11.2336H11.1955H11.1575H11.1195H11.0815H11.0433H11.0054H10.9674H10.9294H10.8912H10.8532V17.3765V17.3383V17.3001V17.2621V17.2239V17.1857V17.1475V17.1093V17.0711V17.0329V16.9947V16.9565V16.9183V16.8801V16.8419V16.8037V16.7655V16.7273V16.6929V16.6547V16.6165V16.5783V16.5401V16.5019V16.4637V16.4255V16.3872V16.3491V16.3109V16.2727V16.2345V16.1963V16.1581V16.1199V16.0816V16.0435V16.0052V15.9671V15.9289V15.8907V15.8525V15.8145V15.7763V15.7381V15.6998V15.6617V15.6235V15.5853V15.5471V15.5089V15.4706V15.4325V15.3942V15.3561V15.3217V15.2835V15.2453V15.207V15.1689V15.1306V15.0925V15.0542V15.0161V14.9778V14.9397V14.9014V14.8632V14.825V14.7869V14.7486V14.7105V14.6722V14.634H10.8912H10.9294H10.9636H11.0015H11.0395H11.0777H11.1119H11.1498H11.1881H11.226H11.2602H11.2982H11.3364H11.3743H11.4085H11.4464H11.4847H11.5227H11.5568H11.5948H11.633L11.6519 14.6646L11.671 14.6989L11.6936 14.7293L11.7128 14.7637L11.7319 14.7942L11.7507 14.8287L11.7698 14.859L11.7926 14.8934L11.8116 14.9239L11.8308 14.9545L11.8496 14.9886L11.8687 15.0192L11.8914 15.0536L11.9105 15.0842L11.9296 15.1183L11.9485 15.1488L11.9714 15.1794L11.9905 15.2136L12.0094 15.2441L12.0285 15.2785L12.0474 15.3091L12.0703 15.3432L12.0894 15.3738L12.1082 15.4082L12.1274 15.4385L12.1462 15.4691L12.1692 15.5034L12.1883 15.534L12.2071 15.5684L12.2262 15.5988L12.2451 15.6332L12.2681 15.6637L12.2872 15.6978L12.306 15.7284L12.3251 15.6978L12.3442 15.6637L12.3669 15.6332L12.386 15.5988L12.4049 15.5684L12.424 15.534L12.4467 15.5034L12.4658 15.4691L12.4849 15.4385L12.5038 15.4082L12.5267 15.3738L12.5456 15.3432L12.5647 15.3091L12.5837 15.2785L12.6064 15.2441L12.6255 15.2136L12.6447 15.1794L12.6635 15.1488L12.6827 15.1183L12.7053 15.0842L12.7244 15.0536L12.7435 15.0192L12.7624 14.9886L12.7853 14.9545L12.8042 14.9239L12.8233 14.8934L12.8424 14.859L12.8651 14.8287L12.8842 14.7942L12.9031 14.7637L12.9222 14.7293L12.9451 14.6989L12.964 14.6646L12.9831 14.634H13.0211H13.0591H13.0934H13.1314H13.1694H13.2074H13.2417H13.2797H13.3177H13.3557H13.3901H13.428H13.466H13.504H13.5384H13.5764H13.6143H13.6523H13.6867H13.7247H13.7626V14.6722V14.7105V14.7486V14.7869V14.825V14.8632V14.9014V14.9397V14.9778V15.0161V15.0542V15.0925V15.1306V15.1689V15.207V15.2453V15.2835V15.3217V15.3561V15.3942V15.4325V15.4706V15.5089V15.5471V15.5853V15.6235V15.6617V15.6998V15.7381V15.7763V15.8145V15.8525V15.8907V15.9289V15.9671V16.0052V16.0435V16.0816V16.1199V16.1581V16.1963V16.2345V16.2727V16.3109V16.3491V16.3872V16.4255V16.4637V16.5019V16.5401V16.5783V16.6165V16.6547V16.6929V16.7273V16.7655V16.8037V16.8419V16.8801V16.9183V16.9565V16.9947V17.0329V17.0711V17.1093V17.1475V17.1857V17.2239V17.2621V17.3001V17.3383V17.3765V17.4147H13.7247ZM9.30043 16.2343L9.31188 16.2689L9.32713 16.3033H9.28918H9.25098H9.21303H9.17503H9.13703H9.09908H9.06088H9.02288H8.98878H8.95053H8.91253H8.87458H8.83658H8.79843H8.76043H8.72243H8.68448L8.69953 16.2689L8.71098 16.2343L8.72628 16.1961L8.74158 16.1617L8.75278 16.1271L8.76803 16.0927L8.78333 16.0545L8.79843 16.0199L8.80983 15.9855L8.82513 15.9511L8.84038 15.9165L8.85163 15.8783L8.86693 15.8439L8.88218 15.8093L8.89368 15.7749L8.90873 15.7405L8.92403 15.7021L8.93928 15.6677L8.95053 15.6334L8.96583 15.5988L8.98113 15.5605L8.99258 15.5259L9.00758 15.4916L9.02288 15.5259L9.03438 15.5605L9.04938 15.5988L9.06468 15.6334L9.07618 15.6677L9.09143 15.7021L9.10648 15.7405L9.11793 15.7749L9.13323 15.8093L9.14853 15.8439L9.15973 15.8783L9.17503 15.9165L9.18653 15.9511L9.20153 15.9855L9.21683 16.0199L9.22833 16.0545L9.24358 16.0927L9.25863 16.1271L9.27008 16.1617L9.28538 16.1961L9.30043 16.2343ZM10.5062 17.4147H10.468H10.4338H10.3959H10.3577H10.3197H10.2817H10.2476H10.2093H10.1714H10.1334H10.0954H10.0572H10.0231H9.98508H9.94708H9.90888H9.87093H9.83678H9.79878H9.76063L9.74553 17.3803L9.73408 17.3459L9.71883 17.3115L9.70353 17.2733L9.69228 17.2391L9.67703 17.2048L9.66173 17.1704L9.65048 17.136L9.63523 17.1016L9.61993 17.0672L9.60848 17.0328L9.59343 16.9947L9.57813 16.9603L9.56663 16.9259L9.55133 16.8915H9.51338H9.47543H9.43743H9.39948H9.36508H9.32708H9.28913H9.25093H9.21298H9.17498H9.13698H9.09903H9.06083H9.02283H8.98873H8.95048H8.91248H8.87453H8.83653H8.79838H8.76038H8.72238H8.68443H8.64648H8.61203H8.57413H8.53608H8.49788H8.45993L8.44488 16.9259L8.43343 16.9603L8.41813 16.9947L8.40283 17.0328L8.39163 17.0672L8.37633 17.1016L8.36103 17.136L8.34958 17.1704L8.33453 17.2048L8.31923 17.2391L8.30778 17.2733L8.29273 17.3115L8.27743 17.3459L8.26598 17.3803L8.25068 17.4147H8.21273H8.17478H8.13678H8.09858H8.06058H8.01878H7.98083H7.94283H7.90463H7.86668H7.82873H7.79068H7.75248H7.71458H7.67658H7.63478H7.59658H7.55858H7.52058H7.48263L7.49768 17.3803L7.51298 17.3459L7.52823 17.3115L7.54328 17.2733L7.55478 17.2391L7.57008 17.2048L7.58533 17.1704L7.60038 17.136L7.61568 17.1016L7.63093 17.0634L7.64598 17.029L7.66128 16.9947L7.67273 16.9603L7.68803 16.9259L7.70303 16.8915L7.71833 16.8533L7.73358 16.8189L7.74868 16.7845L7.76398 16.7502L7.77923 16.7158L7.79068 16.6814L7.80573 16.6432L7.82103 16.6088L7.83633 16.5744L7.85138 16.54L7.86668 16.5057L7.88198 16.4713L7.89703 16.433L7.90848 16.3987L7.92378 16.3643L7.93903 16.3299L7.95413 16.2955L7.96938 16.2612L7.98463 16.223L7.99973 16.1886L8.01498 16.1542L8.02643 16.1198L8.04173 16.0855L8.05678 16.0511L8.07208 16.0129L8.08738 15.9785L8.10238 15.9441L8.11768 15.9097L8.13298 15.8754L8.14443 15.8409L8.15948 15.8068L8.17478 15.7686L8.19003 15.7342L8.20508 15.6998L8.22033 15.6654L8.23563 15.6311L8.25068 15.5967L8.26213 15.5585L8.27743 15.5241L8.29273 15.4897L8.30778 15.4553L8.32308 15.4209L8.33833 15.3866L8.35343 15.3483L8.36868 15.314L8.38013 15.2796L8.39538 15.2452L8.41048 15.2108L8.42573 15.1764L8.44103 15.1383L8.45608 15.1039L8.47138 15.0695L8.48668 15.0351L8.49788 15.0008L8.51318 14.9663L8.52848 14.9281L8.54378 14.8938L8.55883 14.8594L8.57413 14.825L8.58938 14.7906L8.60443 14.7563L8.61593 14.718L8.63118 14.6836L8.64648 14.6493L8.66148 14.6149H8.69948H8.73388H8.77183H8.80978H8.84803H8.88213H8.92013H8.95813H8.99633H9.03053H9.06843H9.10643H9.14463H9.17878H9.21678H9.25473H9.29298H9.32708H9.36508L9.38033 14.6493L9.39563 14.6836L9.41073 14.718L9.42598 14.7563L9.43743 14.7906L9.45248 14.825L9.46778 14.8594L9.48303 14.8938L9.49833 14.9281L9.51338 14.9663L9.52868 15.0008L9.54398 15.0351L9.55518 15.0695L9.57048 15.1039L9.58578 15.1383L9.60108 15.1764L9.61613 15.2108L9.63138 15.2452L9.64668 15.2796L9.66173 15.314L9.67318 15.3483L9.68843 15.3866L9.70353 15.4209L9.71883 15.4553L9.73408 15.4897L9.74938 15.5241L9.76443 15.5585L9.77968 15.5967L9.79118 15.6311L9.80623 15.6654L9.82148 15.6998L9.83678 15.7342L9.85208 15.7686L9.86708 15.8068L9.88238 15.8409L9.89763 15.8754L9.90888 15.9097L9.92418 15.9441L9.93948 15.9785L9.95453 16.0129L9.96978 16.0511L9.98508 16.0855L10.0004 16.1198L10.0154 16.1542L10.0269 16.1886L10.0421 16.223L10.0572 16.2612L10.0725 16.2955L10.0878 16.3299L10.103 16.3643L10.1181 16.3987L10.1334 16.433L10.1448 16.4713L10.1599 16.5057L10.1752 16.54L10.1905 16.5744L10.2055 16.6088L10.2208 16.6432L10.2361 16.6814L10.2514 16.7158L10.2626 16.7502L10.2779 16.7845L10.2932 16.8189L10.3083 16.8533L10.3235 16.8915L10.3388 16.9259L10.3541 16.9603L10.3691 16.9947L10.3806 17.029L10.3959 17.0634L10.4109 17.1016L10.4262 17.136L10.4415 17.1704L10.4565 17.2048L10.4718 17.2391L10.4871 17.2733L10.4986 17.3115L10.5136 17.3459L10.5289 17.3803L10.5441 17.4147H10.5062Z" fill="white"/>
<path d="M5.951 8.34229H7.59935V7.06724H5.951V4.46432H7.66495V3.1893H4.55127V12.3912H7.69105V11.1162H5.951V8.34229Z" fill="white"/>
<path d="M17.7572 8.61845V10.6955C17.7572 11.0637 17.5871 11.2344 17.2341 11.2344H16.9723C16.606 11.2344 16.4359 11.0637 16.4359 10.6955V4.88497C16.4359 4.51689 16.606 4.34611 16.9723 4.34611H17.2078C17.561 4.34611 17.7312 4.51689 17.7312 4.88497V6.6861H19.1046V4.8061C19.1046 3.66254 18.5552 3.11038 17.4173 3.11038H16.7368C15.5988 3.11038 15.0361 3.67558 15.0361 4.81935V10.7612C15.0361 11.905 15.5988 12.4701 16.7368 12.4701H17.4302C18.5685 12.4701 19.1309 11.905 19.1309 10.7612V8.61845H17.7572Z" fill="white"/>
<path d="M12.8965 12.3914H14.2964V3.18942H12.8965V12.3914Z" fill="white"/>
<path fill-rule="evenodd" clip-rule="evenodd" d="M8.3667 3.1893H10.5644C11.7026 3.1893 12.2651 3.7545 12.2651 4.89826V7.34348C12.2651 8.48703 11.7026 9.05218 10.5644 9.05218H9.7665V12.3913H8.3667V3.1893ZM10.3422 7.81667C10.6955 7.81667 10.8654 7.64567 10.8654 7.27757V4.96388C10.8654 4.59584 10.6955 4.42502 10.3422 4.42502H9.76654V7.81667H10.3422Z" fill="white"/>
<path fill-rule="evenodd" clip-rule="evenodd" d="M7.85352 20.7118H15.8667L11.7767 22.0606L7.85352 20.7118Z" fill="white"/>
</svg>
