<svg width="32" height="49" viewBox="0 0 32 49" fill="none" xmlns="http://www.w3.org/2000/svg">
<g clip-path="url(#clip0_403_17852)">
<path fill-rule="evenodd" clip-rule="evenodd" d="M2.90225 48.6388H29.0566C31.1765 48.6388 31.9588 47.8581 31.9588 45.7416V20.2027C31.9588 19.9632 31.9492 19.7407 31.928 19.5346C31.8797 19.0726 31.8706 18.6249 31.4401 18.1152C31.398 18.0653 30.9584 17.7388 30.9584 17.7388C30.722 17.6231 30.5605 17.5379 30.2939 17.4308L17.4151 12.0462C16.7465 11.7404 16.4669 11.6211 15.9814 11.6308V11.6307C15.9807 11.6307 15.9801 11.6307 15.9794 11.6307C15.9788 11.6307 15.9782 11.6307 15.9776 11.6307V11.6308C15.4919 11.6211 15.2124 11.7404 14.5437 12.0462L1.66505 17.4308C1.39832 17.5379 1.23694 17.6231 1.00043 17.7388C1.00043 17.7388 0.560856 18.0653 0.518846 18.1152C0.0882966 18.6249 0.0792102 19.0726 0.0309466 19.5346C0.00974493 19.7407 0 19.9632 0 20.2027V45.7416C0 47.8581 0.782422 48.6388 2.90225 48.6388Z" fill="#666666"/>
<path d="M4.65418 22.9628L4.66011 22.9039L4.66596 22.8391L4.67781 22.7802L4.69546 22.7213L4.70692 22.6683L4.7247 22.6094L4.74827 22.5564L4.77191 22.5091L4.79515 22.4562L4.82464 22.4091L4.85415 22.3619L4.88924 22.3148L4.9188 22.2677L4.95383 22.2265L4.99516 22.1852L5.03027 22.1499L5.07743 22.1086L5.11842 22.0733L5.16563 22.0379L5.21255 22.0088L5.25941 21.9735L5.31255 21.9441L5.36534 21.9205L5.41808 21.8911L5.47714 21.8675L5.5358 21.8439L5.59447 21.8263L5.65314 21.8085L5.70627 21.7909L5.76494 21.7791L5.81778 21.7673L5.87052 21.7555L5.92958 21.7437L5.9883 21.7379L6.04104 21.732L6.1001 21.7261L6.16464 21.7202L6.22336 21.7143H6.28203H6.34662H6.41156H6.47022L6.52894 21.7202H6.59348L6.6522 21.7261L6.71121 21.732L6.7758 21.7379L6.83447 21.7496L6.89314 21.7555L6.9522 21.7673L7.01092 21.7791L7.06958 21.7909L7.12825 21.8027L7.18726 21.8203L7.24005 21.8321L7.29872 21.8498L7.35743 21.8675L7.41052 21.8911L7.46919 21.9087L7.52198 21.9263L7.58074 21.9499L7.63378 21.9735L7.68662 21.9971L7.73941 22.0261L7.7925 22.0497L7.84529 22.0792L7.89215 22.1086L7.94529 22.1381L7.9922 22.1675L8.03941 22.197L8.08627 22.2323L8.13314 22.2677L8.18035 22.303L8.22731 22.3384L8.26859 22.3737L8.31546 22.4149L8.28005 22.462L8.23911 22.5033L8.20366 22.5505L8.16267 22.5976L8.12721 22.6388L8.0922 22.6859L8.05087 22.7331L8.0158 22.7743L7.97447 22.8214L7.93936 22.8627L7.89808 22.9098L7.86301 22.957L7.82756 22.9982L7.78662 23.0453L7.75121 23.0924L7.71022 23.1336L7.67482 23.1807L7.62795 23.1454L7.57511 23.1101L7.5279 23.0747L7.47511 23.0394L7.4279 23.0099L7.37511 22.9746L7.3283 22.9451L7.27506 22.9216L7.22825 22.8921L7.17546 22.8685L7.12232 22.845L7.06958 22.8214L7.01669 22.8037L6.96366 22.7802L6.90499 22.7625L6.84622 22.7448L6.79348 22.7272L6.73442 22.7153L6.67576 22.7036L6.61709 22.6918L6.5525 22.6859L6.49353 22.6741H6.43477L6.37027 22.6683H6.31151H6.24109L6.1765 22.6741L6.11743 22.6859L6.06469 22.6977L6.01185 22.7095L5.96464 22.7272L5.92366 22.7507L5.87645 22.786L5.84139 22.8273L5.81778 22.8745L5.8 22.9274L5.79418 22.9864V22.9982L5.8 23.0689L5.82361 23.1278L5.85319 23.169L5.89413 23.2043L5.94143 23.2397L5.9883 23.2632L6.04104 23.2868L6.1001 23.3104L6.17057 23.3398L6.21156 23.3516L6.25837 23.3634L6.31151 23.3811L6.36435 23.3928L6.42301 23.4105L6.48208 23.4223L6.54657 23.44L6.60533 23.4517L6.66993 23.4694L6.72859 23.4812L6.78766 23.4988L6.84622 23.5107L6.90499 23.5284L6.95812 23.546L7.01669 23.5578L7.06958 23.5755L7.12232 23.5931L7.17546 23.6108L7.24005 23.6344L7.29872 23.658L7.35743 23.6815L7.41645 23.7051L7.46919 23.7346L7.5279 23.764L7.57511 23.7934L7.62795 23.8229L7.67482 23.8582L7.72203 23.8876L7.76296 23.9231L7.80425 23.9642L7.84529 24.0055L7.88069 24.0468L7.91575 24.088L7.94529 24.1292L7.97447 24.1764L8.00395 24.2293L8.02761 24.2702L8.04533 24.3173L8.06262 24.3704L8.08035 24.4175L8.0922 24.4764L8.104 24.5294L8.10993 24.5883L8.11575 24.6473L8.12168 24.712V24.7768V24.7886V24.8476L8.11575 24.9064L8.10993 24.9595L8.104 25.0184L8.0922 25.0713L8.08035 25.1244L8.06262 25.1775L8.05087 25.2304L8.02761 25.2834L8.00395 25.3365L7.9804 25.3894L7.95116 25.4425L7.92173 25.4955L7.88662 25.5427L7.85116 25.5898L7.81017 25.6369L7.76889 25.6781L7.7279 25.7253L7.68069 25.7665L7.6397 25.796L7.5925 25.8313L7.54558 25.8667L7.49877 25.8961L7.44563 25.9256L7.39279 25.9491L7.34005 25.9785L7.28692 26.0021L7.22825 26.0198L7.16958 26.0433L7.11645 26.061L7.06958 26.0729L7.01669 26.0846L6.96366 26.0964L6.90499 26.1082L6.85215 26.12L6.79348 26.1258L6.73442 26.1318L6.67576 26.1377L6.61709 26.1435H6.55842H6.49353H6.42884H6.36435L6.29976 26.1377L6.23516 26.1318H6.1765L6.11156 26.1258L6.05289 26.1141L5.9883 26.1082L5.92958 26.0964L5.87645 26.0846L5.81778 26.0729L5.75911 26.061L5.70627 26.0493L5.64731 26.0316L5.59447 26.0139L5.54168 26.0021L5.48267 25.9785L5.42988 25.9609L5.37714 25.9374L5.32435 25.9138L5.26534 25.8902L5.21255 25.8608L5.16563 25.8372L5.1125 25.8077L5.05971 25.7783L5.01284 25.7488L4.95976 25.7135L4.91281 25.6841L4.8656 25.6487L4.81872 25.6133L4.77191 25.578L4.80694 25.5308L4.83643 25.4837L4.87153 25.4366L4.90695 25.3894L4.94198 25.3365L4.97156 25.2894L5.00697 25.2422L5.04208 25.1951L5.07151 25.148L5.10667 25.1008L5.14203 25.0537L5.17156 25.0066L5.20662 24.9536L5.24208 24.9064L5.27714 24.8593L5.30662 24.8122L5.34173 24.7651L5.38894 24.8004L5.44168 24.8299L5.48859 24.8593L5.5358 24.8947L5.58855 24.9182L5.63585 24.9477L5.68859 24.9713L5.73546 24.9948L5.78859 25.0184L5.83546 25.0419L5.8882 25.0596L5.93541 25.0832L6.0001 25.1008L6.05877 25.1185L6.11743 25.1361L6.1765 25.148L6.23516 25.1597L6.29383 25.1716L6.3525 25.1775L6.41156 25.1833L6.4643 25.1892H6.52301H6.59348L6.65808 25.1775L6.71714 25.1657L6.76988 25.1539L6.81674 25.1303L6.85808 25.1068L6.91092 25.0596L6.94632 25.0066L6.96948 24.9536L6.97551 24.8947V24.8828L6.96948 24.8063L6.9404 24.7415L6.91674 24.7062L6.8758 24.6649L6.82267 24.6355L6.7758 24.606L6.71714 24.5824L6.6522 24.5588L6.58168 24.5353L6.53482 24.5235L6.4879 24.5059L6.43477 24.4941L6.38203 24.4764L6.32336 24.4646L6.25837 24.447L6.19378 24.4293L6.12919 24.4116L6.06469 24.3998L6.00603 24.3821L5.94143 24.3645L5.88237 24.3527L5.82361 24.335L5.76494 24.3173L5.7122 24.2997L5.65314 24.282L5.60035 24.2643L5.54761 24.2467L5.48267 24.2235L5.424 24.1939L5.36534 24.1704L5.30662 24.141L5.25348 24.1115L5.20069 24.0821L5.15388 24.0526L5.10667 24.0173L5.05971 23.9879L5.01284 23.9466L4.96563 23.9054L4.92466 23.8582L4.88338 23.817L4.84828 23.7698L4.81286 23.7169L4.78369 23.6697L4.75413 23.6167L4.73056 23.5696L4.71285 23.5166L4.69546 23.4636L4.68368 23.4105L4.67189 23.3516L4.66011 23.2927L4.65418 23.2338L4.64825 23.169V23.1042V23.0924V23.0276L4.65418 22.9628ZM8.77561 21.7849H8.83457H8.89324H8.9519H9.01057H9.06963H9.1284H9.18696H9.24573H9.31062H9.36928H9.42795H9.48662H9.54578H9.60435H9.66311H9.72178H9.78084H9.83951H9.89817H9.95684H10.0156H10.0746H10.1332H10.1919H10.2506H10.3097H10.3683H10.427H10.4916H10.5506H10.6093H10.668H10.7267H10.7857H10.8444H10.9031H10.9618H11.0208H11.0795H11.1381H11.1968H11.2559H11.3145H11.3732H11.4319H11.4909H11.5496H11.6142H11.6729H11.7316H11.7906H11.8493H11.908H11.9666H12.0256H12.0843H12.143V21.8439V21.9028V21.9617V22.0203V22.0792V22.1381V22.197V22.2558V22.3148V22.3737V22.4326V22.4915V22.5505V22.6094V22.6683V22.7272V22.786V22.845V22.898V22.957V23.0158V23.0747V23.1336V23.1926V23.2515V23.3104V23.3693V23.4282V23.4871V23.546V23.6049V23.6638V23.7227V23.7817V23.8406V23.8994V23.9584V24.0173V24.0762V24.1351V24.1939V24.2526V24.3114V24.3704V24.4293V24.4882V24.5471V24.606V24.6649V24.7238V24.7828V24.8416V24.9006V24.9595V25.0125V25.0713V25.1303V25.1892V25.2481V25.307V25.3659V25.4249V25.4837V25.5427V25.6015V25.6605V25.7194V25.7783V25.8372V25.8961V25.955V26.0139V26.0729H12.0843H12.0256H11.9666H11.908H11.8493H11.7906H11.7316H11.6729H11.6142H11.5555H11.4965H11.4378H11.3792H11.3204H11.2674H11.2086H11.15H11.0913H11.0322H10.9736H10.9149H10.8562H10.7972H10.7385H10.6799H10.6211H10.5621H10.5034H10.4447H10.3861H10.327H10.2682H10.2097H10.151H10.0922H10.0332H9.97452H9.91585H9.85719H9.79812H9.73946H9.68079H9.62212H9.56894H9.51027H9.45161H9.39289H9.33388H9.27521H9.21654H9.15788H9.09882H9.04015H8.98148H8.92277H8.86375H8.80504H8.74637V26.0139V25.9609V25.902V25.8431V25.7842V25.7312V25.6723V25.6133V25.5603V25.5014V25.4425V25.3894V25.3306V25.2717V25.2128V25.1597V25.1008H8.80504H8.86375H8.92277H8.98148H9.04015H9.09882H9.15195H9.21062H9.26929H9.328H9.38701H9.44568H9.5044H9.56306H9.62212H9.68079H9.73946H9.79812H9.85719H9.90993H9.96869H10.0274H10.0864H10.145H10.2038H10.2624H10.3215H10.3801H10.4388H10.4975H10.5565H10.6153H10.668H10.7267H10.7857H10.8444H10.9031H10.9618H11.0208V25.0419V24.983V24.9242V24.8652V24.8063V24.7533V24.6944V24.6355V24.5766V24.5176V24.4588V24.3998H10.9618H10.9031H10.8444H10.7857H10.7267H10.668H10.6093H10.5506H10.4975H10.4388H10.3801H10.3215H10.2624H10.2038H10.145H10.0864H10.0274H9.96869H9.90993H9.85126H9.7923H9.73363H9.67486H9.61615H9.55714H9.49847H9.44568H9.38701H9.328H9.26929H9.21062H9.15195H9.09294H9.03422H8.97556V24.3409V24.2879V24.2293V24.1704V24.1174V24.0585V23.9996V23.9466V23.8876V23.8288V23.7698V23.7169V23.658V23.599V23.546V23.4871H9.03422H9.09294H9.15195H9.21062H9.26929H9.328H9.38701H9.44568H9.49847H9.55714H9.61615H9.67486H9.73363H9.7923H9.85126H9.90993H9.96869H10.0274H10.0864H10.145H10.2038H10.2624H10.3215H10.3801H10.4388H10.4975H10.5506H10.6093H10.668H10.7267H10.7857H10.8444H10.9031H10.9618H11.0208V23.4282V23.3634V23.3045V23.2455V23.1807V23.1218V23.063V22.9982V22.9393V22.8803V22.8156V22.7567H10.9618H10.9031H10.8444H10.7857H10.7267H10.668H10.6093H10.5506H10.4916H10.427H10.3683H10.3097H10.2506H10.1919H10.1332H10.0746H10.0156H9.95684H9.89817H9.83951H9.78084H9.72178H9.66311H9.60435H9.54578H9.48662H9.42795H9.36928H9.31062H9.24573H9.18696H9.1284H9.06963H9.01057H8.9519H8.89324H8.83457H8.77561H8.71684V22.6977V22.6447V22.5858V22.5269V22.4679V22.4149V22.3561V22.2972V22.2441V22.1852V22.1263V22.0733V22.0147V21.9558V21.897V21.8439V21.7849H8.77561ZM13.0695 21.7849H13.1282H13.1869H13.2518H13.3104H13.3692H13.4279H13.4869H13.5456H13.6102H13.6688H13.7276H13.7866H13.8452H13.9039H13.9685H14.0276H14.0862H14.1449V21.8439V21.9028V21.9617V22.0206V22.0799V22.1387V22.1977V22.2566V22.3155V22.3744V22.4333V22.4925V22.5515V22.6104V22.6693V22.7282V22.7875V22.8464V22.9053V22.9642V23.0231V23.082V23.1413V23.2002V23.2591V23.318V23.3769V23.4358V23.4951V23.554V23.6129V23.6718V23.7307V23.7896V23.8489V23.9077V23.9667V24.0256V24.0845V24.1438V24.2026V24.2616V24.3205L14.1744 24.2734L14.2095 24.22L14.239 24.1729L14.2741 24.1257L14.3036 24.0727L14.3391 24.0256L14.3681 23.9784L14.3977 23.9251L14.4327 23.878L14.4623 23.8308L14.4977 23.7837L14.5268 23.7303L14.5623 23.6832L14.5914 23.6361L14.621 23.5831L14.6564 23.5357L14.6856 23.4884L14.721 23.4355L14.7501 23.3883L14.7855 23.3412L14.8147 23.2879L14.8442 23.2407L14.8796 23.1935L14.9088 23.1405L14.9442 23.0931L14.9734 23.046L15.0088 22.9988L15.0384 22.9459L15.0676 22.8984L15.1029 22.8512L15.132 22.7982L15.1675 22.7511L15.197 22.704L15.2321 22.6506L15.2616 22.6035H15.2849L15.3202 22.6565L15.3498 22.704L15.3849 22.757L15.4144 22.8041L15.4495 22.8571L15.479 22.9046L15.514 22.9576L15.5436 23.0048L15.579 23.0577L15.6082 23.1048L15.6436 23.1583L15.6727 23.2054L15.7081 23.2584L15.7377 23.3055L15.7727 23.3589L15.8023 23.406L15.8373 23.459L15.8727 23.5061L15.9022 23.5595L15.9373 23.6066L15.9668 23.6596L16.0019 23.7068L16.0314 23.7602L16.0665 23.8073L16.096 23.8603L16.1315 23.9074L16.1606 23.9605L16.196 24.008L16.2252 24.0609L16.2606 24.1081L16.2901 24.1611L16.3251 24.2081L16.3548 24.2616L16.3898 24.3087V24.2498V24.1909V24.132V24.0727V24.0138V23.9549V23.896V23.8371V23.7778V23.7189V23.6659V23.607V23.5481V23.4892V23.4299V23.371V23.3121V23.2532V23.1943V23.1353V23.0762V23.0172V22.9583V22.8994V22.8405V22.7816V22.7223V22.6634V22.6045V22.5456V22.4867V22.4275V22.3744V22.3155V22.2566V22.1977V22.1387V22.0799V22.0206V21.9617V21.9028V21.8439V21.7849H16.4485H16.5075H16.5662H16.6249H16.6836H16.7425H16.8013H16.8599H16.9187H16.9777H17.0363H17.0951H17.1537H17.2127H17.2714H17.3301H17.3888H17.4478H17.5065V21.8439V21.9028V21.9617V22.0203V22.0792V22.1381V22.197V22.2558V22.3148V22.3737V22.4326V22.4915V22.5505V22.6094V22.6683V22.7272V22.786V22.845V22.898V22.957V23.0158V23.0747V23.1336V23.1926V23.2515V23.3104V23.3693V23.4282V23.4871V23.546V23.6049V23.6638V23.7227V23.7817V23.8406V23.8994V23.9584V24.0173V24.0762V24.1351V24.1939V24.2526V24.3114V24.3704V24.4293V24.4882V24.5471V24.606V24.6649V24.7238V24.7828V24.8416V24.9006V24.9595V25.0125V25.0713V25.1303V25.1892V25.2481V25.307V25.3659V25.4249V25.4837V25.5427V25.6015V25.6605V25.7194V25.7783V25.8372V25.8961V25.955V26.0139V26.0729H17.4478H17.3888H17.336H17.2774H17.2187H17.1597H17.1069H17.0482H16.9891H16.9305H16.8776H16.819H16.7599H16.7012H16.6485H16.5898H16.5308H16.472H16.4193H16.3606H16.3016L16.2724 26.0257L16.2429 25.9727L16.2079 25.926L16.1783 25.8729L16.1488 25.8258L16.1197 25.7727L16.0902 25.726L16.055 25.6729L16.0256 25.6258L15.996 25.5787L15.9668 25.5261L15.9373 25.4789L15.9022 25.4259L15.8727 25.3787L15.8433 25.3261L15.8141 25.279L15.7787 25.2319L15.7491 25.1791L15.72 25.1321L15.6905 25.079L15.6612 25.0319L15.6258 24.9792L15.5963 24.9321L15.5672 24.8791L15.5377 24.8323L15.5085 24.7852L15.4731 24.7322L15.4436 24.685L15.4144 24.632L15.3849 24.5852L15.3558 24.5322L15.3202 24.485L15.2908 24.4324L15.2616 24.3853L15.2321 24.4324L15.2026 24.485L15.1675 24.5322L15.1381 24.5852L15.1088 24.632L15.0793 24.685L15.0442 24.7322L15.0147 24.7852L14.9852 24.8323L14.956 24.8791L14.9206 24.9321L14.8915 24.9792L14.8619 25.0319L14.8325 25.079L14.7974 25.1321L14.7679 25.1791L14.7383 25.2319L14.7092 25.279L14.6796 25.3261L14.6445 25.3787L14.6151 25.4259L14.5856 25.4789L14.5563 25.5261L14.521 25.5787L14.4918 25.6258L14.4623 25.6729L14.4327 25.726L14.3977 25.7727L14.3681 25.8258L14.3391 25.8729L14.3095 25.926L14.2741 25.9727L14.2449 26.0257L14.2154 26.0729H14.1567H14.098H14.0449H13.9862H13.9275H13.8688H13.8157H13.757H13.6984H13.6397H13.5865H13.5279H13.4692H13.4105H13.3574H13.2987H13.24H13.1813H13.1282H13.0695H13.0109V26.0139V25.955V25.8961V25.8372V25.7783V25.7194V25.6605V25.6015V25.5427V25.4837V25.4249V25.3659V25.307V25.2481V25.1892V25.1303V25.0713V25.0125V24.9595V24.9006V24.8416V24.7828V24.7238V24.6649V24.606V24.5471V24.4882V24.4293V24.3704V24.3114V24.2526V24.1939V24.1351V24.0762V24.0173V23.9584V23.8994V23.8406V23.7817V23.7227V23.6638V23.6049V23.546V23.4871V23.4282V23.3693V23.3104V23.2515V23.1926V23.1336V23.0747V23.0158V22.957V22.898V22.845V22.786V22.7272V22.6683V22.6094V22.5505V22.4915V22.4326V22.3737V22.3148V22.2558V22.197V22.1381V22.0792V22.0203V21.9617V21.9028V21.8439V21.7849H13.0695ZM19.8882 23.5519L19.9059 23.6052L19.9292 23.6642L19.9528 23.7172L19.9705 23.7705L19.9938 23.8236L20.0173 23.8825L20.0351 23.9359L20.0588 23.9889L20.0819 24.0419L20.0997 24.0952L20.1234 24.1541L20.1406 24.2072L20.1643 24.2605L20.1879 24.3135L20.2056 24.3666L20.2289 24.4258L20.2524 24.4789L20.2702 24.5318L20.2938 24.5852L20.317 24.6441L20.3348 24.6975L20.3584 24.7505L20.3816 24.6975L20.3993 24.6441L20.4229 24.5852L20.4466 24.5318L20.4639 24.4789L20.4875 24.4258L20.5112 24.3666L20.5344 24.3135L20.5522 24.2605L20.5758 24.2072L20.5994 24.1541L20.6168 24.0952L20.6403 24.0419L20.664 23.9889L20.6816 23.9359L20.7049 23.8825L20.7286 23.8236L20.7521 23.7705L20.7695 23.7172L20.7931 23.6642L20.8167 23.6052L20.8345 23.5519L20.8577 23.4988H20.799H20.7403H20.6816H20.6226H20.5639H20.5053H20.4466H20.3875H20.3348H20.2761H20.217H20.1584H20.0997H20.041H19.9823H19.9233H19.8646L19.8882 23.5519ZM18.0426 21.7849H18.1016H18.1545H18.2131H18.2721H18.3308H18.3895H18.4423H18.5013H18.56H18.6187H18.6774H18.7364H18.7892H18.8479H18.9066H18.9656H19.0243H19.0771H19.1358H19.1948L19.2181 21.838L19.2358 21.8911L19.2594 21.9441L19.283 22.0029L19.3003 22.0557L19.3239 22.1086L19.3476 22.1616L19.3649 22.2146L19.3885 22.2677L19.4121 22.3207L19.4298 22.3737L19.4531 22.4326L19.4767 22.4856L19.4945 22.5387L19.5181 22.5917H19.5768H19.6355H19.6941H19.7528H19.8059H19.8646H19.9233H19.9823H20.041H20.0997H20.1584H20.217H20.2761H20.3348H20.3875H20.4466H20.5053H20.5639H20.6226H20.6816H20.7403H20.799H20.8577H20.9163H20.9696H21.0281H21.0869H21.146H21.2046L21.2278 22.5387L21.2456 22.4856L21.2692 22.4326L21.2928 22.3737L21.3102 22.3207L21.3337 22.2677L21.3574 22.2146L21.3751 22.1616L21.3983 22.1086L21.422 22.0557L21.4397 22.0029L21.463 21.9441L21.4866 21.8911L21.5043 21.838L21.5279 21.7849H21.5866H21.6452H21.7039H21.763H21.8216H21.8862H21.9449H22.0037H22.0626H22.1213H22.1799H22.2387H22.2978H22.3563H22.415H22.4796H22.5387H22.5973H22.6561H22.7148L22.6915 21.838L22.6678 21.8911L22.6443 21.9441L22.621 22.0029L22.6033 22.0557L22.5797 22.1086L22.556 22.1616L22.5328 22.2146L22.5092 22.2677L22.4855 22.3266L22.4623 22.3796L22.4387 22.4326L22.421 22.4856L22.3974 22.5387L22.3741 22.5917L22.3505 22.6506L22.3269 22.7036L22.3036 22.7567L22.28 22.8097L22.2564 22.8627L22.2387 22.9157L22.2155 22.9746L22.1918 23.0276L22.1682 23.0806L22.1449 23.1336L22.1213 23.1866L22.0977 23.2397L22.0744 23.2986L22.0567 23.3516L22.0331 23.4046L22.0095 23.4576L21.9862 23.5107L21.9626 23.5637L21.9391 23.6226L21.9157 23.6756L21.8921 23.7286L21.8745 23.7817L21.8508 23.8346L21.8276 23.8876L21.8039 23.9466L21.7803 23.9996L21.757 24.0526L21.7335 24.1056L21.7098 24.1586L21.6921 24.2117L21.6688 24.2643L21.6452 24.3233L21.6217 24.3762L21.5984 24.4293L21.5748 24.4823L21.5512 24.5353L21.5279 24.5883L21.5102 24.6473L21.4866 24.7003L21.463 24.7533L21.4397 24.8063L21.416 24.8593L21.3925 24.9124L21.3692 24.9713L21.3456 25.0242L21.3279 25.0773L21.3043 25.1303L21.281 25.1833L21.2574 25.2363L21.2338 25.2952L21.2106 25.3482L21.1869 25.4013L21.1633 25.4543L21.146 25.5073L21.1223 25.5603L21.0987 25.6192L21.0751 25.6723L21.0518 25.7253L21.0281 25.7783L21.0046 25.8313L20.9813 25.8843L20.9636 25.9432L20.94 25.9962L20.9163 26.0493L20.8931 26.1023H20.8345H20.7813H20.7227H20.664H20.6049H20.5522H20.4935H20.4348H20.3757H20.3229H20.2643H20.2056H20.1466H20.0938H20.0351H19.9764H19.9174H19.8646H19.8059L19.7823 26.0493L19.7587 25.9962L19.7354 25.9432L19.7118 25.8843L19.6941 25.8313L19.6709 25.7783L19.6472 25.7253L19.6237 25.6723L19.6 25.6192L19.5768 25.5603L19.5531 25.5073L19.5295 25.4543L19.5122 25.4013L19.4885 25.3482L19.4649 25.2952L19.4413 25.2363L19.418 25.1833L19.3945 25.1303L19.3708 25.0773L19.3476 25.0242L19.3299 24.9713L19.3063 24.9124L19.283 24.8593L19.2594 24.8063L19.2358 24.7533L19.2121 24.7003L19.1889 24.6473L19.1653 24.5883L19.1476 24.5353L19.1243 24.4823L19.1007 24.4293L19.0771 24.3762L19.0534 24.3233L19.0302 24.2643L19.0066 24.2117L18.983 24.1586L18.9656 24.1056L18.942 24.0526L18.9184 23.9996L18.8951 23.9466L18.8715 23.8876L18.8479 23.8346L18.8242 23.7817L18.801 23.7286L18.7833 23.6756L18.7597 23.6226L18.7364 23.5637L18.7128 23.5107L18.6892 23.4576L18.6656 23.4046L18.6423 23.3516L18.6187 23.2986L18.601 23.2397L18.5777 23.1866L18.5542 23.1336L18.5305 23.0806L18.5073 23.0276L18.4837 22.9746L18.46 22.9157L18.4363 22.8627L18.4191 22.8097L18.3954 22.7567L18.3718 22.7036L18.3485 22.6506L18.3249 22.5917L18.3013 22.5387L18.2777 22.4856L18.2545 22.4326L18.2367 22.3796L18.2131 22.3266L18.1898 22.2677L18.1663 22.2146L18.1427 22.1616L18.1194 22.1086L18.0958 22.0557L18.0722 22.0029L18.0544 21.9441L18.0312 21.8911L18.0076 21.838L17.984 21.7849H18.0426ZM23.1911 22.3325L23.2383 22.2972L23.2794 22.2677L23.3266 22.2323L23.3734 22.2029L23.4203 22.1675L23.4676 22.1381L23.5144 22.1086L23.5676 22.0792L23.6203 22.0497L23.6732 22.0203L23.7262 21.9971L23.7791 21.9676L23.8377 21.9441L23.8905 21.9205L23.9495 21.897L24.0023 21.8734L24.0551 21.8557L24.1082 21.838L24.161 21.8203L24.2197 21.8027L24.2724 21.7849L24.3315 21.7732L24.3843 21.7614L24.443 21.7496L24.5019 21.7379L24.5607 21.732L24.6253 21.7261L24.6839 21.7202L24.7485 21.7143L24.8076 21.7084L24.8721 21.7025H24.9367H25.0014H25.0659H25.1249L25.1836 21.7084L25.2482 21.7143L25.3069 21.7202L25.3655 21.7261L25.4246 21.732L25.4833 21.7437L25.542 21.7555L25.5948 21.7673L25.6537 21.7791L25.7066 21.7967L25.7652 21.8085L25.8184 21.8263L25.8712 21.8498L25.9239 21.8675L25.9826 21.8911L26.0357 21.9146L26.0885 21.9381L26.1412 21.9617L26.1945 21.9911L26.2413 22.0203L26.2941 22.0497L26.3413 22.0792L26.3881 22.1086L26.4354 22.144L26.4823 22.1793L26.5292 22.2146L26.5705 22.25L26.6115 22.2854L26.6528 22.3266L26.6937 22.3619L26.7351 22.4032L26.776 22.4444L26.8115 22.4856L26.8466 22.5327L26.882 22.574L26.9115 22.6211L26.9466 22.6683L26.976 22.7153L27.0052 22.7625L27.0348 22.8156L27.0642 22.8627L27.0875 22.9157L27.1111 22.9687L27.1347 23.0218L27.158 23.0747L27.1757 23.1218L27.1994 23.1749L27.2112 23.2279L27.2285 23.2809L27.2403 23.3398L27.258 23.3928L27.2698 23.4517L27.2757 23.5048L27.2876 23.5637L27.2934 23.6167L27.2994 23.6756L27.3049 23.7346L27.3108 23.7934V23.8582V23.9171V23.9289V23.9879L27.3049 24.0526V24.1115L27.2994 24.1704L27.2934 24.2352L27.2816 24.2938L27.2757 24.3527L27.2639 24.4058L27.2462 24.4646L27.2344 24.5235L27.2171 24.5766L27.1994 24.6355L27.1816 24.6885L27.158 24.7474L27.1347 24.8004L27.1111 24.8534L27.0875 24.9064L27.0642 24.9595L27.0348 25.0125L27.0052 25.0596L26.976 25.1068L26.9466 25.1539L26.917 25.201L26.882 25.2481L26.8466 25.2952L26.8115 25.3423L26.776 25.3837L26.7351 25.4249L26.6996 25.4661L26.6587 25.5073L26.6174 25.5486L26.5764 25.5839L26.5292 25.6252L26.4882 25.6605L26.4413 25.6958L26.3941 25.7253L26.3472 25.7606L26.2999 25.79L26.2531 25.8195L26.2003 25.849L26.1472 25.8785L26.0944 25.9079L26.0416 25.9315L25.9885 25.955L25.9298 25.9845L25.883 26.0021L25.8243 26.0198L25.7711 26.0433L25.7183 26.0552L25.6656 26.0729L25.6066 26.0846L25.5538 26.1023L25.4951 26.1141L25.4364 26.12L25.3774 26.1318L25.3187 26.1377L25.26 26.1435L25.2013 26.1494L25.1423 26.1553H25.0777H25.019H24.9545H24.8899L24.8249 26.1494L24.7603 26.1435H24.7016L24.643 26.1377L24.5784 26.1258L24.5252 26.12L24.4666 26.1082L24.4078 26.0964L24.3548 26.0846L24.302 26.0729L24.2492 26.061L24.196 26.0433L24.1433 26.0316L24.0964 26.0139L24.0433 25.9962L23.9905 25.9727L23.9377 25.9491L23.8846 25.9256L23.8318 25.8961L23.7791 25.8725L23.7317 25.8431L23.679 25.8137L23.6321 25.7842L23.579 25.7547L23.5321 25.7194L23.4852 25.6899L23.438 25.6546L23.3912 25.6192L23.3439 25.578L23.2971 25.5427L23.3325 25.4955L23.3734 25.4543L23.4089 25.4072L23.4498 25.3601L23.4852 25.3129L23.5203 25.2717L23.5617 25.2246L23.5967 25.1775L23.6321 25.1361L23.6732 25.089L23.7085 25.0419L23.7495 24.9948L23.785 24.9536L23.82 24.9064L23.8613 24.8593L23.8964 24.8122L23.9377 24.7709L23.9728 24.7238L24.02 24.7592L24.0669 24.8004L24.1141 24.8299L24.161 24.8652L24.2079 24.8947L24.2551 24.9242L24.302 24.9536L24.3548 24.983L24.402 25.0066L24.4489 25.0301L24.4961 25.0478L24.5489 25.0655L24.6016 25.0832L24.6548 25.0949L24.7134 25.1068L24.7721 25.1185L24.8308 25.1244L24.8954 25.1303L24.9603 25.1361H25.0249H25.0836L25.1423 25.1303L25.1954 25.1244L25.2541 25.1126L25.3069 25.1008L25.36 25.0832L25.4127 25.0655L25.4656 25.0419L25.5184 25.0184L25.5656 24.9889L25.6124 24.9595L25.6597 24.93L25.7006 24.8947L25.742 24.8593L25.7829 24.8239L25.8184 24.7828L25.8593 24.7415L25.8947 24.6944L25.9239 24.6531L25.9535 24.606L25.9826 24.553L26.0121 24.5059L26.0357 24.4529L26.0534 24.3998L26.0767 24.3468L26.0944 24.2879L26.1062 24.2293L26.118 24.1764L26.1299 24.1115L26.1357 24.0526L26.1412 23.9938V23.9289V23.9171V23.8582L26.1357 23.7993L26.1299 23.7463L26.1239 23.6873L26.1121 23.6344L26.1003 23.5813L26.0885 23.5284L26.0708 23.4753L26.0534 23.4282L26.0298 23.3693L26.0062 23.3163L25.977 23.2632L25.9475 23.2161L25.918 23.169L25.883 23.1218L25.8475 23.0806L25.8066 23.0394L25.7711 22.9982L25.7302 22.9628L25.6829 22.9274L25.636 22.8921L25.5892 22.8627L25.542 22.8332L25.4891 22.8097L25.4364 22.786L25.3833 22.7625L25.3246 22.7448L25.2659 22.7272L25.2069 22.7153L25.1482 22.7036L25.0895 22.6977L25.0249 22.6918H24.9603H24.8899L24.8249 22.6977L24.7603 22.7036L24.7016 22.7095L24.643 22.7213L24.5839 22.7331L24.5252 22.7507L24.4725 22.7625L24.4197 22.786L24.3724 22.8097L24.3197 22.8332L24.2784 22.8568L24.2315 22.8862V22.9451V23.004V23.063V23.1218V23.1866V23.2455V23.3045V23.3634V23.4223H24.2902H24.3433H24.402H24.4606H24.5193H24.5724H24.6312H24.6899H24.7485H24.8016H24.8603H24.919H24.9777H25.0308H25.0895V23.4812V23.5342V23.5931V23.652V23.7109V23.764V23.8229V23.8818V23.9406V23.9938V24.0526V24.1115V24.1704V24.2235V24.282H25.0308H24.9718H24.9131H24.8545H24.7957H24.7371H24.678H24.6194H24.5607H24.5019H24.443H24.3843H24.3256H24.267H24.2079H24.1491H24.0905H24.0318H23.9728H23.9141H23.8554H23.7967H23.7378H23.679H23.6203H23.5617H23.5026H23.4439H23.3852H23.3266H23.2676H23.2089H23.1502V24.2235V24.1646V24.1056V24.0526V23.9938V23.9348V23.8759V23.817V23.7581V23.7051V23.6461V23.5872V23.5284V23.4694V23.4105V23.3516V23.2986V23.2397V23.1807V23.1218V23.063V23.004V22.9451V22.8921V22.8332V22.7743V22.7153V22.6565V22.5976V22.5445V22.4856V22.4267V22.3678L23.1911 22.3325Z" fill="#666666"/>
<path d="M25.081 35.7748H22.534V37.7409H25.081V41.7547H22.4326V43.7208H27.2439V29.5312H22.3923V31.4973H25.081V35.7748Z" fill="#666666"/>
<path d="M6.83744 35.3489V32.146C6.83744 31.5783 7.10036 31.315 7.64589 31.315H8.05043C8.61636 31.315 8.87927 31.5783 8.87927 32.146V41.106C8.87927 41.6736 8.61636 41.9369 8.05043 41.9369H7.68648C7.14065 41.9369 6.87774 41.6736 6.87774 41.106V38.3286H4.7554V41.2276C4.7554 42.9911 5.60446 43.8425 7.36283 43.8425H8.41428C10.1727 43.8425 11.0422 42.9709 11.0422 41.2072V32.0448C11.0422 30.281 10.1727 29.4095 8.41428 29.4095H7.34273C5.58391 29.4095 4.71484 30.281 4.71484 32.0448V35.3489H6.83744Z" fill="#666666"/>
<path d="M14.3487 29.5312H12.1855V43.7208H14.3487V29.5312Z" fill="#666666"/>
<path d="M17.4873 37.4166C17.4873 36.8489 17.7498 36.5852 18.2956 36.5852H19.1853V41.8153H18.2956C17.7498 41.8153 17.4873 41.5519 17.4873 40.9844V37.4166ZM17.9522 43.7208H21.3482V29.5312H19.1853V34.6801H17.9522C16.1935 34.6801 15.3243 35.5516 15.3243 37.315V41.0855C15.3243 42.8493 16.1935 43.7208 17.9522 43.7208Z" fill="#666666"/>
<path fill-rule="evenodd" clip-rule="evenodd" d="M22.1413 16.7009H9.75916L16.0793 14.621L22.1413 16.7009Z" fill="#666666"/>
<path fill-rule="evenodd" clip-rule="evenodd" d="M29.0566 -0.000427246H2.90226C0.782356 -0.000427246 0 0.780312 0 2.89682V28.4358C0 28.6753 0.00967862 28.8978 0.0308803 29.1039C0.0791437 29.5659 0.0882301 30.0135 0.51878 30.5232C0.560854 30.5732 1.00043 30.8996 1.00043 30.8996C1.23687 31.0153 1.39832 31.1005 1.66499 31.2076L14.5438 36.5923C15.2123 36.8981 15.4919 37.0173 15.9775 37.0077V37.0078C15.9781 37.0078 15.9787 37.0078 15.9794 37.0078C15.9801 37.0078 15.9806 37.0078 15.9813 37.0078V37.0077C16.4669 37.0173 16.7465 36.8981 17.4151 36.5923L30.2938 31.2076C30.5605 31.1005 30.7219 31.0153 30.9584 30.8996C30.9584 30.8996 31.398 30.5732 31.44 30.5232C31.8706 30.0135 31.8797 29.5659 31.9279 29.1039C31.9491 28.8978 31.9589 28.6753 31.9589 28.4358V2.89682C31.9589 0.780312 31.1764 -0.000427246 29.0566 -0.000427246Z" fill="white"/>
<path d="M27.3047 25.676L27.2988 25.7349L27.2929 25.7997L27.2811 25.8586L27.2634 25.9175L27.252 25.9705L27.2342 26.0294L27.2107 26.0824L27.187 26.1297L27.1637 26.1826L27.1343 26.2297L27.1048 26.2769L27.0697 26.324L27.0401 26.3711L27.0051 26.4123L26.9637 26.4536L26.9286 26.4889L26.8815 26.5302L26.8405 26.5655L26.7933 26.6009L26.7464 26.63L26.6995 26.6653L26.6464 26.6947L26.5936 26.7183L26.5408 26.7477L26.4818 26.7713L26.4231 26.7949L26.3644 26.8125L26.3058 26.8303L26.2526 26.8479L26.194 26.8597L26.1411 26.8715L26.0884 26.8833L26.0293 26.8951L25.9706 26.9009L25.9179 26.9068L25.8588 26.9127L25.7943 26.9186L25.7355 26.9245H25.6769H25.6123H25.5473H25.4887L25.43 26.9186H25.3654L25.3067 26.9127L25.2477 26.9068L25.1831 26.9009L25.1244 26.8892L25.0658 26.8833L25.0067 26.8715L24.948 26.8597L24.8893 26.8479L24.8307 26.8361L24.7716 26.8185L24.7189 26.8067L24.6602 26.789L24.6015 26.7713L24.5484 26.7477L24.4897 26.7301L24.4369 26.7125L24.3782 26.6889L24.3251 26.6653L24.2723 26.6417L24.2195 26.6127L24.1664 26.5891L24.1136 26.5596L24.0668 26.5302L24.0136 26.5007L23.9667 26.4713L23.9195 26.4418L23.8726 26.4065L23.8258 26.3711L23.7786 26.3358L23.7316 26.3004L23.6903 26.2651L23.6434 26.2239L23.6788 26.1768L23.7198 26.1355L23.7552 26.0883L23.7962 26.0412L23.8317 26L23.8667 25.9529L23.908 25.9057L23.9431 25.8645L23.9844 25.8174L24.0195 25.7761L24.0608 25.729L24.0959 25.6818L24.1313 25.6407L24.1723 25.5935L24.2077 25.5464L24.2487 25.5052L24.2841 25.4581L24.3309 25.4934L24.3838 25.5287L24.431 25.5641L24.4838 25.5995L24.531 25.6289L24.5838 25.6642L24.6306 25.6937L24.6838 25.7172L24.7307 25.7467L24.7834 25.7703L24.8366 25.7938L24.8893 25.8174L24.9422 25.8351L24.9952 25.8586L25.0539 25.8763L25.1127 25.894L25.1654 25.9116L25.2245 25.9235L25.2831 25.9352L25.3418 25.947L25.4064 25.9529L25.4654 25.9647H25.5241L25.5886 25.9705H25.6474H25.7178L25.7824 25.9647L25.8415 25.9529L25.8942 25.9411L25.947 25.9293L25.9943 25.9116L26.0352 25.8881L26.0825 25.8528L26.1175 25.8115L26.1411 25.7643L26.1589 25.7114L26.1647 25.6524V25.6407L26.1589 25.5699L26.1353 25.511L26.1057 25.4698L26.0648 25.4345L26.0175 25.3991L25.9706 25.3756L25.9179 25.352L25.8588 25.3284L25.7883 25.299L25.7473 25.2872L25.7005 25.2754L25.6474 25.2577L25.5946 25.246L25.5359 25.2283L25.4768 25.2165L25.4123 25.1989L25.3536 25.1871L25.289 25.1694L25.2303 25.1577L25.1712 25.14L25.1127 25.1281L25.0539 25.1104L25.0008 25.0928L24.9422 25.081L24.8893 25.0633L24.8366 25.0457L24.7834 25.028L24.7189 25.0044L24.6602 24.9808L24.6015 24.9573L24.5425 24.9337L24.4897 24.9042L24.431 24.8748L24.3838 24.8454L24.3309 24.8159L24.2841 24.7806L24.2369 24.7512L24.1959 24.7158L24.1547 24.6746L24.1136 24.6333L24.0782 24.592L24.0431 24.5508L24.0136 24.5096L23.9844 24.4624L23.9549 24.4095L23.9313 24.3686L23.9136 24.3215L23.8963 24.2684L23.8786 24.2213L23.8667 24.1624L23.8549 24.1094L23.849 24.0505L23.8431 23.9915L23.8372 23.9268V23.862V23.8502V23.7912L23.8431 23.7324L23.849 23.6793L23.8549 23.6204L23.8667 23.5675L23.8786 23.5144L23.8963 23.4613L23.908 23.4084L23.9313 23.3554L23.9549 23.3023L23.9785 23.2494L24.0077 23.1963L24.0372 23.1433L24.0723 23.0961L24.1077 23.049L24.1487 23.0019L24.19 22.9607L24.231 22.9135L24.2782 22.8723L24.3192 22.8428L24.3664 22.8075L24.4133 22.7721L24.4601 22.7427L24.5133 22.7132L24.5661 22.6897L24.6188 22.6602L24.672 22.6367L24.7307 22.619L24.7893 22.5955L24.8425 22.5778L24.8893 22.5659L24.9422 22.5542L24.9952 22.5424L25.0539 22.5307L25.1068 22.5188L25.1654 22.513L25.2245 22.507L25.2831 22.5011L25.3418 22.4953H25.4005H25.4654H25.5301H25.5946L25.6591 22.5011L25.7237 22.507H25.7824L25.8473 22.513L25.906 22.5247L25.9706 22.5307L26.0293 22.5424L26.0825 22.5542L26.1411 22.5659L26.1998 22.5778L26.2526 22.5895L26.3116 22.6072L26.3644 22.6249L26.4172 22.6367L26.4762 22.6602L26.529 22.6779L26.5818 22.7014L26.6346 22.725L26.6936 22.7486L26.7464 22.778L26.7933 22.8016L26.8464 22.8311L26.8992 22.8605L26.9461 22.89L26.9991 22.9253L27.0461 22.9547L27.0933 22.9901L27.1402 23.0255L27.187 23.0608L27.152 23.108L27.1225 23.1551L27.0874 23.2022L27.0519 23.2494L27.0169 23.3023L26.9873 23.3494L26.9519 23.3966L26.9168 23.4437L26.8874 23.4908L26.8522 23.538L26.8169 23.5851L26.7873 23.6322L26.7523 23.6852L26.7168 23.7324L26.6818 23.7795L26.6523 23.8266L26.6172 23.8737L26.57 23.8384L26.5172 23.8089L26.4703 23.7795L26.4231 23.7441L26.3704 23.7206L26.323 23.6911L26.2703 23.6675L26.2234 23.644L26.1703 23.6204L26.1234 23.5969L26.0707 23.5792L26.0235 23.5556L25.9588 23.538L25.9001 23.5203L25.8415 23.5027L25.7824 23.4908L25.7237 23.4791L25.6651 23.4672L25.6064 23.4613L25.5473 23.4555L25.4946 23.4496H25.4359H25.3654L25.3008 23.4613L25.2418 23.4731L25.189 23.4849L25.1422 23.5085L25.1008 23.532L25.048 23.5792L25.0126 23.6322L24.9894 23.6852L24.9834 23.7441V23.756L24.9894 23.8325L25.0185 23.8973L25.0422 23.9326L25.0831 23.9739L25.1362 24.0034L25.1831 24.0328L25.2418 24.0564L25.3067 24.08L25.3772 24.1035L25.4241 24.1153L25.471 24.1329L25.5241 24.1447L25.5769 24.1624L25.6355 24.1742L25.7005 24.1918L25.7651 24.2095L25.8297 24.2272L25.8942 24.239L25.9529 24.2567L26.0175 24.2743L26.0765 24.2861L26.1353 24.3038L26.194 24.3215L26.2467 24.3391L26.3058 24.3568L26.3586 24.3745L26.4113 24.3921L26.4762 24.4153L26.5349 24.4449L26.5936 24.4684L26.6523 24.4978L26.7054 24.5273L26.7582 24.5567L26.805 24.5862L26.8522 24.6215L26.8992 24.6509L26.9461 24.6922L26.9933 24.7334L27.0343 24.7806L27.0755 24.8218L27.1106 24.869L27.1461 24.9219L27.1752 24.9691L27.2048 25.0221L27.2283 25.0692L27.2461 25.1222L27.2634 25.1752L27.2752 25.2283L27.287 25.2872L27.2988 25.3461L27.3047 25.405L27.3107 25.4698V25.5346V25.5464V25.6112L27.3047 25.676ZM23.1833 26.8539H23.1243H23.0657H23.007H22.9483H22.8893H22.8305H22.7719H22.7132H22.6483H22.5896H22.5309H22.4723H22.4131H22.3546H22.2958H22.2371H22.1781H22.1194H22.0607H22.0021H21.9433H21.8843H21.8257H21.767H21.7083H21.6492H21.5906H21.5319H21.4673H21.4083H21.3496H21.2909H21.2322H21.1732H21.1145H21.0558H20.9971H20.9381H20.8794H20.8208H20.7621H20.703H20.6444H20.5857H20.527H20.468H20.4093H20.3447H20.286H20.2273H20.1683H20.1096H20.0508H19.9923H19.9333H19.8746H19.8159V26.7949V26.736V26.6771V26.6185V26.5596V26.5007V26.4418V26.383V26.324V26.2651V26.2062V26.1473V26.0883V26.0294V25.9705V25.9116V25.8528V25.7938V25.7408V25.6818V25.623V25.5641V25.5052V25.4462V25.3873V25.3284V25.2695V25.2106V25.1517V25.0928V25.0339V24.975V24.9161V24.8571V24.7982V24.7394V24.6804V24.6215V24.5626V24.5037V24.4449V24.3862V24.3274V24.2684V24.2095V24.1506V24.0917V24.0328V23.9739V23.915V23.8561V23.7972V23.7382V23.6793V23.6263V23.5675V23.5085V23.4496V23.3907V23.3318V23.2729V23.2139V23.1551V23.0961V23.0373V22.9783V22.9194V22.8605V22.8016V22.7427V22.6838V22.6249V22.5659H19.8746H19.9333H19.9923H20.0508H20.1096H20.1683H20.2273H20.286H20.3447H20.4034H20.4624H20.5211H20.5797H20.6385H20.6915H20.7503H20.8089H20.8676H20.9267H20.9853H21.044H21.1027H21.1617H21.2204H21.279H21.3378H21.3968H21.4555H21.5142H21.5728H21.6319H21.6907H21.7492H21.8079H21.8667H21.9257H21.9844H22.043H22.1017H22.1608H22.2194H22.2781H22.3368H22.39H22.4486H22.5073H22.566H22.625H22.6837H22.7424H22.801H22.8601H22.9188H22.9774H23.0361H23.0951H23.1539H23.2125V22.6249V22.6779V22.7368V22.7957V22.8546V22.9076V22.9665V23.0255V23.0785V23.1374V23.1963V23.2494V23.3082V23.3671V23.426V23.4791V23.538H23.1539H23.0951H23.0361H22.9774H22.9188H22.8601H22.8069H22.7483H22.6896H22.6309H22.5719H22.5132H22.4545H22.3958H22.3368H22.2781H22.2194H22.1608H22.1017H22.049H21.9902H21.9315H21.8725H21.8139H21.7551H21.6965H21.6374H21.5788H21.5201H21.4614H21.4024H21.3436H21.2909H21.2322H21.1732H21.1145H21.0558H20.9971H20.9381V23.5969V23.6558V23.7146V23.7736V23.8325V23.8855V23.9444V24.0034V24.0622V24.1212V24.18V24.239H20.9971H21.0558H21.1145H21.1732H21.2322H21.2909H21.3496H21.4083H21.4614H21.5201H21.5788H21.6374H21.6965H21.7551H21.8139H21.8725H21.9315H21.9902H22.049H22.1076H22.1666H22.2253H22.284H22.3428H22.4018H22.4604H22.5132H22.5719H22.6309H22.6896H22.7483H22.8069H22.866H22.9247H22.9833V24.2979V24.3509V24.4095V24.4684V24.5214V24.5803V24.6392V24.6922V24.7512V24.81V24.869V24.9219V24.9808V25.0398V25.0928V25.1517H22.9247H22.866H22.8069H22.7483H22.6896H22.6309H22.5719H22.5132H22.4604H22.4018H22.3428H22.284H22.2253H22.1666H22.1076H22.049H21.9902H21.9315H21.8725H21.8139H21.7551H21.6965H21.6374H21.5788H21.5201H21.4614H21.4083H21.3496H21.2909H21.2322H21.1732H21.1145H21.0558H20.9971H20.9381V25.2106V25.2754V25.3343V25.3933V25.4581V25.517V25.5758V25.6407V25.6995V25.7585V25.8232V25.8821H20.9971H21.0558H21.1145H21.1732H21.2322H21.2909H21.3496H21.4083H21.4673H21.5319H21.5906H21.6492H21.7083H21.767H21.8257H21.8843H21.9433H22.0021H22.0607H22.1194H22.1781H22.2371H22.2958H22.3546H22.4131H22.4723H22.5309H22.5896H22.6483H22.7132H22.7719H22.8305H22.8893H22.9483H23.007H23.0657H23.1243H23.1833H23.2421V25.9411V25.9941V26.053V26.1119V26.1709V26.2239V26.2827V26.3416V26.3947V26.4536V26.5125V26.5655V26.6241V26.683V26.7418V26.7949V26.8539H23.1833ZM18.8894 26.8539H18.8307H18.772H18.7071H18.6485H18.5897H18.531H18.472H18.4133H18.3487H18.2901H18.2313H18.1723H18.1137H18.055H17.9904H17.9313H17.8727H17.814V26.7949V26.736V26.6771V26.6182V26.5589V26.5001V26.4411V26.3822V26.3233V26.2644V26.2055V26.1463V26.0873V26.0284V25.9695V25.9106V25.8513V25.7924V25.7335V25.6746V25.6157V25.5568V25.4975V25.4386V25.3797V25.3208V25.2619V25.203V25.1437V25.0848V25.0259V24.967V24.9081V24.8492V24.7899V24.7311V24.6721V24.6132V24.5543V24.495V24.4362V24.3772V24.3183L17.7845 24.3654L17.7494 24.4188L17.7199 24.4659L17.6848 24.5131L17.6553 24.5661L17.6198 24.6132L17.5907 24.6604L17.5612 24.7137L17.5262 24.7608L17.4966 24.808L17.4612 24.8551L17.4321 24.9085L17.3966 24.9556L17.3675 25.0027L17.3379 25.0557L17.3025 25.1031L17.2733 25.1504L17.2379 25.2033L17.2088 25.2505L17.1734 25.2976L17.1442 25.3509L17.1147 25.3981L17.0793 25.4453L17.0501 25.4983L17.0147 25.5457L16.9855 25.5928L16.9501 25.64L16.9205 25.6929L16.8913 25.7404L16.856 25.7876L16.8268 25.8406L16.7914 25.8877L16.7619 25.9348L16.7268 25.9882L16.6973 26.0353H16.674L16.6387 25.9823L16.6091 25.9348L16.574 25.8818L16.5445 25.8347L16.5094 25.7817L16.4799 25.7342L16.4449 25.6812L16.4153 25.634L16.3799 25.5811L16.3507 25.534L16.3153 25.4805L16.2862 25.4334L16.2508 25.3804L16.2212 25.3333L16.1862 25.2799L16.1566 25.2328L16.1216 25.1798L16.0862 25.1327L16.0567 25.0793L16.0216 25.0322L15.9921 24.9792L15.957 24.932L15.9275 24.8786L15.8924 24.8315L15.8629 24.7785L15.8274 24.7314L15.7983 24.6783L15.7628 24.6308L15.7337 24.5779L15.6983 24.5307L15.6688 24.4777L15.6338 24.4307L15.6041 24.3772L15.5691 24.3301V24.389V24.4479V24.5069V24.5661V24.625V24.6839V24.7428V24.8017V24.861V24.9199V24.9729V25.0318V25.0907V25.1496V25.2089V25.2678V25.3267V25.3856V25.4445V25.5035V25.5626V25.6216V25.6805V25.7394V25.7983V25.8572V25.9165V25.9754V26.0343V26.0932V26.1521V26.2113V26.2644V26.3233V26.3822V26.4411V26.5001V26.5589V26.6182V26.6771V26.736V26.7949V26.8539H15.5104H15.4514H15.3927H15.334H15.2753H15.2164H15.1576H15.0989H15.0402H14.9812H14.9226H14.8638H14.8052H14.7462H14.6875H14.6288H14.5701H14.511H14.4524V26.7949V26.736V26.6771V26.6185V26.5596V26.5007V26.4418V26.383V26.324V26.2651V26.2062V26.1473V26.0883V26.0294V25.9705V25.9116V25.8528V25.7938V25.7408V25.6818V25.623V25.5641V25.5052V25.4462V25.3873V25.3284V25.2695V25.2106V25.1517V25.0928V25.0339V24.975V24.9161V24.8571V24.7982V24.7394V24.6804V24.6215V24.5626V24.5037V24.4449V24.3862V24.3274V24.2684V24.2095V24.1506V24.0917V24.0328V23.9739V23.915V23.8561V23.7972V23.7382V23.6793V23.6263V23.5675V23.5085V23.4496V23.3907V23.3318V23.2729V23.2139V23.1551V23.0961V23.0373V22.9783V22.9194V22.8605V22.8016V22.7427V22.6838V22.6249V22.5659H14.511H14.5701H14.6229H14.6815H14.7402H14.7992H14.852H14.9107H14.9698H15.0284H15.0813H15.1399H15.199H15.2577H15.3104H15.3691H15.4281H15.4868H15.5396H15.5983H15.6573L15.6865 22.6131L15.716 22.6661L15.751 22.7128L15.7806 22.7659L15.8101 22.813L15.8392 22.8661L15.8687 22.9128L15.9039 22.9659L15.9333 23.013L15.9629 23.0601L15.9921 23.1128L16.0216 23.1599L16.0567 23.2129L16.0862 23.2601L16.1156 23.3127L16.1448 23.3598L16.1802 23.4069L16.2098 23.4597L16.2389 23.5068L16.2684 23.5598L16.2977 23.6069L16.3331 23.6596L16.3626 23.7067L16.3917 23.7597L16.4212 23.8065L16.4504 23.8536L16.4858 23.9066L16.5153 23.9538L16.5445 24.0069L16.574 24.0536L16.6031 24.1066L16.6387 24.1538L16.6681 24.2064L16.6973 24.2535L16.7268 24.2064L16.7563 24.1538L16.7914 24.1066L16.8208 24.0536L16.8501 24.0069L16.8796 23.9538L16.9147 23.9066L16.9442 23.8536L16.9737 23.8065L17.0028 23.7597L17.0383 23.7067L17.0674 23.6596L17.097 23.6069L17.1264 23.5598L17.1615 23.5068L17.191 23.4597L17.2206 23.4069L17.2497 23.3598L17.2793 23.3127L17.3144 23.2601L17.3438 23.2129L17.3733 23.1599L17.4026 23.1128L17.4379 23.0601L17.4671 23.013L17.4966 22.9659L17.5262 22.9128L17.5612 22.8661L17.5907 22.813L17.6198 22.7659L17.6494 22.7128L17.6848 22.6661L17.714 22.6131L17.7435 22.5659H17.8022H17.8609H17.914H17.9727H18.0314H18.0901H18.1432H18.2019H18.2605H18.3192H18.3724H18.431H18.4897H18.5484H18.6015H18.6602H18.7189H18.7776H18.8307H18.8894H18.948V22.6249V22.6838V22.7427V22.8016V22.8605V22.9194V22.9783V23.0373V23.0961V23.1551V23.2139V23.2729V23.3318V23.3907V23.4496V23.5085V23.5675V23.6263V23.6793V23.7382V23.7972V23.8561V23.915V23.9739V24.0328V24.0917V24.1506V24.2095V24.2684V24.3274V24.3862V24.4449V24.5037V24.5626V24.6215V24.6804V24.7394V24.7982V24.8571V24.9161V24.975V25.0339V25.0928V25.1517V25.2106V25.2695V25.3284V25.3873V25.4462V25.5052V25.5641V25.623V25.6818V25.7408V25.7938V25.8528V25.9116V25.9705V26.0294V26.0883V26.1473V26.2062V26.2651V26.324V26.383V26.4418V26.5007V26.5596V26.6185V26.6771V26.736V26.7949V26.8539H18.8894ZM12.0707 25.0869L12.053 25.0336L12.0297 24.9746L12.0061 24.9216L11.9884 24.8683L11.9651 24.8152L11.9416 24.7563L11.9238 24.7029L11.9001 24.6499L11.877 24.5969L11.8592 24.5436L11.8355 24.4847L11.8183 24.4316L11.7946 24.3783L11.7709 24.3253L11.7533 24.2722L11.73 24.213L11.7065 24.1599L11.6887 24.107L11.6651 24.0536L11.6419 23.9947L11.6241 23.9413L11.6005 23.8883L11.5773 23.9413L11.5596 23.9947L11.536 24.0536L11.5123 24.107L11.4949 24.1599L11.4714 24.213L11.4477 24.2722L11.4245 24.3253L11.4067 24.3783L11.3831 24.4316L11.3595 24.4847L11.3421 24.5436L11.3186 24.5969L11.2949 24.6499L11.2773 24.7029L11.254 24.7563L11.2303 24.8152L11.2068 24.8683L11.1894 24.9216L11.1658 24.9746L11.1422 25.0336L11.1244 25.0869L11.1012 25.14H11.1599H11.2186H11.2773H11.3363H11.3949H11.4536H11.5123H11.5714H11.6241H11.6828H11.7419H11.8005H11.8592H11.9179H11.9766H12.0356H12.0943L12.0707 25.0869ZM13.9163 26.8539H13.8573H13.8044H13.7458H13.6867H13.6281H13.5694H13.5166H13.4576H13.3989H13.3402H13.2815H13.2225H13.1697H13.111H13.0523H12.9933H12.9346H12.8818H12.8231H12.7641L12.7408 26.8008L12.7231 26.7477L12.6995 26.6947L12.6759 26.6359L12.6586 26.5831L12.6349 26.5302L12.6113 26.4772L12.594 26.4242L12.5704 26.3711L12.5467 26.3181L12.5291 26.2651L12.5058 26.2062L12.4822 26.1532L12.4644 26.1001L12.4408 26.0471H12.3821H12.3234H12.2648H12.2061H12.153H12.0943H12.0356H11.9766H11.9179H11.8592H11.8005H11.7419H11.6828H11.6241H11.5714H11.5123H11.4536H11.3949H11.3363H11.2773H11.2186H11.1599H11.1012H11.0426H10.9893H10.9307H10.872H10.8129H10.7543L10.731 26.1001L10.7133 26.1532L10.6897 26.2062L10.6661 26.2651L10.6487 26.3181L10.6252 26.3711L10.6015 26.4242L10.5838 26.4772L10.5606 26.5302L10.5369 26.5831L10.5192 26.6359L10.4959 26.6947L10.4723 26.7477L10.4546 26.8008L10.431 26.8539H10.3723H10.3137H10.255H10.1959H10.1373H10.0727H10.014H9.95524H9.89628H9.83761H9.77895H9.72018H9.66112H9.60255H9.54389H9.47929H9.42023H9.36156H9.3028H9.24413L9.26739 26.8008L9.29105 26.7477L9.3146 26.6947L9.33791 26.6359L9.35564 26.5831L9.37924 26.5302L9.40285 26.4772L9.42606 26.4242L9.44971 26.3711L9.47337 26.3122L9.49658 26.2592L9.52023 26.2062L9.53786 26.1532L9.56152 26.1001L9.58477 26.0471L9.60838 25.9882L9.63198 25.9352L9.65529 25.8821L9.6789 25.8291L9.7025 25.7761L9.72018 25.7231L9.74344 25.6642L9.7671 25.6112L9.7907 25.5582L9.81396 25.5052L9.83761 25.4522L9.86122 25.3991L9.88448 25.3402L9.90221 25.2872L9.92581 25.2342L9.94942 25.1812L9.97273 25.1281L9.99628 25.0751L10.0198 25.0162L10.0431 24.9632L10.0668 24.9102L10.0844 24.8571L10.1081 24.8042L10.1313 24.7512L10.1549 24.6922L10.1786 24.6392L10.2019 24.5862L10.2254 24.5332L10.2491 24.4802L10.2667 24.4271L10.2901 24.3745L10.3137 24.3155L10.3372 24.2626L10.3605 24.2095L10.3841 24.1565L10.4077 24.1035L10.431 24.0505L10.4487 23.9915L10.4723 23.9385L10.4959 23.8855L10.5192 23.8325L10.5428 23.7795L10.5664 23.7264L10.5897 23.6675L10.6133 23.6146L10.631 23.5616L10.6546 23.5085L10.6779 23.4555L10.7015 23.4025L10.7251 23.3436L10.7483 23.2906L10.772 23.2375L10.7956 23.1845L10.8129 23.1315L10.8366 23.0785L10.8602 23.0196L10.8838 22.9665L10.9071 22.9135L10.9307 22.8605L10.9543 22.8075L10.9776 22.7545L10.9953 22.6956L11.0189 22.6426L11.0426 22.5895L11.0658 22.5365H11.1244H11.1776H11.2362H11.2949H11.354H11.4067H11.4654H11.5241H11.5832H11.636H11.6946H11.7533H11.8123H11.8651H11.9238H11.9825H12.0415H12.0943H12.153L12.1766 22.5895L12.2002 22.6426L12.2235 22.6956L12.2471 22.7545L12.2648 22.8075L12.288 22.8605L12.3117 22.9135L12.3352 22.9665L12.3589 23.0196L12.3821 23.0785L12.4058 23.1315L12.4294 23.1845L12.4467 23.2375L12.4704 23.2906L12.494 23.3436L12.5176 23.4025L12.5409 23.4555L12.5644 23.5085L12.5881 23.5616L12.6113 23.6146L12.629 23.6675L12.6526 23.7264L12.6759 23.7795L12.6995 23.8325L12.7231 23.8855L12.7467 23.9385L12.77 23.9915L12.7936 24.0505L12.8113 24.1035L12.8346 24.1565L12.8582 24.2095L12.8818 24.2626L12.9055 24.3155L12.9287 24.3745L12.9523 24.4271L12.9759 24.4802L12.9933 24.5332L13.0169 24.5862L13.0405 24.6392L13.0638 24.6922L13.0874 24.7512L13.111 24.8042L13.1347 24.8571L13.1579 24.9102L13.1756 24.9632L13.1992 25.0162L13.2225 25.0751L13.2461 25.1281L13.2697 25.1812L13.2933 25.2342L13.3166 25.2872L13.3402 25.3402L13.3579 25.3991L13.3812 25.4522L13.4047 25.5052L13.4284 25.5582L13.4516 25.6112L13.4752 25.6642L13.4989 25.7231L13.5226 25.7761L13.5398 25.8291L13.5635 25.8821L13.5871 25.9352L13.6104 25.9882L13.634 26.0471L13.6576 26.1001L13.6812 26.1532L13.7044 26.2062L13.7222 26.2592L13.7458 26.3122L13.7691 26.3711L13.7926 26.4242L13.8162 26.4772L13.8395 26.5302L13.8631 26.5831L13.8867 26.6359L13.9045 26.6947L13.9277 26.7477L13.9513 26.8008L13.9749 26.8539H13.9163ZM8.76779 26.3063L8.72058 26.3416L8.67954 26.3711L8.63233 26.4065L8.58547 26.4359L8.53855 26.4713L8.49134 26.5007L8.44448 26.5302L8.39134 26.5596L8.33855 26.5891L8.28571 26.6185L8.23268 26.6417L8.17984 26.6712L8.12117 26.6947L8.06843 26.7183L8.00937 26.7418L7.95663 26.7654L7.90379 26.7831L7.8507 26.8008L7.79791 26.8185L7.73924 26.8361L7.6865 26.8539L7.62744 26.8656L7.5746 26.8774L7.51594 26.8892L7.45697 26.9009L7.39821 26.9068L7.33361 26.9127L7.27495 26.9186L7.21035 26.9245L7.15129 26.9304L7.0868 26.9363H7.02221H6.95752H6.89302H6.83396L6.77529 26.9304L6.7107 26.9245L6.65203 26.9186L6.59337 26.9127L6.53431 26.9068L6.47564 26.8951L6.41687 26.8833L6.36413 26.8715L6.30517 26.8597L6.25233 26.8421L6.19366 26.8303L6.14053 26.8125L6.08774 26.789L6.03495 26.7713L5.97633 26.7477L5.92319 26.7242L5.8704 26.7007L5.81766 26.6771L5.76443 26.6477L5.71761 26.6185L5.66482 26.5891L5.61761 26.5596L5.57075 26.5302L5.52354 26.4948L5.47663 26.4595L5.42971 26.4242L5.38843 26.3888L5.34744 26.3534L5.30611 26.3122L5.26517 26.2769L5.22379 26.2356L5.18285 26.1944L5.14744 26.1532L5.11233 26.1061L5.07692 26.0648L5.04739 26.0177L5.01233 25.9705L4.9829 25.9235L4.95366 25.8763L4.92415 25.8232L4.89465 25.7761L4.87141 25.7231L4.84777 25.6701L4.8242 25.617L4.80089 25.5641L4.78317 25.517L4.75954 25.4639L4.74775 25.4109L4.73037 25.3579L4.71858 25.299L4.70087 25.246L4.68909 25.1871L4.68316 25.134L4.67131 25.0751L4.66551 25.0221L4.65952 24.9632L4.65399 24.9042L4.64813 24.8454V24.7806V24.7217V24.7099V24.6509L4.65399 24.5862V24.5273L4.65952 24.4684L4.66551 24.4036L4.6773 24.345L4.68316 24.2861L4.69495 24.233L4.71266 24.1742L4.72451 24.1153L4.74183 24.0622L4.75954 24.0034L4.77725 23.9503L4.80089 23.8914L4.8242 23.8384L4.84777 23.7854L4.87141 23.7324L4.89465 23.6793L4.92415 23.6263L4.95366 23.5792L4.9829 23.532L5.01233 23.4849L5.04186 23.4378L5.07692 23.3907L5.11233 23.3436L5.14744 23.2965L5.18285 23.2551L5.22379 23.2139L5.25924 23.1727L5.30023 23.1315L5.34152 23.0902L5.3825 23.0549L5.42971 23.0137L5.4707 22.9783L5.51761 22.943L5.56482 22.9135L5.61169 22.8782L5.65895 22.8488L5.70576 22.8193L5.7586 22.7898L5.81174 22.7603L5.86448 22.7309L5.91727 22.7073L5.97035 22.6838L6.02907 22.6543L6.07594 22.6367L6.1346 22.619L6.18784 22.5955L6.24058 22.5836L6.29332 22.5659L6.35228 22.5542L6.40512 22.5365L6.46379 22.5247L6.5225 22.5188L6.58151 22.507L6.64023 22.5011L6.69885 22.4953L6.75756 22.4894L6.81663 22.4835H6.88122H6.93989H7.00443H7.06902L7.13401 22.4894L7.1986 22.4953H7.25727L7.31594 22.5011L7.38053 22.513L7.43366 22.5188L7.49233 22.5307L7.55105 22.5424L7.60413 22.5542L7.65687 22.5659L7.70971 22.5778L7.76285 22.5955L7.81559 22.6072L7.8625 22.6249L7.91564 22.6426L7.96843 22.6661L8.02117 22.6897L8.07431 22.7132L8.1271 22.7427L8.17984 22.7663L8.22714 22.7957L8.27989 22.8252L8.32675 22.8546L8.37989 22.8841L8.42675 22.9194L8.47366 22.9489L8.52087 22.9842L8.56774 23.0196L8.61495 23.0608L8.66181 23.0961L8.6264 23.1433L8.58547 23.1845L8.55001 23.2316L8.50907 23.2787L8.47366 23.3259L8.43855 23.3671L8.39722 23.4142L8.36216 23.4613L8.32675 23.5027L8.28571 23.5498L8.25035 23.5969L8.20937 23.644L8.17391 23.6852L8.1389 23.7324L8.09761 23.7795L8.06245 23.8266L8.02117 23.8679L7.98606 23.915L7.93885 23.8796L7.89198 23.8384L7.84477 23.8089L7.79791 23.7736L7.751 23.7441L7.70379 23.7146L7.65687 23.6852L7.60413 23.6558L7.55692 23.6322L7.51001 23.6087L7.4628 23.591L7.41001 23.5733L7.35727 23.5556L7.30413 23.5439L7.24547 23.532L7.1868 23.5203L7.12808 23.5144L7.06349 23.5085L6.99855 23.5027H6.93396H6.87529L6.81663 23.5085L6.76349 23.5144L6.70482 23.5262L6.65203 23.538L6.5989 23.5556L6.54616 23.5733L6.49332 23.5969L6.44053 23.6204L6.39332 23.6499L6.3465 23.6793L6.29924 23.7089L6.25826 23.7441L6.21692 23.7795L6.17598 23.8149L6.14053 23.8561L6.09959 23.8973L6.06418 23.9444L6.03495 23.9857L6.00542 24.0328L5.97633 24.0858L5.94675 24.1329L5.92319 24.1859L5.90547 24.239L5.88216 24.292L5.86448 24.3509L5.85268 24.4095L5.84087 24.4624L5.82902 24.5273L5.82319 24.5862L5.81766 24.645V24.7099V24.7217V24.7806L5.82319 24.8395L5.82902 24.8925L5.83495 24.9515L5.84675 25.0044L5.8586 25.0575L5.8704 25.1104L5.88808 25.1635L5.90547 25.2106L5.92912 25.2695L5.95268 25.3225L5.98186 25.3756L6.01134 25.4227L6.04087 25.4698L6.07594 25.517L6.11139 25.5582L6.15233 25.5995L6.18784 25.6407L6.22873 25.676L6.27598 25.7114L6.32285 25.7467L6.36966 25.7761L6.41687 25.8056L6.46976 25.8291L6.5225 25.8528L6.57559 25.8763L6.63431 25.894L6.69297 25.9116L6.75203 25.9235L6.8107 25.9352L6.86937 25.9411L6.93396 25.947H6.99855H7.06902L7.13401 25.9411L7.1986 25.9352L7.25727 25.9293L7.31594 25.9175L7.375 25.9057L7.43366 25.8881L7.4864 25.8763L7.53924 25.8528L7.58645 25.8291L7.63919 25.8056L7.68048 25.782L7.72744 25.7526V25.6937V25.6348V25.5758V25.517V25.4522V25.3933V25.3343V25.2754V25.2165H7.66873H7.61564H7.55692H7.49826H7.43959H7.38645H7.32769H7.26902H7.21035H7.15732H7.09855H7.03989H6.98117H6.92808H6.86937V25.1577V25.1046V25.0457V24.9868V24.9279V24.8748V24.8159V24.757V24.6982V24.645V24.5862V24.5273V24.4684V24.4153V24.3568H6.92808H6.9871H7.04581H7.10443H7.16314H7.22181H7.28087H7.33954H7.39821H7.45697H7.51594H7.5746H7.63327H7.69194H7.751H7.80976H7.86843H7.9271H7.98606H8.04482H8.10349H8.16216H8.22112H8.27989H8.33855H8.39722H8.45628H8.51495H8.57366H8.63233H8.69134H8.75001H8.80873V24.4153V24.4742V24.5332V24.5862V24.645V24.704V24.7629V24.8218V24.8807V24.9337V24.9927V25.0516V25.1104V25.1694V25.2283V25.2872V25.3402V25.3991V25.4581V25.517V25.5758V25.6348V25.6937V25.7467V25.8056V25.8645V25.9235V25.9823V26.0412V26.0943V26.1532V26.2121V26.271L8.76779 26.3063Z" fill="#343434"/>
<path d="M6.87766 12.8641H9.42472V10.898H6.87766V6.88418H9.52611V4.91809H4.71478V19.1077H9.5664V17.1416H6.87766V12.8641Z" fill="#343434"/>
<path d="M25.1215 13.29V16.4928C25.1215 17.0605 24.8586 17.3239 24.313 17.3239H23.9085C23.3426 17.3239 23.0796 17.0605 23.0796 16.4928V7.53284C23.0796 6.96527 23.3426 6.70192 23.9085 6.70192H24.2724C24.8183 6.70192 25.0812 6.96527 25.0812 7.53284V10.3102H27.2035V7.41121C27.2035 5.6478 26.3545 4.79639 24.5961 4.79639H23.5446C21.7862 4.79639 20.9167 5.66791 20.9167 7.43166V16.594C20.9167 18.3578 21.7862 19.2293 23.5446 19.2293H24.6162C26.375 19.2293 27.2441 18.3578 27.2441 16.594V13.29H25.1215Z" fill="#343434"/>
<path d="M17.6102 19.1077H19.7734V4.918H17.6102V19.1077Z" fill="#343434"/>
<path d="M14.4714 11.2223C14.4714 11.7899 14.2089 12.0536 13.6631 12.0536H12.7734V6.82351H13.6631C14.2089 6.82351 14.4714 7.08692 14.4714 7.65444V11.2223ZM14.0065 4.918H10.6105V19.1077H12.7734V13.9587H14.0065C15.7652 13.9587 16.6344 13.0872 16.6344 11.3238V7.55326C16.6344 5.78956 15.7652 4.918 14.0065 4.918Z" fill="#343434"/>
<path fill-rule="evenodd" clip-rule="evenodd" d="M9.81744 31.938H22.1996L15.8795 34.0179L9.81744 31.938Z" fill="#343434"/>
<path d="M9.60907 39.3506L13.355 39.3509V40.4514H12.0866V44.2613H10.8729V40.4513H9.60907V39.3506Z" fill="white"/>
<path d="M7.98026 41.0014H9.08446C9.08446 40.5648 9.13434 40.0869 8.28555 39.5795C7.62555 39.185 6.65567 39.3798 6.28298 39.5886C5.64421 39.9464 5.47967 40.4315 5.49364 40.9532C5.5169 41.8206 6.15498 42.0146 6.75196 42.2365C7.13937 42.3805 7.57779 42.4669 7.86164 42.7274C7.97044 42.8272 8.01577 43.0237 7.77952 43.1146C7.44342 43.2438 7.08308 43.2586 6.70866 43.0187C6.58051 42.9366 6.53848 42.8073 6.53848 42.6682L5.36945 42.6532C5.36945 43.0573 5.44273 43.3897 5.69898 43.6793C6.06806 44.0964 6.57379 44.2197 7.12248 44.2577C7.81014 44.3053 8.21335 44.1852 8.54604 43.9708C8.88451 43.7525 9.09844 43.4203 9.16199 42.9688C9.20056 42.6949 9.23073 42.4263 8.91562 42.0352C8.6329 41.7627 8.14989 41.4932 7.53769 41.3065C7.24451 41.1959 6.81147 41.0766 6.73399 40.8881C6.65463 40.7259 6.77685 40.5638 6.88011 40.5041C7.04742 40.4104 7.28935 40.4094 7.50076 40.4892C7.74648 40.5818 7.98026 40.7606 7.98026 41.0014Z" fill="white"/>
<path d="M13.8506 40.9333L13.8399 42.55C13.8399 44.7948 17.7364 44.8568 17.7364 42.55V40.9333C17.7364 38.737 13.8506 38.9028 13.8506 40.9333ZM15.7911 40.3645C16.1702 40.3709 16.5491 40.6165 16.5491 41.0821V42.4991C16.5491 43.4176 15.0328 43.4025 15.0328 42.4991V41.0821C15.0328 40.5909 15.412 40.3581 15.7911 40.3645Z" fill="white"/>
<path d="M18.6887 39.3402V44.2462H19.884V42.4964H20.3495L21.3026 44.2397H22.5212V43.8033L21.6413 42.3312C22.8828 41.6157 22.5803 39.3457 21.0072 39.3457L18.6887 39.3402ZM19.8867 40.389L20.5644 40.402C21.3363 40.402 21.2937 41.4321 20.5644 41.437H19.8867V40.389Z" fill="white"/>
<path d="M23.3333 39.3288L26.4632 39.3256V40.3635H24.5195V41.2758H26.1804V42.305H24.5013V43.2159H26.5271V44.2331H23.3333V39.3288Z" fill="white"/>
</g>
<defs>
<clipPath id="clip0_403_17852">
<rect width="32" height="48.64" fill="white"/>
</clipPath>
</defs>
</svg>
