<svg width="24" height="24" viewBox="0 0 24 24" fill="none" xmlns="http://www.w3.org/2000/svg">
<path fill-rule="evenodd" clip-rule="evenodd" d="M3.37821 0H20.3041C21.676 0 22.1824 0.506305 22.1824 1.87885V18.4408C22.1824 18.5961 22.1761 18.7404 22.1623 18.8741C22.1597 18.8991 22.1573 18.9239 22.1549 18.9488C22.1282 19.2223 22.102 19.4915 21.8466 19.7945C21.8194 19.8269 21.535 20.0386 21.535 20.0386C21.5073 20.0522 21.4813 20.065 21.4561 20.0775C21.342 20.134 21.2463 20.1814 21.1049 20.2383L12.7703 23.7302C12.3376 23.9286 12.1566 24.0059 11.8424 23.9996V23.9997H11.8412H11.8399V23.9996C11.5257 24.0059 11.3447 23.9286 10.9121 23.7302L2.57751 20.2383C2.43591 20.1813 2.34016 20.1339 2.22582 20.0772C2.20081 20.0649 2.1749 20.0521 2.14744 20.0386C2.14744 20.0386 1.86296 19.8269 1.83573 19.7945C1.58033 19.4915 1.5541 19.2223 1.52744 18.9488C1.52502 18.9239 1.52259 18.8991 1.51998 18.8741C1.50626 18.7404 1.5 18.5961 1.5 18.4408V1.87885C1.5 0.506305 2.0063 0 3.37821 0ZM17.7574 8.6185V10.6956C17.7574 11.0637 17.5873 11.2345 17.2342 11.2345H16.9724C16.6062 11.2345 16.4361 11.0637 16.4361 10.6956V4.88502C16.4361 4.51694 16.6062 4.34615 16.9724 4.34615H17.208C17.5612 4.34615 17.7313 4.51694 17.7313 4.88502V6.68615H19.1048V4.80614C19.1048 3.66259 18.5554 3.11043 17.4174 3.11043H16.737C15.599 3.11043 15.0363 3.67562 15.0363 4.81939V10.7612C15.0363 11.905 15.599 12.4702 16.737 12.4702H17.4304C18.5687 12.4702 19.1311 11.905 19.1311 10.7612V8.6185H17.7574ZM5.95104 8.34242H7.59934V7.06742H5.95104V4.46445H7.66499V3.18944H4.55129V12.3914H7.69104V11.1163H5.95104V8.34242ZM14.2965 12.3914H12.8965V3.18943H14.2965V12.3914ZM10.8653 7.27763C10.8653 7.64573 10.6955 7.81673 10.3422 7.81673H9.7665V4.42505H10.3422C10.6955 4.42505 10.8653 4.59588 10.8653 4.96391V7.27763ZM10.5645 3.18934H8.36675V12.3913H9.76651V9.05219H10.5645C11.7027 9.05219 12.2652 8.48704 12.2652 7.34349V4.8983C12.2652 3.75453 11.7027 3.18934 10.5645 3.18934ZM19.1666 16.6891L19.1705 16.6509L19.1743 16.6089V16.5668V16.5592V16.5172L19.1705 16.4752L19.1666 16.437L19.159 16.3988L19.1514 16.3605L19.1437 16.3262L19.1325 16.2918L19.121 16.2574L19.1058 16.2269L19.0866 16.1924L19.0678 16.1619L19.0448 16.1275L19.0221 16.097L18.9954 16.0702L18.9689 16.0396L18.9384 16.0129L18.908 15.9862L18.8776 15.9671L18.8471 15.9441L18.8168 15.9251L18.7826 15.906L18.7482 15.8868L18.7102 15.8677L18.6723 15.8525L18.6343 15.8334L18.5923 15.8183L18.5581 15.8069L18.524 15.7954L18.4857 15.7839L18.4516 15.7725L18.4136 15.761L18.3756 15.7495L18.3374 15.7419L18.2956 15.7305L18.2576 15.719L18.2159 15.7114L18.1741 15.6999L18.1323 15.6884L18.0902 15.677L18.0523 15.6693L18.0181 15.6578L17.9837 15.6502L17.9534 15.6388L17.9231 15.6311L17.8774 15.6159L17.8354 15.6006L17.7974 15.5853L17.7671 15.5662L17.7327 15.5471L17.7062 15.5203L17.6909 15.4974L17.6721 15.4554L17.6682 15.4058V15.3981L17.6721 15.3599L17.6871 15.3255L17.71 15.2911L17.7442 15.2605L17.7709 15.2453L17.8013 15.23L17.8354 15.2224L17.8736 15.2147L17.9154 15.2071H17.961H17.999L18.0332 15.2109L18.0714 15.2147L18.1094 15.2185L18.1473 15.2262L18.1853 15.2338L18.2235 15.2415L18.2615 15.2529L18.2994 15.2644L18.3413 15.2758L18.3718 15.2911L18.406 15.3026L18.4363 15.3178L18.4707 15.3331L18.501 15.3484L18.5352 15.3637L18.5658 15.3828L18.5999 15.3981L18.6305 15.421L18.6608 15.4401L18.695 15.4592L18.7255 15.4821L18.7482 15.4516L18.7673 15.421L18.79 15.3905L18.813 15.3599L18.8356 15.3255L18.8548 15.295L18.8776 15.2644L18.9004 15.2338L18.9194 15.2033L18.9422 15.1727L18.9651 15.1421L18.9842 15.1116L19.0069 15.0772L19.0298 15.0466L19.0525 15.0161L19.0716 14.9855L19.0943 14.9549L19.064 14.932L19.0336 14.9091L19.0031 14.8862L18.9727 14.8671L18.9384 14.8442L18.908 14.8251L18.8738 14.806L18.8395 14.7869L18.8091 14.7716L18.7749 14.7525L18.7368 14.7372L18.7026 14.7219L18.6685 14.7066L18.6343 14.6952L18.5961 14.6799L18.5619 14.6722L18.5278 14.6608L18.4896 14.6493L18.4554 14.6417L18.4174 14.634L18.3795 14.6264L18.3451 14.6188L18.3071 14.6111L18.2653 14.6073L18.2273 14.5997L18.1853 14.5958H18.1473L18.1055 14.592L18.0637 14.5882H18.022H17.9801H17.9381H17.9001L17.8622 14.592L17.8242 14.5958L17.786 14.5997L17.748 14.6035L17.7138 14.6111L17.6759 14.6188L17.6415 14.6264L17.6073 14.634L17.577 14.6417L17.5426 14.6532L17.5046 14.6684L17.4667 14.6799L17.4323 14.6952L17.3981 14.7143L17.364 14.7296L17.3296 14.7486L17.2993 14.7677L17.2689 14.7907L17.2383 14.8136L17.2118 14.8327L17.1813 14.8594L17.1547 14.89L17.128 14.9168L17.1015 14.9473L17.0786 14.9779L17.0558 15.0084L17.0368 15.0428L17.0179 15.0772L17.0026 15.1116L16.9873 15.146L16.9723 15.1803L16.9647 15.2147L16.9532 15.2491L16.9455 15.2835L16.9379 15.3178L16.9341 15.3561L16.9303 15.3905L16.9264 15.4286V15.4669V15.4745V15.5165L16.9303 15.5585L16.9341 15.5967L16.9379 15.6349L16.9455 15.6693L16.9532 15.7075L16.9647 15.7381L16.9759 15.7725L16.9873 15.8031L17.0026 15.8296L17.0217 15.8639L17.0406 15.8945L17.0597 15.9212L17.0824 15.9479L17.1053 15.9747L17.1319 16.0015L17.1586 16.0282L17.1851 16.0511L17.2156 16.0702L17.246 16.0932L17.2801 16.1122L17.3107 16.1313L17.3487 16.1504L17.3828 16.1695L17.421 16.1848L17.459 16.2001L17.497 16.2154L17.5388 16.2307L17.5732 16.2421L17.6073 16.2536L17.6415 16.2651L17.6795 16.2727L17.7138 16.2841L17.7519 16.2956L17.7898 16.3033L17.828 16.3147L17.866 16.3224L17.9078 16.3338L17.9458 16.3415L17.9875 16.3529L18.0258 16.3605L18.0637 16.372L18.0979 16.3796L18.1323 16.3911L18.1626 16.3988L18.1891 16.4064L18.2347 16.4255L18.2729 16.4408L18.3071 16.4561L18.3374 16.4713L18.368 16.4943L18.3945 16.5172L18.4136 16.5439L18.4289 16.5821L18.4327 16.628V16.6356L18.4289 16.6738L18.4174 16.7082L18.4021 16.7388L18.3795 16.7655L18.3489 16.7884L18.3224 16.8037L18.2918 16.8152L18.2576 16.8228L18.2235 16.8305L18.1853 16.8381L18.1435 16.8419H18.0979H18.0599L18.0181 16.8381H17.9801L17.9419 16.8305L17.9001 16.8266L17.8622 16.819L17.8242 16.8114L17.786 16.8037L17.7519 16.7922L17.7138 16.7808L17.6759 16.7693L17.6415 16.7541L17.6073 16.7426L17.5732 16.7273L17.5388 16.712L17.5046 16.6967L17.4743 16.6776L17.4399 16.6624L17.4096 16.6432L17.3754 16.6203L17.3449 16.6013L17.3107 16.5783L17.2801 16.5554L17.246 16.5325L17.2156 16.5096L17.1927 16.5401L17.1662 16.5668L17.1433 16.5974L17.1168 16.628L17.0939 16.6547L17.0711 16.6853L17.0444 16.7158L17.0217 16.7426L16.995 16.7731L16.9723 16.7999L16.9455 16.8305L16.9229 16.861L16.8999 16.8877L16.8734 16.9183L16.8505 16.9489L16.824 16.9756L16.801 17.0062L16.8314 17.0329L16.8581 17.0558L16.8885 17.0788L16.919 17.1017L16.9494 17.1246L16.9797 17.1475L17.0102 17.1666L17.0406 17.1857L17.075 17.2048L17.1053 17.2239L17.1395 17.243L17.1738 17.2583L17.208 17.2772L17.2422 17.2925L17.2765 17.3077L17.3145 17.323L17.3487 17.3345L17.3867 17.3459L17.421 17.3612L17.459 17.3727L17.497 17.3841L17.5312 17.3918L17.5693 17.4032L17.6073 17.4109L17.6453 17.4185L17.6833 17.4262L17.7215 17.4338L17.7595 17.4376L17.7974 17.4453L17.8393 17.4491L17.8774 17.4529L17.9154 17.4568H17.9572L17.9952 17.4606H18.0332H18.0752H18.117H18.155L18.193 17.4568L18.2347 17.4529L18.2729 17.4491L18.3071 17.4453L18.3451 17.4415L18.3833 17.4338L18.4174 17.4262L18.4516 17.4185L18.4896 17.4109L18.524 17.3994L18.5619 17.3879L18.5999 17.3765L18.6379 17.3612L18.6761 17.3459L18.7102 17.3268L18.7444 17.3115L18.7788 17.2925L18.8091 17.2695L18.8395 17.2507L18.87 17.2278L18.8966 17.2048L18.9271 17.1781L18.9498 17.1552L18.9765 17.1284L18.9992 17.1017L19.0183 17.0711L19.0411 17.0406L19.0601 17.01L19.0792 16.9794L19.0943 16.9451L19.1096 16.9145L19.1248 16.8801L19.1363 16.8419L19.1437 16.8075L19.1552 16.7693L19.1628 16.7311L19.1666 16.6891ZM16.4651 17.4147H16.5033H16.5413V17.3765V17.342V17.3039V17.2657V17.2277V17.1933V17.1551V17.1169V17.0825V17.0443V17.0061V16.9718V16.9335V16.8953V16.8571V16.8227V16.7845H16.5033H16.4651H16.4271H16.3891H16.3512H16.313H16.275H16.237H16.199H16.157H16.119H16.0811H16.0431H16.0048H15.9669H15.9289H15.8909H15.8527H15.8147H15.7768H15.7388H15.7008H15.6626H15.6247H15.5867H15.5487H15.5105H15.4725H15.4345H15.3927H15.3545H15.3165H15.2786H15.2406H15.2024H15.1644H15.1265H15.0884H15.0503V16.7463V16.7043V16.6661V16.6279V16.5859V16.5477V16.5095V16.4675V16.4293V16.3911V16.349V16.3109H15.0884H15.1265H15.1644H15.2024H15.2406H15.2786H15.3165H15.3545H15.3889H15.4269H15.4649H15.5028H15.5411H15.579H15.617H15.655H15.6932H15.7311H15.7692H15.8071H15.8453H15.8833H15.9213H15.9593H15.9975H16.0354H16.0696H16.1076H16.1458H16.1838H16.2217H16.2597H16.2979H16.3359H16.3739V16.2727V16.2382V16.2V16.1618V16.1275V16.0893V16.0511V16.0129V15.9785V15.9403V15.9021V15.8677V15.8295V15.7915V15.7571V15.7189H16.3359H16.2979H16.2597H16.2217H16.1838H16.1458H16.1076H16.0696H16.0354H15.9975H15.9593H15.9213H15.8833H15.8453H15.8071H15.7692H15.7311H15.6932H15.655H15.617H15.579H15.5411H15.5028H15.4649H15.4269H15.3889H15.3545H15.3165H15.2786H15.2406H15.2024H15.1644H15.1265H15.0884H15.0503V15.6807V15.6425V15.6043V15.5661V15.5279V15.4897V15.4553V15.4171V15.3789V15.3407V15.3025V15.2644H15.0884H15.1265H15.1644H15.2024H15.2406H15.2786H15.3127H15.3507H15.3889H15.4269H15.4649H15.5028H15.5411H15.579H15.617H15.655H15.6932H15.7311H15.7692H15.8033H15.8415H15.8795H15.9174H15.9554H15.9936H16.0316H16.0696H16.1076H16.1458H16.1838H16.2217H16.2597H16.2941H16.332H16.37H16.408H16.4462H16.4842H16.5222V15.2261V15.1918V15.1535V15.1154V15.0772V15.0427V15.0046V14.9663V14.932V14.8938V14.8556V14.8212V14.783V14.7448V14.7066V14.6722V14.634H16.4842H16.4462H16.408H16.37H16.332H16.2941H16.2559H16.2179H16.1799H16.142H16.1038H16.0658H16.0278H15.9898H15.9554H15.9174H15.8795H15.8415H15.8033H15.7653H15.7274H15.6894H15.6512H15.6132H15.5752H15.5373H15.4993H15.461H15.4231H15.3851H15.3471H15.3089H15.2709H15.2329H15.195H15.1568H15.1188H15.0808H15.0428H15.0047H14.9667H14.9287H14.8907H14.8563H14.8183H14.7804H14.7424H14.7042H14.6662H14.6282H14.5903H14.5521H14.5141H14.4761H14.4382H14.4H14.362H14.324V14.6722V14.7104V14.7486V14.7868V14.825V14.8632V14.9014V14.9396V14.9778V15.016V15.0542V15.0924V15.1306V15.1688V15.207V15.2452V15.2835V15.3216V15.356V15.3942V15.4324V15.4706V15.5088V15.547V15.5852V15.6234V15.6616V15.6998V15.738V15.7763V15.8144V15.8524V15.8906V15.9288V15.967V16.0052V16.0434V16.0816V16.1198V16.158V16.1962V16.2345V16.2727V16.3109V16.349V16.3872V16.4254V16.4637V16.5018V16.5401V16.5783V16.6165V16.6546V16.6929V16.7272V16.7655V16.8037V16.8418V16.8801V16.9182V16.9565V16.9947V17.0329V17.0711V17.1093V17.1475V17.1857V17.2238V17.2621V17.3001V17.3383V17.3765V17.4147H14.362H14.4H14.4382H14.4761H14.5141H14.5521H14.5903H14.6282H14.6662H14.708H14.746H14.7842H14.8222H14.8602H14.8981H14.9363H14.9743H15.0123H15.0503H15.0884H15.1265H15.1644H15.2024H15.2406H15.2786H15.3165H15.3545H15.3927H15.4345H15.4725H15.5105H15.5487H15.5867H15.6247H15.6626H15.7008H15.7388H15.7768H15.8147H15.8527H15.8909H15.9289H15.9669H16.0048H16.0431H16.0811H16.119H16.157H16.199H16.237H16.275H16.313H16.3512H16.3891H16.4271H16.4651ZM13.6865 17.4147H13.7245H13.7624V17.3765V17.3383V17.3001V17.2621V17.2238V17.1857V17.1475V17.1093V17.0711V17.0329V16.9947V16.9565V16.9182V16.8801V16.8418V16.8037V16.7655V16.7272V16.6929V16.6546V16.6165V16.5783V16.5401V16.5018V16.4637V16.4254V16.3872V16.349V16.3109V16.2727V16.2345V16.1962V16.158V16.1198V16.0816V16.0434V16.0052V15.967V15.9288V15.8906V15.8524V15.8144V15.7763V15.738V15.6998V15.6616V15.6234V15.5852V15.547V15.5088V15.4706V15.4324V15.3942V15.356V15.3216V15.2835V15.2452V15.207V15.1688V15.1306V15.0924V15.0542V15.016V14.9778V14.9396V14.9014V14.8632V14.825V14.7868V14.7486V14.7104V14.6722V14.634H13.7245H13.6865H13.6521H13.6141H13.5762H13.5382H13.5038H13.4658H13.4279H13.3899H13.3555H13.3175H13.2796H13.2416H13.2072H13.1692H13.1312H13.0932H13.0589H13.0209H12.9829L12.9638 14.6646L12.9449 14.6989L12.922 14.7293L12.9029 14.7636L12.884 14.7942L12.8649 14.8286L12.8422 14.8589L12.8231 14.8933L12.8041 14.9239L12.7851 14.9545L12.7623 14.9886L12.7433 15.0192L12.7243 15.0535L12.7052 15.0841L12.6825 15.1183L12.6633 15.1488L12.6445 15.1794L12.6254 15.2136L12.6063 15.2441L12.5836 15.2785L12.5645 15.3091L12.5454 15.3432L12.5265 15.3738L12.5036 15.4081L12.4847 15.4385L12.4656 15.469L12.4465 15.5034L12.4238 15.534L12.4047 15.5684L12.3858 15.5987L12.3667 15.6331L12.344 15.6637L12.3249 15.6978L12.3059 15.7284L12.287 15.6978L12.2679 15.6637L12.2449 15.6331L12.226 15.5987L12.207 15.5684L12.1881 15.534L12.169 15.5034L12.1461 15.469L12.1272 15.4385L12.1081 15.4081L12.0892 15.3738L12.0701 15.3432L12.0472 15.3091L12.0283 15.2785L12.0092 15.2441L11.9904 15.2136L11.9712 15.1794L11.9483 15.1488L11.9294 15.1183L11.9103 15.0841L11.8912 15.0535L11.8685 15.0192L11.8494 14.9886L11.8306 14.9545L11.8114 14.9239L11.7924 14.8933L11.7696 14.8589L11.7505 14.8286L11.7317 14.7942L11.7126 14.7636L11.6934 14.7293L11.6708 14.6989L11.6517 14.6646L11.6328 14.634H11.5946H11.5566H11.5225H11.4845H11.4463H11.4083H11.3742H11.3362H11.298H11.26H11.2258H11.1879H11.1496H11.1117H11.0775H11.0393H11.0013H10.9634H10.9292H10.891H10.853V14.6722V14.7104V14.7486V14.7868V14.825V14.8632V14.9014V14.9396V14.9778V15.016V15.0542V15.0924V15.1306V15.1688V15.207V15.2452V15.2835V15.3216V15.356V15.3942V15.4324V15.4706V15.5088V15.547V15.5852V15.6234V15.6616V15.6998V15.738V15.7763V15.8144V15.8524V15.8906V15.9288V15.967V16.0052V16.0434V16.0816V16.1198V16.158V16.1962V16.2345V16.2727V16.3109V16.349V16.3872V16.4254V16.4637V16.5018V16.5401V16.5783V16.6165V16.6546V16.6929V16.7272V16.7655V16.8037V16.8418V16.8801V16.9182V16.9565V16.9947V17.0329V17.0711V17.1093V17.1475V17.1857V17.2238V17.2621V17.3001V17.3383V17.3765V17.4147H10.891H10.9292H10.9672H11.0052H11.0432H11.0813H11.1193H11.1573H11.1953H11.2335H11.2715H11.3094H11.3474H11.3856H11.4236H11.4616H11.4996H11.5377H11.5757V17.3765V17.3383V17.3001V17.2619V17.2234V17.1852V17.147V17.1088V17.0706V17.0324V16.998V16.9596V16.9214V16.8832V16.845V16.8068V16.7684V16.7302V16.692V16.6538V16.6156V16.5773V16.5389V16.5007V16.4625V16.4243V16.3861V16.3479V16.3095V16.2713V16.2331V16.1949V16.1605V16.1223V16.0839V16.0457V16.0075V15.9693V15.9311V15.8927V15.8544V15.8162V15.778L11.5984 15.8086L11.6176 15.8432L11.6402 15.8737L11.6593 15.9081L11.6822 15.9387L11.7011 15.9731L11.724 16.0039L11.7429 16.0383L11.7658 16.0688L11.7849 16.1032L11.8076 16.1338L11.8267 16.1684L11.8494 16.199L11.8685 16.2333L11.8912 16.2639L11.9103 16.2985L11.9333 16.329L11.9559 16.3634L11.9751 16.394L11.9977 16.4286L12.0169 16.4591L12.0398 16.4935L12.0586 16.5241L12.0816 16.5587L12.1004 16.5893L12.1234 16.6236L12.1425 16.6542L12.1652 16.6886L12.1842 16.7194L12.207 16.7538L12.226 16.7843L12.2488 16.8187L12.2679 16.8495L12.2908 16.8839H12.3059L12.3249 16.8533L12.3477 16.8187L12.3667 16.7881L12.3897 16.7576L12.4085 16.7232L12.4314 16.6926L12.4503 16.6618L12.4694 16.6275L12.4924 16.5969L12.5112 16.5664L12.5342 16.5356L12.553 16.5012L12.5759 16.4706L12.5951 16.44L12.6139 16.4055L12.6369 16.3749L12.6557 16.3443L12.6786 16.31L12.6975 16.2794L12.7204 16.2486L12.7396 16.2142L12.7584 16.1837L12.7814 16.1531L12.8002 16.1185L12.8231 16.0879L12.8422 16.0574L12.8649 16.0268L12.884 15.9922L12.9029 15.9617L12.9258 15.9311L12.9449 15.8967L12.9676 15.8661L12.9867 15.8356L13.0095 15.8009L13.0285 15.7704V15.8086V15.8468V15.885V15.9234V15.9617V15.9998V16.0381V16.0762V16.1147V16.1529V16.1911V16.2293V16.2674V16.3057V16.3441V16.3823V16.4205V16.4587V16.4969V16.5351V16.5736V16.6117V16.65V16.6881V16.7263V16.7645V16.803V16.8412V16.8794V16.9176V16.9558V16.9942V17.0324V17.0706V17.1088V17.147V17.1852V17.2234V17.2619V17.3001V17.3383V17.3765V17.4147H13.0665H13.1045H13.1427H13.1845H13.2225H13.2604H13.2986H13.3366H13.3746H13.4164H13.4544H13.4926H13.5305H13.5686H13.6065H13.6485H13.6865ZM9.3002 16.2342L9.31165 16.2688L9.32695 16.3032H9.28895H9.2508H9.2128H9.1748H9.13685H9.09885H9.06065H9.0227H8.98855H8.95035H8.9123H8.87435H8.8364H8.7982H8.7602H8.72225H8.68425L8.6993 16.2688L8.71075 16.2342L8.72605 16.196L8.74135 16.1616L8.75255 16.127L8.76785 16.0926L8.7831 16.0544L8.7982 16.0198L8.80965 15.9854L8.82495 15.9511L8.8402 15.9165L8.85145 15.8783L8.86675 15.8439L8.882 15.8093L8.8935 15.7749L8.90855 15.7405L8.92385 15.7021L8.9391 15.6677L8.95035 15.6333L8.96565 15.5987L8.98095 15.5605L8.99235 15.5259L9.0074 15.4915L9.0227 15.5259L9.03415 15.5605L9.0492 15.5987L9.0645 15.6333L9.07595 15.6677L9.0912 15.7021L9.1063 15.7405L9.1177 15.7749L9.133 15.8093L9.1483 15.8439L9.1595 15.8783L9.1748 15.9165L9.1863 15.9511L9.2013 15.9854L9.2166 16.0198L9.2281 16.0544L9.24335 16.0926L9.2584 16.127L9.26985 16.1616L9.28515 16.196L9.3002 16.2342ZM10.4679 17.4147H10.506H10.544L10.5287 17.3803L10.5134 17.3459L10.4984 17.3115L10.4869 17.2734L10.4716 17.2392L10.4564 17.2048L10.4413 17.1705L10.426 17.1361L10.4108 17.1017L10.3957 17.0635L10.3804 17.0291L10.3689 16.9947L10.3539 16.9603L10.3386 16.926L10.3233 16.8916L10.3081 16.8534L10.293 16.819L10.2777 16.7846L10.2624 16.7502L10.2512 16.7158L10.2359 16.6814L10.2206 16.6432L10.2053 16.6089L10.1903 16.5745L10.175 16.5401L10.1597 16.5057L10.1447 16.4713L10.1332 16.4331L10.1179 16.3988L10.1029 16.3644L10.0876 16.33L10.0723 16.2956L10.057 16.2612L10.042 16.223L10.0267 16.1887L10.0152 16.1543L10.0002 16.1199L9.98494 16.0855L9.96964 16.0511L9.95439 16.0129L9.93929 15.9785L9.92399 15.9441L9.90874 15.9098L9.89749 15.8754L9.88224 15.841L9.86694 15.8069L9.85189 15.7686L9.83659 15.7343L9.82129 15.6999L9.80604 15.6655L9.79099 15.6311L9.77949 15.5967L9.76424 15.5585L9.74919 15.5242L9.73389 15.4898L9.71864 15.4554L9.70334 15.421L9.68824 15.3866L9.67299 15.3484L9.66154 15.3141L9.64649 15.2797L9.63119 15.2453L9.61594 15.2109L9.60089 15.1765L9.58559 15.1383L9.57029 15.1039L9.55504 15.0696L9.54379 15.0352L9.52849 15.0008L9.51319 14.9664L9.49819 14.9282L9.48289 14.8938L9.46764 14.8594L9.45234 14.8251L9.43729 14.7907L9.42584 14.7563L9.41054 14.7181L9.39549 14.6837L9.38019 14.6493L9.36494 14.6149H9.32694H9.29279H9.25454H9.21659H9.17864H9.14444H9.10629H9.06829H9.03034H8.99619H8.95794H8.91994H8.88199H8.84784H8.80964H8.77164H8.73369H8.69929H8.66134L8.64629 14.6493L8.63099 14.6837L8.61574 14.7181L8.60424 14.7563L8.58919 14.7907L8.57394 14.8251L8.55864 14.8594L8.54359 14.8938L8.52829 14.9282L8.51299 14.9664L8.49769 15.0008L8.48649 15.0352L8.47119 15.0696L8.45589 15.1039L8.44084 15.1383L8.42554 15.1765L8.41029 15.2109L8.39524 15.2453L8.37999 15.2797L8.36849 15.3141L8.35324 15.3484L8.33819 15.3866L8.32289 15.421L8.30764 15.4554L8.29254 15.4898L8.27729 15.5242L8.26199 15.5585L8.25054 15.5967L8.23549 15.6311L8.22019 15.6655L8.20494 15.6999L8.18984 15.7343L8.17459 15.7686L8.15934 15.8069L8.14424 15.841L8.13279 15.8754L8.11749 15.9098L8.10224 15.9441L8.08719 15.9785L8.07189 16.0129L8.05659 16.0511L8.04154 16.0855L8.02624 16.1199L8.01479 16.1543L7.99954 16.1887L7.98444 16.223L7.96919 16.2612L7.95394 16.2956L7.93884 16.33L7.92359 16.3644L7.90829 16.3988L7.89684 16.4331L7.88179 16.4713L7.86649 16.5057L7.85119 16.5401L7.83619 16.5745L7.82089 16.6089L7.80559 16.6432L7.79054 16.6814L7.77909 16.7158L7.76379 16.7502L7.74854 16.7846L7.73344 16.819L7.71819 16.8534L7.70289 16.8916L7.68784 16.926L7.67254 16.9603L7.66114 16.9947L7.64584 17.0291L7.63079 17.0635L7.61549 17.1017L7.60019 17.1361L7.58514 17.1705L7.56989 17.2048L7.55459 17.2392L7.54314 17.2734L7.52804 17.3115L7.51279 17.3459L7.49749 17.3803L7.48244 17.4147H7.52044H7.55844H7.59639H7.63464H7.67644H7.71439H7.75229H7.79054H7.82854H7.86649H7.90449H7.94264H7.98064H8.01864H8.06044H8.09839H8.13664H8.17459H8.21254H8.25054L8.26584 17.3803L8.27729 17.3459L8.29254 17.3115L8.30764 17.2734L8.31909 17.2392L8.33439 17.2048L8.34944 17.1705L8.36089 17.1361L8.37619 17.1017L8.39144 17.0673L8.40269 17.0329L8.41794 16.9947L8.43324 16.9603L8.44469 16.926L8.45974 16.8916H8.49769H8.53594H8.57394H8.61184H8.64629H8.68424H8.72224H8.76019H8.79819H8.83639H8.87434H8.91229H8.95034H8.98854H9.02269H9.06064H9.09884H9.13684H9.17479H9.21279H9.25079H9.28894H9.32694H9.36494H9.39929H9.43729H9.47524H9.51319H9.55119L9.56649 16.926L9.57794 16.9603L9.59324 16.9947L9.60834 17.0329L9.61974 17.0673L9.63504 17.1017L9.65029 17.1361L9.66154 17.1705L9.67684 17.2048L9.69209 17.2392L9.70334 17.2734L9.71864 17.3115L9.73389 17.3459L9.74534 17.3803L9.76044 17.4147H9.79864H9.83659H9.87074H9.90874H9.94689H9.98494H10.0229H10.057H10.0952H10.1332H10.1712H10.2092H10.2474H10.2815H10.3195H10.3575H10.3957H10.4336H10.4679ZM7.14359 17.0825L7.17414 17.0596L7.20064 17.0367V16.9985V16.9603V16.9221V16.8877V16.8495V16.8113V16.7731V16.7349V16.6967V16.6623V16.6241V16.5859V16.5477V16.5095V16.4713V16.4331V16.3987V16.3605V16.3223V16.2841V16.2459V16.2077V16.1695V16.1351V16.0969V16.0587V16.0205V15.9823V15.9441V15.9097V15.8715V15.8333V15.7953H7.16264H7.12469H7.08649H7.04854H7.01054H6.97259H6.93434H6.89639H6.85839H6.82039H6.78224H6.74424H6.70629H6.66829H6.63009H6.59214H6.55419H6.51614H6.47794H6.43999H6.40199H6.36404H6.32584H6.28784H6.24989H6.21189H6.17369H6.13574H6.09774H6.05979H6.02179H5.98359H5.94559V15.8333V15.8677V15.9059V15.9441V15.9823V16.0167V16.0549V16.0931V16.1313V16.1657V16.2039V16.2421V16.2803V16.3147V16.3529H5.98359H6.01794H6.05594H6.09394H6.13194H6.16629H6.20424H6.24219H6.28024H6.31459H6.35259H6.39054H6.42854H6.46289H6.50089V16.3911V16.4293V16.4675V16.5057V16.5477V16.5859V16.6241V16.6623V16.7005L6.47054 16.7196L6.44379 16.7349L6.40969 16.7502L6.37914 16.7655L6.34489 16.7807L6.31079 16.7884L6.27279 16.7998L6.23459 16.8074L6.19664 16.8151L6.15864 16.8189L6.11684 16.8227L6.07479 16.8266H6.02919H5.98739L5.94559 16.8227L5.90764 16.8189L5.86964 16.8113L5.83144 16.8037L5.79349 16.7922L5.75544 16.7807L5.72114 16.7655L5.68699 16.7502L5.65279 16.7349L5.62224 16.7158L5.59194 16.6967L5.56159 16.6738L5.53099 16.6508L5.50454 16.6279L5.48154 16.6012L5.45504 16.5744L5.43214 16.5477L5.40944 16.5171L5.39034 16.4866L5.37124 16.456L5.35234 16.4216L5.33709 16.3872L5.32179 16.349L5.31054 16.3185L5.29909 16.2841L5.29149 16.2497L5.28379 16.2153L5.27619 16.181L5.27234 16.1428L5.26854 16.1084L5.26499 16.0702V16.032V16.0243V15.9823L5.26854 15.9441L5.27234 15.9059L5.27999 15.8639L5.28764 15.8295L5.29524 15.7915L5.30674 15.7533L5.32179 15.7189L5.33329 15.6846L5.34854 15.6502L5.36764 15.6196L5.38649 15.5852L5.40559 15.5547L5.42449 15.5279L5.44744 15.4974L5.47394 15.4706L5.49684 15.4439L5.52334 15.421L5.55014 15.398L5.57664 15.3752L5.60724 15.356L5.63754 15.3369L5.66809 15.3178L5.70224 15.3025L5.73644 15.2872L5.77054 15.2758L5.80494 15.2644L5.83909 15.2567L5.87709 15.2491L5.91144 15.2452L5.94944 15.2414H5.98739H6.02919L6.07119 15.2452L6.11299 15.2491L6.15104 15.2529L6.18899 15.2605L6.22694 15.2682L6.26134 15.2758L6.29549 15.2872L6.32964 15.2987L6.36019 15.3102L6.39054 15.3255L6.42109 15.3407L6.45524 15.3599L6.48559 15.3789L6.51614 15.398L6.54649 15.4171L6.57684 15.44L6.60739 15.4592L6.63774 15.4859L6.66829 15.5088L6.69099 15.4783L6.71769 15.4515L6.74044 15.421L6.76719 15.3904L6.78984 15.3599L6.81279 15.3331L6.83934 15.3025L6.86219 15.272L6.88874 15.2414L6.91169 15.2146L6.93434 15.1841L6.96109 15.1535L6.98379 15.1268L7.00674 15.0962L7.03324 15.0657L7.05619 15.0351L7.08269 15.0084L7.10559 14.9778L7.07524 14.9549L7.04469 14.9282L7.01439 14.9052L6.98379 14.8823L6.95349 14.8632L6.92314 14.8403L6.88874 14.8212L6.85839 14.8021L6.82429 14.783L6.79369 14.7639L6.75954 14.7486L6.72539 14.7295L6.69099 14.7142L6.65684 14.6989L6.62269 14.6837L6.58829 14.6722L6.55794 14.6607L6.52384 14.6531L6.48944 14.6416L6.45524 14.634L6.42109 14.6263L6.38674 14.6187L6.34874 14.6111L6.31079 14.6034L6.27639 14.5996L6.23459 14.592L6.19664 14.5882H6.15864L6.11684 14.5843L6.07479 14.5805H6.03299H5.99124H5.95324H5.91144L5.87324 14.5843L5.83524 14.5882L5.79729 14.592L5.75929 14.5958L5.72114 14.6034L5.68309 14.6073L5.64514 14.6149L5.61099 14.6263L5.57279 14.634L5.53864 14.6454L5.50454 14.6531L5.47009 14.6684L5.43214 14.6799L5.40179 14.6913L5.36379 14.7104L5.32944 14.7257L5.29524 14.741L5.26114 14.7601L5.22674 14.7792L5.19259 14.7983L5.16229 14.8174L5.13169 14.8365L5.10134 14.8594L5.07079 14.8785L5.04044 14.9014L5.01389 14.9243L4.98335 14.9511L4.95684 14.974L4.93013 15.0008L4.90358 15.0274L4.88065 15.0542L4.85415 15.0809L4.83122 15.1077L4.80851 15.1383L4.78559 15.1688L4.76292 15.1994L4.74379 15.2299L4.72474 15.2605L4.70582 15.2911L4.68673 15.3216L4.66764 15.356L4.6526 15.3904L4.6373 15.4248L4.62205 15.4592L4.60696 15.4935L4.59167 15.5317L4.5802 15.5661L4.56874 15.6043L4.55753 15.6387L4.54986 15.6769L4.5384 15.7151L4.53077 15.7495L4.52698 15.7877L4.51935 15.8257L4.51548 15.8677L4.5119 15.9059V15.9441L4.50811 15.9861V16.0243V16.032V16.0702V16.1122L4.5119 16.1504L4.51548 16.1886L4.51935 16.2268L4.5231 16.2612L4.53077 16.2994L4.53461 16.3338L4.54224 16.372L4.5537 16.4064L4.56133 16.4446L4.57257 16.4789L4.5802 16.5133L4.5955 16.5477L4.60696 16.5783L4.62205 16.6126L4.6373 16.647L4.6526 16.6814L4.66764 16.7158L4.68673 16.7463L4.70582 16.7807L4.72474 16.8113L4.74379 16.8418L4.7665 16.8724L4.78559 16.903L4.80851 16.9297L4.83122 16.9603L4.85415 16.987L4.88065 17.0138L4.90741 17.0405L4.93392 17.0634L4.96068 17.0902L4.98718 17.1131L5.01389 17.136L5.04429 17.1589L5.07464 17.1818L5.10519 17.2048L5.13549 17.2238L5.16609 17.243L5.20024 17.2621L5.23054 17.281L5.26499 17.3001L5.29909 17.3154L5.33329 17.3306L5.36764 17.3459L5.40559 17.3612L5.43974 17.3726L5.47394 17.3879L5.50834 17.3994L5.54629 17.407L5.58044 17.4185L5.61864 17.4261L5.65279 17.4337L5.69079 17.4414L5.72874 17.449L5.76699 17.4529L5.80494 17.4567L5.84289 17.4605L5.88469 17.4643L5.92269 17.4681H5.96089H6.00264H6.04449H6.08629L6.12804 17.4643L6.16629 17.4605L6.20809 17.4567L6.24604 17.4529L6.28784 17.449L6.32584 17.4452L6.36404 17.4376L6.40199 17.43L6.43619 17.4223L6.47439 17.4147L6.50854 17.4032L6.54649 17.3918L6.58069 17.3803L6.61504 17.3688L6.64924 17.3573L6.68334 17.342L6.72159 17.3268L6.75574 17.3115L6.79369 17.2962L6.82784 17.2771L6.86219 17.2621L6.89639 17.243L6.93054 17.2238L6.96494 17.2048L6.99529 17.1857L7.02584 17.1666L7.05619 17.1436L7.08649 17.1246L7.11704 17.1016L7.14359 17.0825ZM7.85359 20.7117H15.8668L11.7767 22.0605L7.85359 20.7117Z" fill="white"/>
</svg>
