<svg width="26" height="25" viewBox="0 0 26 25" fill="none" xmlns="http://www.w3.org/2000/svg">
<path d="M13 0.0498047C6.125 0.0498047 0.5 5.6623 0.5 12.5748C0.5 18.8248 5.075 24.0123 11.05 24.9498V16.1998H7.875V12.5748H11.05V9.81231C11.05 6.67481 12.9125 4.9498 15.775 4.9498C17.1375 4.9498 18.5625 5.1873 18.5625 5.1873V8.27481H16.9875C15.4375 8.27481 14.95 9.2373 14.95 10.2248V12.5748H18.425L17.8625 16.1998H14.95V24.9498C17.8956 24.4846 20.5778 22.9817 22.5124 20.7124C24.4471 18.4431 25.5067 15.5569 25.5 12.5748C25.5 5.6623 19.875 0.0498047 13 0.0498047Z" fill="#CCCCCC"/>
</svg>
