<svg width="24" height="24" viewBox="0 0 24 24" fill="none" xmlns="http://www.w3.org/2000/svg">
<path fill-rule="evenodd" clip-rule="evenodd" d="M21.0494 12.8294H14.6918V10.778H21.05V12.8294H21.0494ZM19.8192 20.1267C19.8192 20.3621 19.4777 20.6236 18.9879 20.6236H14.6913V13.6505H19.8186V20.1273L19.8192 20.1267ZM10.9993 20.6236H13.8707V9.54832H10.9993V20.6236ZM5.05082 20.1267V13.6505H10.1787V20.6242H5.88205C5.39232 20.6242 5.05082 20.3627 5.05082 20.1273V20.1267ZM3.82056 10.7786H10.1787V12.83H3.82056V10.7786ZM4.87176 8.21491C4.87176 7.25323 5.65379 6.4718 6.61487 6.4718C8.24651 6.4718 9.63447 8.71294 9.92025 9.95801H6.61487C6.15276 9.95738 5.70976 9.77353 5.383 9.44677C5.05624 9.12001 4.87239 8.67701 4.87176 8.21491ZM18.2551 6.4718C19.2162 6.4718 19.9982 7.25323 19.9982 8.21491C19.9982 9.17598 19.2162 9.95801 18.2551 9.95801H14.9503C15.2355 8.71294 16.6235 6.4718 18.2551 6.4718ZM21.4597 9.95801H20.1293C20.5719 9.48549 20.8184 8.86238 20.8188 8.21491C20.8182 7.53512 20.5479 6.88334 20.0673 6.4026C19.5866 5.92186 18.9349 5.65143 18.2551 5.65065C16.5417 5.65065 15.1561 7.31845 14.4956 8.78942C14.4313 8.74903 14.3569 8.72747 14.281 8.72716H10.589C10.5131 8.72747 10.4387 8.74903 10.3744 8.78942C9.71392 7.31845 8.32892 5.65065 6.61546 5.65065C5.93557 5.65127 5.2837 5.92164 4.80295 6.40239C4.32219 6.88315 4.05183 7.53501 4.0512 8.21491C4.0512 8.88843 4.31444 9.5003 4.74073 9.95801H3.41028C3.30147 9.95801 3.19711 10.0012 3.12017 10.0782C3.04323 10.1551 3 10.2595 3 10.3683V13.2397C3 13.4662 3.1838 13.65 3.41028 13.65H4.23085V20.1267C4.23085 20.8655 4.95595 21.4441 5.88205 21.4441H18.9879C19.914 21.4441 20.6392 20.8655 20.6392 20.1267V13.6505H21.4597C21.6862 13.6505 21.87 13.4668 21.87 13.2403V10.3689C21.87 10.2601 21.8268 10.1557 21.7498 10.0788C21.6729 10.0018 21.5685 9.9586 21.4597 9.9586V9.95801ZM12.4353 5.4455C12.6612 5.4455 12.845 5.26171 12.845 5.03522V3.39469C12.841 3.28865 12.796 3.1883 12.7195 3.11471C12.6431 3.04111 12.5411 3 12.435 3C12.3289 3 12.2269 3.04111 12.1505 3.11471C12.074 3.1883 12.029 3.28865 12.025 3.39469V5.03522C12.025 5.26171 12.2088 5.4455 12.4353 5.4455Z" fill="#121212"/>
<path fill-rule="evenodd" clip-rule="evenodd" d="M14.5887 6.1635C14.6427 6.16359 14.6961 6.153 14.746 6.13235C14.7958 6.11169 14.8411 6.08137 14.8792 6.04314L15.494 5.42831C15.5332 5.39047 15.5644 5.34521 15.5859 5.29518C15.6074 5.24515 15.6187 5.19134 15.6192 5.13688C15.6197 5.08243 15.6093 5.02843 15.5887 4.97802C15.5681 4.92762 15.5377 4.88182 15.4992 4.84329C15.4607 4.80477 15.415 4.77429 15.3646 4.75364C15.3142 4.73298 15.2602 4.72256 15.2057 4.72299C15.1513 4.72342 15.0975 4.73468 15.0474 4.75612C14.9974 4.77756 14.9521 4.80874 14.9142 4.84787L14.2988 5.46329C14.2415 5.52067 14.2025 5.59374 14.1867 5.67327C14.1709 5.75281 14.179 5.83525 14.21 5.91017C14.241 5.98509 14.2936 6.04914 14.361 6.09423C14.4284 6.13932 14.5076 6.16342 14.5887 6.1635ZM9.99141 6.04373C10.0294 6.08191 10.0746 6.11221 10.1244 6.13289C10.1741 6.15356 10.2275 6.1642 10.2813 6.1642C10.3352 6.1642 10.3886 6.15356 10.4383 6.13289C10.4881 6.11221 10.5332 6.08191 10.5713 6.04373C10.6094 6.00563 10.6396 5.96039 10.6603 5.91059C10.6809 5.86079 10.6915 5.80741 10.6915 5.75351C10.6915 5.6996 10.6809 5.64623 10.6603 5.59643C10.6396 5.54663 10.6094 5.50139 10.5713 5.46329L9.95583 4.84787C9.91795 4.80874 9.87267 4.77756 9.82261 4.75612C9.77256 4.73468 9.71873 4.72342 9.66428 4.72299C9.60983 4.72256 9.55584 4.73298 9.50545 4.75364C9.45507 4.77429 9.4093 4.80477 9.37081 4.84329C9.33233 4.88182 9.3019 4.92762 9.28129 4.97802C9.26069 5.02843 9.25033 5.08243 9.25081 5.13688C9.25129 5.19134 9.26261 5.24515 9.2841 5.29518C9.30559 5.34521 9.33682 5.39047 9.37598 5.42831L9.99141 6.04314V6.04373Z" fill="#121212"/>
</svg>
