<svg width="40" height="40" viewBox="0 0 40 40" fill="none" xmlns="http://www.w3.org/2000/svg">
<path fill-rule="evenodd" clip-rule="evenodd" d="M35.0824 21.3823H24.4864V17.9633H35.0834V21.3823H35.0824ZM33.032 33.5445C33.032 33.9368 32.4628 34.3726 31.6466 34.3726H24.4854V22.7509H33.031V33.5455L33.032 33.5445ZM18.3322 34.3726H23.1178V15.9139H18.3322V34.3726ZM8.41803 33.5445V22.7509H16.9646V34.3736H9.80342C8.9872 34.3736 8.41803 33.9378 8.41803 33.5455V33.5445ZM6.36761 17.9643H16.9646V21.3833H6.36761V17.9643ZM8.1196 13.6915C8.1196 12.0887 9.42298 10.7863 11.0248 10.7863C13.7442 10.7863 16.0575 14.5216 16.5337 16.5967H11.0248C10.2546 16.5956 9.51626 16.2892 8.97167 15.7446C8.42707 15.2 8.12065 14.4617 8.1196 13.6915ZM30.4252 10.7863C32.027 10.7863 33.3304 12.0887 33.3304 13.6915C33.3304 15.2933 32.027 16.5967 30.4252 16.5967H24.9172C25.3925 14.5216 27.7058 10.7863 30.4252 10.7863ZM35.7662 16.5967H33.5488C34.2865 15.8092 34.6974 14.7706 34.698 13.6915C34.697 12.5585 34.2465 11.4722 33.4454 10.671C32.6444 9.86977 31.5582 9.41905 30.4252 9.41774C27.5695 9.41774 25.2601 12.1974 24.1593 14.649C24.0521 14.5817 23.9282 14.5458 23.8016 14.5453H17.6484C17.5218 14.5458 17.3979 14.5817 17.2907 14.649C16.1899 12.1974 13.8815 9.41774 11.0258 9.41774C9.89261 9.41879 8.80617 9.86939 8.00491 10.6707C7.20365 11.4719 6.75304 12.5584 6.752 13.6915C6.752 14.8141 7.19074 15.8338 7.90122 16.5967H5.6838C5.50245 16.5967 5.32852 16.6687 5.20028 16.797C5.07204 16.9252 5 17.0991 5 17.2805V22.0661C5 22.4436 5.30633 22.7499 5.6838 22.7499H7.05141V33.5445C7.05141 34.7758 8.25992 35.7402 9.80342 35.7402H31.6466C33.1901 35.7402 34.3986 34.7758 34.3986 33.5445V22.7509H35.7662C36.1437 22.7509 36.45 22.4446 36.45 22.0671V17.2815C36.45 17.1001 36.378 16.9262 36.2497 16.798C36.1215 16.6697 35.9476 16.5977 35.7662 16.5977V16.5967ZM20.7255 9.07584C21.102 9.07584 21.4083 8.76951 21.4083 8.39204V5.65781C21.4016 5.48109 21.3267 5.31383 21.1992 5.19118C21.0718 5.06852 20.9019 5 20.725 5C20.5481 5 20.3782 5.06852 20.2508 5.19118C20.1233 5.31383 20.0484 5.48109 20.0417 5.65781V8.39204C20.0417 8.76951 20.348 9.07584 20.7255 9.07584Z" fill="#F5F5F5"/>
<path fill-rule="evenodd" clip-rule="evenodd" d="M24.3145 10.2729C24.4044 10.2731 24.4935 10.2554 24.5766 10.221C24.6597 10.1866 24.7352 10.1361 24.7987 10.0723L25.8234 9.04762C25.8887 8.98456 25.9407 8.90913 25.9765 8.82574C26.0123 8.74235 26.0312 8.65267 26.032 8.56192C26.0328 8.47116 26.0155 8.38116 25.9812 8.29715C25.9469 8.21314 25.8961 8.13681 25.832 8.0726C25.7679 8.00839 25.6916 7.95759 25.6076 7.92317C25.5236 7.88875 25.4336 7.87138 25.3429 7.87209C25.2521 7.8728 25.1624 7.89157 25.079 7.9273C24.9956 7.96303 24.9201 8.01502 24.857 8.08022L23.8313 9.10592C23.7358 9.20155 23.6707 9.32334 23.6444 9.4559C23.6181 9.58846 23.6316 9.72585 23.6833 9.85073C23.735 9.9756 23.8226 10.0823 23.9349 10.1575C24.0472 10.2326 24.1793 10.2728 24.3145 10.2729ZM16.6523 10.0733C16.7157 10.137 16.791 10.1875 16.8739 10.2219C16.9568 10.2564 17.0457 10.2741 17.1355 10.2741C17.2253 10.2741 17.3142 10.2564 17.3972 10.2219C17.4801 10.1875 17.5554 10.137 17.6187 10.0733C17.6823 10.0098 17.7327 9.93442 17.7671 9.85142C17.8015 9.76843 17.8192 9.67946 17.8192 9.58962C17.8192 9.49978 17.8015 9.41082 17.7671 9.32783C17.7327 9.24483 17.6823 9.16943 17.6187 9.10592L16.593 8.08022C16.5299 8.01502 16.4544 7.96303 16.371 7.9273C16.2876 7.89157 16.1979 7.8728 16.1071 7.87209C16.0164 7.87138 15.9264 7.88875 15.8424 7.92317C15.7584 7.95759 15.6821 8.00839 15.618 8.0726C15.5539 8.13681 15.5031 8.21314 15.4688 8.29715C15.4345 8.38116 15.4172 8.47116 15.418 8.56192C15.4188 8.65267 15.4377 8.74235 15.4735 8.82574C15.5093 8.90913 15.5614 8.98456 15.6266 9.04762L16.6523 10.0723V10.0733Z" fill="#F5F5F5"/>
</svg>
