<svg width="14" height="14" viewBox="0 0 14 14" fill="none" xmlns="http://www.w3.org/2000/svg">
<path d="M4.97052 0.255443C4.27959 0.345175 3.86819 0.48769 3.47261 0.783278C3.23 0.965381 3.06913 1.16596 2.92672 1.46682C2.75003 1.83631 2.72893 1.98146 2.72893 2.91309C2.72893 3.56233 2.72102 3.72332 2.69201 3.74707C2.67355 3.76291 2.62345 3.85 2.58125 3.94237C2.51005 4.10072 2.50741 4.12447 2.49686 4.60744C2.48104 5.33057 2.52587 5.54699 2.74212 5.80299C2.80805 5.87688 2.86343 5.99037 2.91617 6.15664C3.01902 6.47334 3.29065 7.02756 3.48053 7.30995L3.63084 7.53428L3.6203 7.98294C3.61238 8.42369 3.60975 8.43688 3.53854 8.56092C3.44361 8.72191 3.39614 8.75358 2.25424 9.37379C1.10972 9.99663 1.07543 10.0177 0.830176 10.2658C0.611291 10.4902 0.487345 10.6828 0.38977 10.9494C0.279009 11.2476 0.252637 11.4746 0.25 12.108C0.25 12.6886 0.25 12.6939 0.313292 12.7678L0.376584 12.8417L4.25585 12.8496L8.13512 12.8549L8.01381 12.678C7.78174 12.3323 7.61296 11.9232 7.51275 11.4535C7.43891 11.1183 7.44418 10.5007 7.52593 10.1365C7.5945 9.81717 7.75273 9.39754 7.88195 9.18113L7.97425 9.0307L7.72372 8.89346C7.26486 8.6401 7.23848 8.58731 7.23848 7.96711V7.51053L7.37298 7.31259C7.56813 7.02228 7.83185 6.48125 7.92678 6.17247C7.99271 5.9587 8.03491 5.87688 8.11666 5.78715C8.325 5.55754 8.33291 5.51268 8.33291 4.74996V4.07433L8.23533 3.87903L8.13776 3.68373L8.12721 2.83919C8.1193 2.058 8.11402 1.97882 8.05864 1.79672C7.87668 1.18707 7.45737 0.733133 6.85082 0.485051C6.47634 0.331979 6.09132 0.26336 5.53751 0.252804C5.27643 0.247525 5.02063 0.250164 4.97052 0.255443Z" fill="#CCCCCC"/>
<path d="M10.4032 7.93286C9.58834 8.05163 8.85521 8.51876 8.39371 9.2155C7.60783 10.3979 7.78716 11.9629 8.82356 12.9473C9.25606 13.359 9.77558 13.615 10.3769 13.7127C12.3125 14.0267 14.0267 12.3113 13.7129 10.3741C13.5414 9.32635 12.8505 8.47389 11.8669 8.09385C11.4159 7.92231 10.8806 7.8616 10.4032 7.93286Z" fill="#CCCCCC"/>
</svg>
