<svg width="33" height="21" viewBox="0 0 33 21" fill="none" xmlns="http://www.w3.org/2000/svg">
<g clip-path="url(#clip0_1167_18289)">
<path d="M2.42129 0H30.7802C31.6752 0 32.4007 0.725544 32.4007 1.62051V18.6359C32.4007 19.5309 31.6752 20.2564 30.7802 20.2564H2.42129C1.52632 20.2564 0.800781 19.5309 0.800781 18.6359V1.62051C0.800781 0.725544 1.52632 0 2.42129 0Z" fill="#0E4C96"/>
<path d="M26.4131 14.6358C26.4131 16.3217 25.0467 17.6888 23.3601 17.6888H6.78516V5.62087C6.78516 3.93449 8.15177 2.56742 9.83839 2.56742L26.4129 2.56738L26.413 14.6357L26.4131 14.6358Z" fill="white"/>
<path d="M21.0094 10.3932C21.4828 10.4035 21.9589 10.3723 22.4305 10.4094C22.908 10.4985 23.0231 11.2214 22.5988 11.4582C22.3095 11.6142 21.9655 11.5163 21.6517 11.5438H21.0095L21.0094 10.3932ZM22.7042 9.09092C22.8094 9.46218 22.4515 9.79552 22.0938 9.74439H21.0094C21.0169 9.39428 20.9945 9.01431 21.0204 8.68263C21.4549 8.69483 21.8934 8.65768 22.3253 8.70204C22.5109 8.74867 22.6662 8.90124 22.7042 9.09092ZM25.3144 3.58523C25.3345 4.29424 25.3172 5.04073 25.323 5.76413C25.3216 8.7052 25.3259 11.6462 25.3208 14.5874C25.3018 15.6896 24.3249 16.6472 23.2303 16.6692C22.1346 16.6737 21.0388 16.6699 19.943 16.6712V12.2249C21.1369 12.2186 22.3316 12.2373 23.525 12.2155C24.0787 12.1807 24.685 11.8154 24.7108 11.2061C24.7761 10.5943 24.1991 10.171 23.6513 10.1041C23.4408 10.0987 23.447 10.0427 23.6513 10.0184C24.1736 9.90547 24.5839 9.36479 24.4302 8.82329C24.2991 8.25376 23.6697 8.03333 23.1461 8.03443C22.0786 8.02713 21.0107 8.03337 19.9431 8.03131C19.9501 7.20124 19.9288 6.37028 19.9547 5.54082C20.0392 4.45848 21.0407 3.56594 22.12 3.58527H25.3144V3.58523Z" fill="url(#paint0_linear_1167_18289)"/>
<path d="M7.87992 5.65308C7.90722 4.55263 8.88824 3.60269 9.98152 3.58665C11.0731 3.58328 12.1648 3.58616 13.2564 3.58519C13.2534 7.26719 13.2624 10.9496 13.2519 14.6314C13.2099 15.7186 12.2395 16.6504 11.1582 16.6695C10.0646 16.6735 8.97076 16.6701 7.87704 16.6712V12.075C8.93941 12.326 10.0535 12.4329 11.1372 12.2663C11.7851 12.162 12.4939 11.844 12.7132 11.1719C12.8747 10.597 12.7838 9.99192 12.8078 9.40185V8.03154H10.9322C10.9238 8.93777 10.9494 9.84567 10.9186 10.751C10.8681 11.3074 10.3172 11.6609 9.79236 11.642C9.14148 11.6489 7.85188 11.1705 7.85188 11.1705C7.84864 9.47226 7.87076 7.3457 7.87992 5.65345V5.65308Z" fill="url(#paint1_linear_1167_18289)"/>
<path d="M13.9575 8.58445C13.8589 8.60539 13.9377 8.24815 13.9124 8.11263C13.9191 7.25579 13.8983 6.39801 13.9238 5.54177C14.0082 4.45485 15.0173 3.56005 16.101 3.58549H19.292C19.289 7.26746 19.2979 10.9499 19.2875 14.6317C19.2454 15.7188 18.275 16.6506 17.1938 16.6698C16.1 16.6739 15.0062 16.6704 13.9123 16.6716V11.6358C14.6594 12.2487 15.6746 12.3441 16.6053 12.3458C17.3069 12.3455 18.0044 12.2374 18.6857 12.0756V11.153C17.9178 11.5357 17.0153 11.7788 16.164 11.5589C15.5703 11.411 15.1393 10.8373 15.149 10.2245C15.0801 9.58734 15.4538 8.91454 16.08 8.72511C16.8574 8.48171 17.7048 8.66786 18.4336 8.98427C18.5897 9.06606 18.7482 9.16743 18.6857 8.90644V8.18126C17.4669 7.89135 16.1698 7.78456 14.9452 8.10008C14.5907 8.2001 14.2455 8.35174 13.9575 8.58453V8.58445Z" fill="url(#paint2_linear_1167_18289)"/>
</g>
<defs>
<linearGradient id="paint0_linear_1167_18289" x1="19.9222" y1="10.1522" x2="25.3052" y2="10.1522" gradientUnits="userSpaceOnUse">
<stop stop-color="#007B40"/>
<stop offset="1" stop-color="#55B330"/>
</linearGradient>
<linearGradient id="paint1_linear_1167_18289" x1="7.88985" y1="10.152" x2="13.2684" y2="10.152" gradientUnits="userSpaceOnUse">
<stop stop-color="#1D2970"/>
<stop offset="1" stop-color="#006DBA"/>
</linearGradient>
<linearGradient id="paint2_linear_1167_18289" x1="13.9168" y1="10.2959" x2="19.2979" y2="10.2959" gradientUnits="userSpaceOnUse">
<stop stop-color="#6E2B2F"/>
<stop offset="1" stop-color="#E30138"/>
</linearGradient>
<clipPath id="clip0_1167_18289">
<rect width="31.5999" height="20.2564" fill="white" transform="translate(0.800781)"/>
</clipPath>
</defs>
</svg>
