<svg width="32" height="21" viewBox="0 0 32 21" fill="none" xmlns="http://www.w3.org/2000/svg">
<g clip-path="url(#clip0_1108_24030)">
<path d="M1.62052 0H29.9795C30.8745 0 31.6 0.725545 31.6 1.62051V18.6359C31.6 19.5309 30.8745 20.2564 29.9795 20.2564H1.62052C0.725545 20.2564 0 19.5309 0 18.6359V1.62051C0 0.725545 0.725545 0 1.62052 0Z" fill="black"/>
<path d="M27.9537 10.1286C27.9537 14.1448 24.6985 17.4007 20.6824 17.4007C16.6668 17.4007 13.4111 14.145 13.4111 10.1286C13.4111 6.11212 16.6667 2.85614 20.6824 2.85614C24.6986 2.85614 27.9537 6.11204 27.9537 10.1286Z" fill="#D9222A"/>
<path d="M15.0651 14.7463C14.8637 14.502 14.6787 14.2447 14.5112 13.9761H17.0882C17.2433 13.7281 17.3832 13.4709 17.5072 13.2059H14.0923C13.9751 12.9554 13.8723 12.6984 13.7846 12.4361H17.8147C18.0572 11.7108 18.1886 10.9351 18.1886 10.1284C18.1886 9.59987 18.1322 9.0847 18.0253 8.58842H13.5745C13.6306 8.32801 13.7011 8.07095 13.7855 7.81827H17.8142C17.7262 7.55607 17.6236 7.29906 17.5066 7.04841H14.0932C14.2173 6.78358 14.3572 6.52644 14.512 6.27834H17.0875C16.9196 6.01019 16.7346 5.75321 16.5336 5.50892H15.066C15.2917 5.23493 15.5369 4.97768 15.7998 4.73918C14.5093 3.56904 12.7963 2.85602 10.9172 2.85602C6.90117 2.85606 3.64551 6.11195 3.64551 10.1285C3.64551 14.1447 6.90104 17.4005 10.9172 17.4005C12.7965 17.4005 14.5093 16.6877 15.7998 15.5177C16.0631 15.2788 16.3087 15.021 16.5344 14.7465H15.0651" fill="#0097D0"/>
<path d="M26.9848 14.1811C26.9848 14.0515 27.09 13.9463 27.2198 13.9463C27.3494 13.9463 27.4545 14.0515 27.4545 14.1811C27.4545 14.3109 27.3494 14.4161 27.2198 14.4161C27.09 14.4161 26.9848 14.3109 26.9848 14.1812V14.1811ZM27.2198 14.3597C27.3183 14.3597 27.3981 14.28 27.3982 14.1816V14.1811C27.3982 14.0827 27.3185 14.003 27.2201 14.003H27.2198C27.1214 14.0028 27.0414 14.0825 27.0412 14.1809V14.1811C27.0411 14.2797 27.121 14.3596 27.2196 14.3597H27.2198ZM27.1879 14.2843H27.14V14.078H27.227C27.2451 14.078 27.2636 14.0781 27.2797 14.0884C27.2966 14.0999 27.3059 14.1198 27.3059 14.1399C27.3059 14.1635 27.2922 14.185 27.2702 14.1932L27.308 14.2842H27.2548L27.2234 14.2028H27.1879V14.2843V14.2843ZM27.1879 14.1676H27.2146C27.2245 14.1676 27.235 14.1683 27.244 14.1635C27.2519 14.1583 27.2561 14.1487 27.2561 14.1396C27.2557 14.1312 27.2514 14.1235 27.2445 14.1188C27.2359 14.1137 27.2226 14.1147 27.2136 14.1147H27.1879V14.1676ZM15.6968 12.0932C15.3861 12.1756 15.0856 12.2157 14.7678 12.2151C13.7544 12.2141 13.2265 11.7525 13.2265 10.87C13.2265 9.83862 13.8985 9.08001 14.8106 9.08001C15.5567 9.08001 16.0331 9.5054 16.0331 10.1717C16.0331 10.3928 16.0009 10.608 15.9219 10.9129H14.1195C14.0554 11.3437 14.3702 11.5329 14.906 11.5329C15.2271 11.5329 15.5174 11.4752 15.8388 11.3461L15.6968 12.0932V12.0932ZM15.2122 10.3045C15.2122 10.2394 15.3125 9.77651 14.7909 9.76638C14.5029 9.76638 14.2963 9.9578 14.2127 10.3045H15.2122V10.3045ZM16.3074 10.1023C16.3074 10.4833 16.522 10.7465 17.0095 10.9424C17.3822 11.0952 17.4409 11.1392 17.4409 11.2754C17.4409 11.4643 17.2762 11.5511 16.9105 11.5487C16.6359 11.5468 16.3854 11.5135 16.0896 11.4314L15.9588 12.1264C16.2217 12.1873 16.5903 12.2074 16.9169 12.215C17.8903 12.215 18.3396 11.8963 18.3396 11.2076C18.3396 10.7937 18.1522 10.5499 17.6901 10.3684C17.3037 10.2141 17.2583 10.1805 17.2583 10.0409C17.2583 9.87686 17.4114 9.79381 17.71 9.79381C17.8907 9.79381 18.1386 9.81054 18.3735 9.83866L18.5056 9.14021C18.2661 9.10679 17.9026 9.08009 17.6923 9.08009C16.6612 9.08017 16.3044 9.54441 16.3074 10.1023V10.1023ZM12.7325 12.1652H11.9764L11.9945 11.8484C11.7639 12.0984 11.4568 12.2147 11.0401 12.2147C10.5468 12.2147 10.2088 11.8775 10.2088 11.3924C10.2088 10.6554 10.7963 10.2301 11.8063 10.2301C11.9101 10.2301 12.0421 10.2378 12.1776 10.2529C12.2056 10.1543 12.2133 10.112 12.2133 10.0581C12.2133 9.85636 12.0544 9.7821 11.6294 9.7821C11.2104 9.7838 10.9276 9.84575 10.6653 9.91632L10.7944 9.23975C11.248 9.12441 11.5451 9.08005 11.8812 9.08005C12.6633 9.08005 13.0763 9.38661 13.0763 9.96307C13.0831 10.1169 13.0294 10.4254 13.0026 10.5605C12.9718 10.7571 12.7551 11.8963 12.7325 12.1652V12.1652ZM12.0689 10.8206C11.973 10.8108 11.9313 10.8079 11.8658 10.8079C11.3501 10.8079 11.0887 10.9613 11.0887 11.2644C11.0887 11.4545 11.2163 11.5737 11.4151 11.5737C11.7857 11.5736 12.0532 11.2637 12.0689 10.8206ZM19.9328 12.1174C19.6847 12.1855 19.4914 12.2151 19.2823 12.2151C18.8191 12.2151 18.5662 11.9783 18.5662 11.5567C18.5517 11.4409 18.6648 10.9061 18.6904 10.7571C18.7161 10.6075 19.1173 8.42792 19.1173 8.42792H20.0172L19.881 9.14905H20.3425L20.2171 9.8852H19.7536C19.7536 9.8852 19.4992 11.1626 19.4992 11.26C19.4992 11.415 19.5931 11.4823 19.8084 11.4823C19.9116 11.4823 19.9911 11.4727 20.0527 11.4542L19.9328 12.1174V12.1174ZM23.9536 9.08001C23.294 9.08001 22.7787 9.35145 22.4794 9.80491L22.7392 9.13252C22.2605 8.95681 21.9519 9.20751 21.6727 9.56398C21.6727 9.56398 21.6259 9.62325 21.5795 9.67741V9.14872H20.7345C20.6201 10.0817 20.4177 11.0277 20.2593 11.9622L20.2212 12.1656H21.1302C21.2163 11.6912 21.2872 11.3062 21.3578 10.9993C21.5509 10.1572 21.8758 9.89975 22.3637 10.0135C22.2511 10.2557 22.1893 10.5358 22.1893 10.8462C22.1893 11.5989 22.5981 12.2151 23.6133 12.2151C24.6378 12.2151 25.3795 11.6678 25.3795 10.42C25.3795 9.66729 24.8852 9.08001 23.9536 9.08001V9.08001ZM23.689 11.4831C23.368 11.4882 23.1734 11.2188 23.1734 10.8159C23.1734 10.3381 23.4575 9.79847 23.9137 9.79847C24.2819 9.79847 24.408 10.0903 24.408 10.4013C24.408 11.081 24.1295 11.4831 23.689 11.4831V11.4831ZM9.78541 12.1656H8.88023L9.41824 9.33156L8.17972 12.1656H7.35459L7.20368 9.34792L6.66405 12.1656H5.84277L6.54231 8.47909H7.95674L8.07471 10.5341L8.97073 8.47909H10.4989L9.78541 12.1656" fill="black"/>
<path d="M25.4479 11.7033C25.4479 11.5737 25.553 11.4687 25.6827 11.4686C25.8125 11.4686 25.9175 11.5739 25.9175 11.7033C25.9177 11.833 25.8128 11.9384 25.6831 11.9386C25.5534 11.9388 25.4481 11.8339 25.4479 11.7042V11.7033V11.7033ZM25.6827 11.8821C25.7813 11.882 25.8612 11.802 25.8613 11.7033C25.8612 11.6047 25.7812 11.5249 25.6827 11.5249C25.5841 11.5249 25.5041 11.6048 25.5041 11.7033C25.5041 11.802 25.584 11.882 25.6827 11.8821ZM25.6509 11.8065H25.6028V11.6006H25.6899C25.7082 11.6006 25.7267 11.6006 25.7428 11.6107C25.7593 11.622 25.7689 11.6418 25.7689 11.6622C25.7689 11.6857 25.7553 11.7074 25.7331 11.7155L25.7709 11.8065H25.7176L25.6864 11.7251H25.6509V11.8065V11.8065ZM25.6509 11.6895H25.6776C25.6874 11.6895 25.698 11.6902 25.707 11.6856C25.7147 11.6802 25.7192 11.6713 25.719 11.6618C25.7187 11.6534 25.7145 11.6457 25.7075 11.641C25.6989 11.6358 25.6855 11.6371 25.6766 11.6371H25.6509V11.6895V11.6895ZM15.9234 11.8659C15.6128 11.9483 15.3122 11.9886 14.9946 11.9879C13.9811 11.9869 13.4533 11.5253 13.4533 10.6426C13.4533 9.61154 14.125 8.8527 15.0372 8.8527C15.7835 8.8527 16.2597 9.278 16.2597 9.94424C16.2597 10.1657 16.2272 10.3806 16.1487 10.6857H14.3463C14.2822 11.1163 14.5967 11.3058 15.1326 11.3058C15.4537 11.3058 15.7439 11.2481 16.0656 11.1188L15.9234 11.8659ZM15.4388 10.0773C15.4388 10.0123 15.5389 9.54928 15.0175 9.53927C14.7295 9.53927 14.5231 9.73089 14.4393 10.0773H15.4388ZM16.5342 9.87488C16.5342 10.256 16.7484 10.519 17.236 10.7154C17.6089 10.868 17.6674 10.9121 17.6674 11.048C17.6674 11.2371 17.5028 11.3239 17.1373 11.3215C16.8625 11.3197 16.6119 11.2863 16.3163 11.2042L16.1852 11.8988C16.4482 11.9603 16.8171 11.9804 17.1435 11.9879C18.1168 11.9879 18.5663 11.6691 18.5663 10.9804C18.5663 10.5665 18.3788 10.3225 17.9164 10.1413C17.5301 9.98698 17.4848 9.95335 17.4848 9.81378C17.4848 9.64967 17.6381 9.56666 17.9364 9.56666C18.1175 9.56666 18.3651 9.58351 18.6003 9.61167L18.7319 8.91298C18.4924 8.8796 18.1291 8.85294 17.919 8.85294C16.8876 8.85294 16.5309 9.31693 16.5342 9.87488V9.87488ZM12.9592 11.9382H12.203L12.2212 11.6214C11.9905 11.8709 11.6834 11.9873 11.2668 11.9873C10.7735 11.9873 10.4354 11.65 10.4354 11.1654C10.4354 10.4279 11.0227 10.0029 12.0328 10.0029C12.1366 10.0029 12.2685 10.0106 12.4043 10.0256C12.4324 9.92706 12.4398 9.88484 12.4398 9.83084C12.4398 9.62896 12.2811 9.55483 11.8561 9.55483C11.4371 9.55657 11.1544 9.61863 10.892 9.68905L11.021 9.01264C11.4748 8.89718 11.7717 8.85282 12.1079 8.85282C12.89 8.85282 13.3029 9.15934 13.3029 9.73563C13.3097 9.88962 13.256 10.198 13.2293 10.3334C13.1984 10.5298 12.9817 11.6691 12.9592 11.9382V11.9382ZM12.2953 10.5933C12.1998 10.5834 12.1579 10.5806 12.0923 10.5806C11.5769 10.5806 11.3152 10.734 11.3152 11.0371C11.3152 11.2273 11.443 11.3463 11.6416 11.3463C12.0124 11.3463 12.28 11.0363 12.2953 10.5933ZM20.1593 11.8904C19.9113 11.9583 19.7178 11.9879 19.5088 11.9879C19.0456 11.9879 18.793 11.7511 18.793 11.3295C18.7783 11.2138 18.8916 10.6789 18.917 10.5298C18.9427 10.3803 19.3439 8.20068 19.3439 8.20068H20.2437L20.1078 8.92181H20.5693L20.4438 9.65793H19.9804C19.9804 9.65793 19.7258 10.9353 19.7258 11.0327C19.7258 11.1877 19.8198 11.2547 20.0351 11.2547C20.138 11.2547 20.2177 11.2454 20.2793 11.2267L20.1593 11.8904ZM24.6347 10.174C24.6347 10.8536 24.356 11.256 23.9154 11.256C23.5946 11.2606 23.3999 10.9917 23.3999 10.5886C23.3999 10.1109 23.6838 9.57119 24.1401 9.57119C24.5084 9.57119 24.6347 9.86341 24.6347 10.174V10.174ZM25.6061 10.1929C25.6061 9.44017 25.1116 8.85274 24.1803 8.85274C23.1088 8.85274 22.416 9.56686 22.416 10.619C22.416 11.3717 22.8245 11.988 23.84 11.988C24.8644 11.9879 25.6062 11.4405 25.6061 10.1929V10.1929ZM20.9609 8.92149C20.8466 9.85446 20.6442 10.8003 20.486 11.7351L20.4477 11.9385H21.3566C21.6843 10.1333 21.7942 9.619 22.4805 9.80013L22.8106 8.9458C22.332 8.77005 22.0237 9.02091 21.7448 9.37758C21.7699 9.21711 21.8174 9.06227 21.8059 8.92149H20.9609ZM10.0119 11.9385H9.10699L9.6448 9.10424L8.40612 11.9385H7.58115L7.43024 9.12061L6.89061 11.9385H6.06934L6.76867 8.25181H8.18342L8.25821 10.5341L9.25381 8.25181H10.7254L10.0119 11.9385" fill="white"/>
</g>
<defs>
<clipPath id="clip0_1108_24030">
<rect width="31.6" height="20.2564" fill="white"/>
</clipPath>
</defs>
</svg>
