<svg width="24" height="24" viewBox="0 0 24 24" fill="none" xmlns="http://www.w3.org/2000/svg">
<g clip-path="url(#clip0_152_5363)">
<path d="M8.55755 21.1371L8.8856 18.9565L8.15486 18.9387H4.66553L7.09044 2.84806C7.09766 2.79889 7.12152 2.75408 7.15767 2.72179C7.19382 2.6895 7.23986 2.67188 7.28739 2.67214H13.1709C15.1241 2.67214 16.4721 3.09749 17.1758 3.93705C17.5058 4.3309 17.7159 4.74247 17.8175 5.19539C17.9241 5.67064 17.926 6.23844 17.8219 6.93095L17.8144 6.9815V7.42523L18.1443 7.62084C18.3962 7.75438 18.6226 7.93503 18.8123 8.15385C19.0946 8.49059 19.2771 8.91857 19.3542 9.42598C19.4339 9.94783 19.4076 10.5688 19.2771 11.2718C19.1265 12.0805 18.8832 12.7849 18.5545 13.3612C18.2645 13.8775 17.8746 14.3247 17.4098 14.674C16.9732 14.9983 16.4545 15.2444 15.868 15.402C15.2998 15.5569 14.6518 15.635 13.9412 15.635H13.4833C13.1559 15.635 12.8378 15.7584 12.5882 15.9796C12.3389 16.2032 12.1735 16.5121 12.1215 16.8513L12.087 17.0476L11.5075 20.8909L11.4811 21.032C11.4742 21.0767 11.4623 21.099 11.4447 21.1141C11.4277 21.1287 11.4065 21.1367 11.3845 21.1371H8.55755Z" fill="#253B80"/>
<path d="M18.4566 7.03281C18.4391 7.1503 18.419 7.27043 18.3964 7.39383C17.6205 11.5627 14.966 13.0029 11.5758 13.0029H9.84965C9.43504 13.0029 9.08567 13.318 9.02107 13.746L8.13728 19.6117L7.88702 21.2744C7.87705 21.3403 7.88085 21.4078 7.89817 21.472C7.91549 21.5363 7.94592 21.5959 7.98735 21.6466C8.02878 21.6974 8.08023 21.7382 8.13817 21.7662C8.1961 21.7942 8.25914 21.8087 8.32295 21.8087H11.3845C11.7471 21.8087 12.055 21.533 12.1121 21.1588L12.1422 20.996L12.7186 17.1678L12.7557 16.9578C12.8121 16.5823 13.1207 16.3066 13.4833 16.3066H13.9411C16.9074 16.3066 19.2294 15.0463 19.9081 11.3993C20.1916 9.87574 20.0448 8.60361 19.2946 7.70891C19.0569 7.43214 18.7729 7.20303 18.4566 7.03281Z" fill="#179BD7"/>
<path d="M17.645 6.69406C17.3973 6.61906 17.1453 6.56052 16.8905 6.51879C16.387 6.43782 15.8782 6.39897 15.3688 6.40261H10.7573C10.5818 6.40247 10.4121 6.46803 10.2787 6.58746C10.1454 6.70689 10.0573 6.87229 10.0303 7.05377L9.04934 13.5562L9.02112 13.7459C9.05168 13.5389 9.15203 13.3502 9.304 13.2139C9.45598 13.0776 9.64956 13.0027 9.8497 13.0029H11.5759C14.9661 13.0029 17.6206 11.562 18.3965 7.39379C18.4197 7.27039 18.4391 7.15026 18.4567 7.03277C18.252 6.92041 18.0386 6.82621 17.8188 6.75116C17.7612 6.73116 17.7032 6.71212 17.645 6.69406Z" fill="#222D65"/>
<path d="M10.0303 7.05373C10.057 6.8722 10.1451 6.70672 10.2785 6.58735C10.4119 6.46799 10.5818 6.40266 10.7573 6.40323H15.3687C15.9151 6.40323 16.425 6.44064 16.8904 6.51941C17.2054 6.57121 17.516 6.64868 17.8194 6.75113C18.0483 6.83055 18.2609 6.92442 18.4573 7.03273C18.6881 5.49212 18.4554 4.44317 17.6594 3.49334C16.7819 2.44767 15.1981 2 13.1715 2H7.288C6.87402 2 6.52088 2.31508 6.4569 2.74372L4.00628 18.9998C3.99486 19.0753 3.99921 19.1525 4.01901 19.226C4.03881 19.2996 4.0736 19.3677 4.12098 19.4259C4.16837 19.484 4.22723 19.5307 4.29351 19.5628C4.35979 19.5948 4.43192 19.6115 4.50493 19.6116H8.13728L9.04929 13.5562L10.0303 7.05373Z" fill="#253B80"/>
</g>
<defs>
<clipPath id="clip0_152_5363">
<rect width="16" height="20" fill="white" transform="translate(4 2)"/>
</clipPath>
</defs>
</svg>
