<svg width="38" height="24" viewBox="0 0 38 24" fill="none" xmlns="http://www.w3.org/2000/svg">
<g clip-path="url(#clip0_1108_24016)">
<path d="M15.5571 21.137L15.8851 18.9564L15.1544 18.9387H11.665L14.0899 2.84804C14.0972 2.79888 14.121 2.75406 14.1572 2.72177C14.1933 2.68948 14.2394 2.67186 14.2869 2.67212H20.1704C22.1236 2.67212 23.4716 3.09748 24.1753 3.93703C24.5053 4.33088 24.7154 4.74245 24.817 5.19538C24.9236 5.67062 24.9255 6.23842 24.8214 6.93094L24.8139 6.98148V7.42522L25.1438 7.62083C25.3957 7.75437 25.6221 7.93501 25.8118 8.15384C26.0941 8.49058 26.2766 8.91856 26.3537 9.42597C26.4334 9.94782 26.4071 10.5688 26.2766 11.2718C26.1261 12.0805 25.8827 12.7848 25.554 13.3612C25.264 13.8775 24.8741 14.3246 24.4093 14.674C23.9727 14.9983 23.454 15.2444 22.8675 15.402C22.2993 15.5569 21.6513 15.635 20.9407 15.635H20.4828C20.1554 15.635 19.8374 15.7584 19.5877 15.9796C19.3384 16.2032 19.1731 16.5121 19.121 16.8513L19.0865 17.0476L18.507 20.8909L18.4806 21.032C18.4737 21.0767 18.4618 21.099 18.4443 21.1141C18.4272 21.1286 18.406 21.1367 18.384 21.137H15.5571Z" fill="#253B80"/>
<path d="M25.4569 7.03278C25.4393 7.15027 25.4192 7.2704 25.3967 7.3938C24.6208 11.5627 21.9663 13.0029 18.5761 13.0029H16.8499C16.4353 13.0029 16.0859 13.3179 16.0213 13.7459L15.1375 19.6116L14.8873 21.2743C14.8773 21.3403 14.8811 21.4077 14.8984 21.472C14.9157 21.5363 14.9462 21.5958 14.9876 21.6466C15.029 21.6974 15.0805 21.7382 15.1384 21.7661C15.1963 21.7941 15.2594 21.8086 15.3232 21.8087H18.3848C18.7473 21.8087 19.0553 21.533 19.1123 21.1588L19.1425 20.996L19.7189 17.1678L19.7559 16.9578C19.8123 16.5823 20.121 16.3066 20.4835 16.3066H20.9414C23.9076 16.3066 26.2296 15.0463 26.9083 11.3992C27.1918 9.87571 27.0451 8.60357 26.2949 7.70888C26.0571 7.43211 25.7731 7.203 25.4569 7.03278V7.03278Z" fill="#179BD7"/>
<path d="M24.6454 6.69409C24.3977 6.61909 24.1456 6.56055 23.8908 6.51882C23.3874 6.43785 22.8785 6.399 22.3692 6.40264H17.7577C17.5822 6.4025 17.4124 6.46807 17.2791 6.58749C17.1458 6.70692 17.0577 6.87232 17.0307 7.0538L16.0497 13.5562L16.0215 13.7459C16.052 13.5389 16.1524 13.3502 16.3044 13.2139C16.4563 13.0776 16.6499 13.0028 16.8501 13.0029H18.5762C21.9665 13.0029 24.6209 11.5621 25.3968 7.39382C25.4201 7.27042 25.4395 7.15029 25.4571 7.0328C25.2523 6.92044 25.0389 6.82624 24.8192 6.75119C24.7615 6.73119 24.7036 6.71215 24.6454 6.69409V6.69409Z" fill="#222D65"/>
<path d="M17.0302 7.05373C17.057 6.8722 17.145 6.70672 17.2784 6.58735C17.4118 6.46799 17.5817 6.40266 17.7572 6.40323H22.3687C22.915 6.40323 23.4249 6.44064 23.8904 6.51941C24.2053 6.57121 24.5159 6.64868 24.8193 6.75113C25.0482 6.83055 25.2609 6.92442 25.4572 7.03273C25.688 5.49212 25.4553 4.44317 24.6594 3.49334C23.7818 2.44767 22.1981 2 20.1714 2H14.2879C13.874 2 13.5208 2.31508 13.4568 2.74372L11.0062 18.9998C10.9948 19.0753 10.9991 19.1525 11.0189 19.226C11.0387 19.2996 11.0735 19.3677 11.1209 19.4259C11.1683 19.484 11.2272 19.5307 11.2934 19.5628C11.3597 19.5948 11.4319 19.6115 11.5049 19.6116H15.1372L16.0492 13.5562L17.0302 7.05373V7.05373Z" fill="#253B80"/>
</g>
<rect x="0.25" y="0.25" width="37.5" height="23.5" rx="3.75" stroke="#CCCCCC" stroke-width="0.5"/>
<defs>
<clipPath id="clip0_1108_24016">
<rect width="16" height="20" fill="white" transform="translate(11 2)"/>
</clipPath>
</defs>
</svg>
