<svg width="24" height="24" viewBox="0 0 24 24" fill="none" xmlns="http://www.w3.org/2000/svg">
<path fill-rule="evenodd" clip-rule="evenodd" d="M9.24304 14.5434C9.94504 15.2472 10.7946 15.6 11.7864 15.6C12.7782 15.6 13.626 15.2472 14.3298 14.5434C15.0336 13.8414 15.3864 12.9918 15.3864 12C15.3864 11.0082 15.0336 10.1604 14.3298 9.4566C14.0006 9.11607 13.605 8.84662 13.1676 8.66489C12.7301 8.48317 12.2601 8.39302 11.7864 8.4C10.7946 8.4 9.94684 8.7528 9.24304 9.4566C8.9025 9.78587 8.63306 10.1814 8.45133 10.6189C8.26961 11.0563 8.17945 11.5264 8.18644 12C8.18644 12.9918 8.53924 13.8396 9.24304 14.5434ZM18.6642 12.8874L20.6082 14.367C20.8116 14.5074 20.8404 14.7036 20.6964 14.9574L18.837 18.084C18.7218 18.282 18.5328 18.3378 18.2736 18.2532L15.9822 17.3658C15.3756 17.7888 14.8572 18.0858 14.4252 18.2532L14.0796 20.622C14.0202 20.874 13.8762 21.0018 13.6476 21.0018H9.92524C9.69484 21.0018 9.55084 20.8758 9.49324 20.622L9.14584 18.255C8.59154 18.026 8.0684 17.7278 7.58884 17.3676L5.29744 18.255C5.03824 18.3396 4.84924 18.2838 4.73404 18.0858L2.87644 14.9574C2.73244 14.7054 2.76124 14.5074 2.96284 14.367L4.90864 12.8874C4.87453 12.5929 4.8601 12.2964 4.86544 12C4.86544 11.604 4.87984 11.3106 4.90864 11.1126L2.96644 9.633C2.76304 9.4926 2.73424 9.2964 2.87824 9.0426L4.73584 5.916C4.85104 5.718 5.04004 5.6622 5.29924 5.7468L7.59064 6.6342C8.19724 6.2112 8.71564 5.9142 9.14764 5.7468L9.49324 3.378C9.55444 3.1278 9.69844 3 9.92524 3H13.6458C13.8762 3 14.0202 3.126 14.0778 3.3798L14.4252 5.7468C14.9724 5.9718 15.4908 6.2688 15.9822 6.6342L18.2736 5.7468C18.5328 5.6622 18.7218 5.718 18.837 5.916L20.6964 9.0426C20.8404 9.2946 20.8116 9.4926 20.61 9.633L18.6642 11.1126C18.693 11.3106 18.7074 11.6058 18.7074 12C18.7074 12.396 18.693 12.6894 18.6642 12.8874Z" fill="#121212"/>
</svg>
