<svg width="24" height="24" viewBox="0 0 24 24" fill="none" xmlns="http://www.w3.org/2000/svg">
<path d="M9.29403 3.0073C8.37278 3.12694 7.82425 3.31696 7.29682 3.71108C6.97333 3.95388 6.75884 4.22132 6.56896 4.62247C6.33337 5.11512 6.30525 5.30866 6.30525 6.55083C6.30525 7.41648 6.2947 7.63113 6.25602 7.6628C6.2314 7.68391 6.1646 7.80004 6.10834 7.9232C6.0134 8.13433 6.00988 8.166 5.99582 8.80996C5.97472 9.77414 6.0345 10.0627 6.32283 10.404C6.41073 10.5026 6.48457 10.6539 6.5549 10.8756C6.69203 11.2978 7.0542 12.0368 7.30737 12.4133L7.50779 12.7124L7.49373 13.3106C7.48318 13.8983 7.47966 13.9159 7.38472 14.0813C7.25814 14.2959 7.19485 14.3382 5.67233 15.1651C4.14629 15.9956 4.10058 16.0237 3.77357 16.3545C3.48172 16.6536 3.31646 16.9105 3.18636 17.2659C3.03868 17.6635 3.00352 17.9661 3 18.8107C3 19.5848 3 19.5919 3.08439 19.6904L3.16878 19.7889L8.34114 19.7995L13.5135 19.8065L13.3517 19.5708C13.0423 19.1098 12.8173 18.5643 12.6837 17.938C12.5852 17.4911 12.5922 16.6677 12.7012 16.1821C12.7927 15.7563 13.0036 15.1968 13.1759 14.9082L13.299 14.7076L12.965 14.5247C12.3531 14.1868 12.318 14.1165 12.318 13.2895V12.6807L12.4973 12.4168C12.7575 12.0298 13.1091 11.3084 13.2357 10.8967C13.3236 10.6116 13.3799 10.5026 13.4889 10.3829C13.7667 10.0768 13.7772 10.0169 13.7772 8.99998V8.09914L13.6471 7.83875L13.517 7.57835L13.5029 6.4523C13.4924 5.41071 13.4854 5.30514 13.4115 5.06234C13.1689 4.24947 12.6098 3.64422 11.8011 3.31344C11.3018 3.10935 10.7884 3.01785 10.05 3.00378C9.70191 2.99674 9.36084 3.00026 9.29403 3.0073Z" fill="#121212"/>
<path d="M16.5374 13.2438C15.4509 13.4022 14.4734 14.025 13.858 14.954C12.8102 16.5305 13.0493 18.6172 14.4312 19.9297C15.0078 20.4787 15.7005 20.82 16.5022 20.9502C19.0831 21.369 21.3687 19.0817 20.9503 16.4988C20.7217 15.1018 19.8004 13.9652 18.4889 13.4585C17.8876 13.2297 17.1738 13.1488 16.5374 13.2438Z" fill="#121212"/>
</svg>
