<svg width="18" height="18" viewBox="0 0 18 18" fill="none" xmlns="http://www.w3.org/2000/svg">
<path d="M6.97052 2.2555C6.27959 2.34524 5.86819 2.48775 5.47261 2.78334C5.23 2.96544 5.06913 3.16602 4.92672 3.46688C4.75003 3.83637 4.72893 3.98152 4.72893 4.91315C4.72893 5.56239 4.72102 5.72338 4.69201 5.74713C4.67355 5.76297 4.62345 5.85006 4.58125 5.94243C4.51005 6.10078 4.50741 6.12453 4.49686 6.6075C4.48104 7.33064 4.52587 7.54705 4.74212 7.80305C4.80805 7.87694 4.86343 7.99043 4.91617 8.1567C5.01902 8.4734 5.29065 9.02762 5.48053 9.31002L5.63084 9.53435L5.6203 9.983C5.61238 10.4237 5.60975 10.4369 5.53854 10.561C5.44361 10.722 5.39614 10.7536 4.25424 11.3738C3.10972 11.9967 3.07543 12.0178 2.83018 12.2659C2.61129 12.4902 2.48734 12.6829 2.38977 12.9494C2.27901 13.2477 2.25264 13.4746 2.25 14.108C2.25 14.6887 2.25 14.6939 2.31329 14.7678L2.37658 14.8417L6.25585 14.8496L10.1351 14.8549L10.0138 14.6781C9.78174 14.3324 9.61296 13.9233 9.51275 13.4535C9.43891 13.1183 9.44418 12.5008 9.52593 12.1366C9.5945 11.8172 9.75273 11.3976 9.88195 11.1812L9.97425 11.0308L9.72372 10.8935C9.26486 10.6402 9.23848 10.5874 9.23848 9.96717V9.51059L9.37298 9.31265C9.56813 9.02235 9.83185 8.48131 9.92678 8.17253C9.99271 7.95876 10.0349 7.87694 10.1167 7.78721C10.325 7.5576 10.3329 7.51274 10.3329 6.75002V6.07439L10.2353 5.87909L10.1378 5.68379L10.1272 4.83926C10.1193 4.05806 10.114 3.97888 10.0586 3.79678C9.87668 3.18713 9.45737 2.73319 8.85082 2.48511C8.47634 2.33204 8.09132 2.26342 7.53751 2.25286C7.27643 2.24759 7.02063 2.25023 6.97052 2.2555Z" fill="white"/>
<path d="M12.4032 9.93286C11.5883 10.0516 10.8552 10.5188 10.3937 11.2155C9.60783 12.3979 9.78716 13.9629 10.8236 14.9473C11.2561 15.359 11.7756 15.615 12.3769 15.7127C14.3125 16.0267 16.0267 14.3113 15.7129 12.3741C15.5414 11.3263 14.8505 10.4739 13.8669 10.0939C13.4159 9.92231 12.8806 9.8616 12.4032 9.93286Z" fill="#52971C"/>
</svg>
