<svg width="95" height="113" viewBox="0 0 95 113" fill="none" xmlns="http://www.w3.org/2000/svg">
<path d="M0.521484 4.01416C0.521484 1.80502 2.31235 0.0141602 4.52148 0.0141602H90.2495C92.4586 0.0141602 94.2495 1.80502 94.2495 4.01416V90.0116C94.2495 91.6178 93.2887 93.0682 91.8097 93.6947L48.9458 111.853C47.9485 112.276 46.8225 112.276 45.8252 111.853L2.9612 93.6947C1.48224 93.0682 0.521484 91.6178 0.521484 90.0116V4.01416Z" fill="#3D3D3D"/>
<path d="M27.8984 37.7781L38.8112 44.0139C38.9091 44.0699 38.9414 44.1957 38.8826 44.2919L33.1801 53.6232M58.0041 33.5527L52.8349 41.3066C52.773 41.3994 52.799 41.5248 52.8926 41.5854L61.7013 47.2851" stroke="white" stroke-width="3.5"/>
<path d="M44.7441 63.2428L45.3688 62.3058C47.4673 59.158 51.4839 57.9105 54.9964 59.3155L56.892 60.0738" stroke="white" stroke-width="3.5"/>
</svg>
