<svg width="28" height="22" viewBox="0 0 28 22" fill="none" xmlns="http://www.w3.org/2000/svg">
<path d="M27.0758 3C26.1133 3.4375 25.0758 3.725 24.0008 3.8625C25.1008 3.2 25.9508 2.15 26.3508 0.8875C25.3133 1.5125 24.1633 1.95 22.9508 2.2C21.9633 1.125 20.5758 0.5 19.0008 0.5C16.0633 0.5 13.6633 2.9 13.6633 5.8625C13.6633 6.2875 13.7133 6.7 13.8008 7.0875C9.35078 6.8625 5.38828 4.725 2.75078 1.4875C2.28828 2.275 2.02578 3.2 2.02578 4.175C2.02578 6.0375 2.96328 7.6875 4.41328 8.625C3.52578 8.625 2.70078 8.375 1.97578 8C1.97578 8 1.97578 8 1.97578 8.0375C1.97578 10.6375 3.82578 12.8125 6.27578 13.3C5.82578 13.425 5.35078 13.4875 4.86328 13.4875C4.52578 13.4875 4.18828 13.45 3.86328 13.3875C4.53828 15.5 6.50078 17.075 8.86328 17.1125C7.03828 18.5625 4.72578 19.4125 2.20078 19.4125C1.77578 19.4125 1.35078 19.3875 0.925781 19.3375C3.30078 20.8625 6.12578 21.75 9.15078 21.75C19.0008 21.75 24.4133 13.575 24.4133 6.4875C24.4133 6.25 24.4133 6.025 24.4008 5.7875C25.4508 5.0375 26.3508 4.0875 27.0758 3Z" fill="#CCCCCC"/>
</svg>
