<svg width="24" height="24" viewBox="0 0 24 24" fill="none" xmlns="http://www.w3.org/2000/svg">
<path d="M3.51481 13.9791C3.51481 13.9791 3.07189 11.7779 5.41439 9.11213C7.7571 6.44644 9.51474 5.47709 11.4131 4.97216C11.4131 4.97216 11.4114 4.97313 11.4098 4.97411C11.4122 4.97347 11.4146 4.9728 11.4169 4.97216C11.4169 4.97216 9.92574 5.84067 9.92574 7.15316C9.92574 7.53414 9.98648 7.79592 10.0706 7.97079C10.1823 8.2031 10.3592 8.2821 10.518 8.28286C10.6518 8.28362 10.7301 8.22863 10.8994 8.16289V15.2713C10.8994 15.2713 10.9177 15.3859 11.0206 15.5217C11.1687 15.717 11.4016 15.9553 11.839 15.9578C12.5853 15.953 13.5239 15.11 13.5239 15.11V9.35448C13.5239 8.76895 13.1049 8.0621 12.6608 7.81958C12.6608 7.81958 12.7213 7.81577 12.8193 7.81582C13.1125 7.81573 13.7414 7.84926 14.0919 8.117C14.1892 8.00419 15.7605 6.22627 18.5564 5.67918C18.5564 5.67918 18.5559 5.67973 18.555 5.68075C18.5576 5.68024 18.5601 5.67969 18.5627 5.67918C18.5627 5.67918 17.0163 7.50011 16.5316 8.40312C16.4454 8.40824 16.4328 10.1163 16.4472 11.8231C16.4611 13.4706 16.5002 15.1172 16.5229 15.2311C16.5229 15.2311 16.6879 15.4764 17.1081 15.4785C17.5821 15.4809 18.3807 15.1739 19.6329 13.8577L19.6329 13.8578L19.6329 13.8577C19.6329 13.8577 19.5999 13.9327 19.5334 14.0655C19.1746 14.7825 17.8412 17.1862 15.4728 18.5833L15.4726 18.5832C15.4726 18.5832 15.4725 18.5833 15.4724 18.5833L13.9362 17.284L13.897 17.2513L12.2215 19.0278C12.2215 19.0278 12.2205 19.0277 12.219 19.0275L12.2187 19.0278C12.2187 19.0278 8.3991 18.7047 6.80375 16.4026C6.80375 16.4026 6.80676 16.4037 6.81128 16.4054C6.81061 16.4044 6.80993 16.4035 6.8093 16.4026C6.8093 16.4026 7.05088 16.4966 7.32354 16.5018C7.64301 16.5076 7.97849 16.3909 7.97849 15.8571V10.445C7.97849 10.1686 7.78821 9.8586 7.37053 9.85979C6.99488 9.86076 6.45557 10.1135 5.71918 10.8691C4.16417 12.4644 3.5184 13.9791 3.5184 13.9791C3.5184 13.9791 3.51798 13.977 3.5173 13.9733C3.51578 13.9769 3.51481 13.9791 3.51481 13.9791ZM12 23.1547C14.9795 23.1547 17.7808 21.9944 19.8876 19.8876C21.9945 17.7807 23.1547 14.9795 23.1547 12C23.1547 9.02044 21.9945 6.21924 19.8876 4.11237C17.7808 2.00553 14.9795 0.84523 12 0.84523C9.02044 0.84523 6.21924 2.00553 4.11236 4.11237C2.00552 6.21924 0.845215 9.02044 0.845215 12C0.845215 14.9795 2.00552 17.7807 4.11236 19.8876C6.21924 21.9944 9.02044 23.1547 12 23.1547Z" fill="#CCCCCC"/>
<path d="M12 0.331708C18.4442 0.331708 23.6683 5.55578 23.6683 12C23.6683 18.4442 18.4442 23.6682 12 23.6682C5.55579 23.6682 0.331709 18.4442 0.331709 12C0.331709 5.55578 5.55579 0.331708 12 0.331708ZM12 24C15.2053 24 18.2188 22.7518 20.4853 20.4853C22.7518 18.2188 24 15.2053 24 12C24 8.79469 22.7518 5.7812 20.4853 3.51469C18.2188 1.24818 15.2053 -3.24067e-07 12 -3.24067e-07C8.79466 -3.24067e-07 5.78121 1.24818 3.5147 3.51469C1.24819 5.7812 0 8.79469 0 12C0 15.2053 1.24819 18.2188 3.5147 20.4853C5.78121 22.7518 8.79466 24 12 24Z" fill="#CCCCCC"/>
</svg>
