<svg width="26" height="19" viewBox="0 0 26 19" fill="none" xmlns="http://www.w3.org/2000/svg">
<path d="M10.5 13.25L16.9875 9.5L10.5 5.75V13.25ZM24.95 3.4625C25.1125 4.05 25.225 4.8375 25.3 5.8375C25.3875 6.8375 25.425 7.7 25.425 8.45L25.5 9.5C25.5 12.2375 25.3 14.25 24.95 15.5375C24.6375 16.6625 23.9125 17.3875 22.7875 17.7C22.2 17.8625 21.125 17.975 19.475 18.05C17.85 18.1375 16.3625 18.175 14.9875 18.175L13 18.25C7.7625 18.25 4.5 18.05 3.2125 17.7C2.0875 17.3875 1.3625 16.6625 1.05 15.5375C0.8875 14.95 0.775 14.1625 0.7 13.1625C0.6125 12.1625 0.575 11.3 0.575 10.55L0.5 9.5C0.5 6.7625 0.7 4.75 1.05 3.4625C1.3625 2.3375 2.0875 1.6125 3.2125 1.3C3.8 1.1375 4.875 1.025 6.525 0.95C8.15 0.8625 9.6375 0.825 11.0125 0.825L13 0.75C18.2375 0.75 21.5 0.95 22.7875 1.3C23.9125 1.6125 24.6375 2.3375 24.95 3.4625Z" fill="#CCCCCC"/>
</svg>
