<svg width="32" height="21" viewBox="0 0 32 21" fill="none" xmlns="http://www.w3.org/2000/svg">
<g clip-path="url(#clip0_1108_24026)">
<path d="M1.62051 0H29.9795C30.8745 0 31.6 0.725545 31.6 1.62051V18.6359C31.6 19.5309 30.8745 20.2564 29.9795 20.2564H1.62051C0.725544 20.2564 0 19.5309 0 18.6359V1.62051C0 0.725545 0.725544 0 1.62051 0Z" fill="#0E4595"/>
<path d="M11.8779 14.1281L13.2295 6.19729H15.3912L14.0387 14.1281H11.8779ZM21.8485 6.36825C21.4203 6.20758 20.7491 6.03516 19.9111 6.03516C17.7751 6.03516 16.2704 7.11077 16.2577 8.65241C16.2456 9.79204 17.3318 10.4278 18.1517 10.8071C18.9932 11.1959 19.276 11.4437 19.2721 11.7909C19.2668 12.3225 18.6001 12.5653 17.9788 12.5653C17.1136 12.5653 16.6539 12.4451 15.944 12.149L15.6654 12.023L15.362 13.7984C15.8669 14.0198 16.8006 14.2116 17.77 14.2215C20.0424 14.2215 21.5175 13.1582 21.5343 11.5119C21.5424 10.6098 20.9665 9.92318 19.7193 9.35713C18.9637 8.99029 18.501 8.74543 18.5059 8.37397C18.5059 8.04431 18.8976 7.69177 19.7439 7.69177C20.4508 7.68083 20.9629 7.83498 21.3619 7.99562L21.5555 8.08718L21.8485 6.36825V6.36825ZM27.4113 6.19717H25.7409C25.2235 6.19717 24.8362 6.33844 24.609 6.85485L21.3986 14.1229H23.6685C23.6685 14.1229 24.0396 13.1456 24.1236 12.9311C24.3717 12.9311 26.5768 12.9345 26.8921 12.9345C26.9568 13.2121 27.1551 14.1229 27.1551 14.1229H29.161L27.4113 6.19692V6.19717ZM24.7611 11.3184C24.9398 10.8615 25.6224 9.10142 25.6224 9.10142C25.6096 9.12256 25.7998 8.64224 25.909 8.34447L26.055 9.02829C26.055 9.02829 26.469 10.9214 26.5555 11.3184H24.7611ZM10.0428 6.19717L7.92638 11.6056L7.70085 10.5065C7.30686 9.23956 6.07932 7.86691 4.70703 7.17969L6.64217 14.1155L8.92936 14.1129L12.3326 6.19709H10.0428" fill="white"/>
<path d="M5.95183 6.19682H2.46607L2.43848 6.36183C5.15032 7.0183 6.94472 8.60474 7.68975 10.5107L6.93175 6.86621C6.8009 6.36405 6.42141 6.2142 5.95191 6.19666" fill="#F2AE14"/>
</g>
<defs>
<clipPath id="clip0_1108_24026">
<rect width="31.6" height="20.2564" fill="white"/>
</clipPath>
</defs>
</svg>
