<svg width="24" height="24" viewBox="0 0 24 24" fill="none" xmlns="http://www.w3.org/2000/svg">
<path d="M15.488 13.6C15.552 13.072 15.6 12.544 15.6 12C15.6 11.456 15.552 10.928 15.488 10.4H18.192C18.32 10.912 18.4 11.448 18.4 12C18.4 12.552 18.32 13.088 18.192 13.6H15.488ZM14.072 18.048C14.552 17.16 14.92 16.2 15.176 15.2H17.536C16.768 16.52 15.544 17.544 14.072 18.048ZM13.872 13.6H10.128C10.048 13.072 10 12.544 10 12C10 11.456 10.048 10.92 10.128 10.4H13.872C13.944 10.92 14 11.456 14 12C14 12.544 13.944 13.072 13.872 13.6ZM12 18.368C11.336 17.408 10.8 16.344 10.472 15.2H13.528C13.2 16.344 12.664 17.408 12 18.368ZM8.8 8.8H6.464C7.224 7.472 8.456 6.448 9.92 5.952C9.44 6.84 9.08 7.8 8.8 8.8ZM6.464 15.2H8.8C9.08 16.2 9.44 17.16 9.92 18.048C8.456 17.544 7.224 16.52 6.464 15.2ZM5.808 13.6C5.68 13.088 5.6 12.552 5.6 12C5.6 11.448 5.68 10.912 5.808 10.4H8.512C8.448 10.928 8.4 11.456 8.4 12C8.4 12.544 8.448 13.072 8.512 13.6H5.808ZM12 5.624C12.664 6.584 13.2 7.656 13.528 8.8H10.472C10.8 7.656 11.336 6.584 12 5.624ZM17.536 8.8H15.176C14.92 7.8 14.552 6.84 14.072 5.952C15.544 6.456 16.768 7.472 17.536 8.8ZM12 4C7.576 4 4 7.6 4 12C4 14.1217 4.84285 16.1566 6.34315 17.6569C7.08601 18.3997 7.96793 18.989 8.93853 19.391C9.90914 19.7931 10.9494 20 12 20C14.1217 20 16.1566 19.1571 17.6569 17.6569C19.1571 16.1566 20 14.1217 20 12C20 10.9494 19.7931 9.90914 19.391 8.93853C18.989 7.96793 18.3997 7.08601 17.6569 6.34315C16.914 5.60028 16.0321 5.011 15.0615 4.60896C14.0909 4.20693 13.0506 4 12 4Z" fill="#202020"/>
</svg>
