<svg width="24" height="25" viewBox="0 0 24 25" fill="none" xmlns="http://www.w3.org/2000/svg">
<path d="M12 0.831709C18.4442 0.831709 23.6683 6.05578 23.6683 12.5C23.6683 18.9442 18.4442 24.1682 12 24.1682C5.55579 24.1682 0.331709 18.9442 0.331709 12.5C0.331709 6.05578 5.55579 0.831709 12 0.831709ZM12 24.5C15.2053 24.5 18.2188 23.2518 20.4853 20.9853C22.7518 18.7188 24 15.7053 24 12.5C24 9.29469 22.7518 6.2812 20.4853 4.01469C18.2188 1.74818 15.2053 0.5 12 0.5C8.79466 0.5 5.78121 1.74818 3.5147 4.01469C1.24819 6.2812 0 9.29469 0 12.5C0 15.7053 1.24819 18.7188 3.5147 20.9853C5.78121 23.2518 8.79466 24.5 12 24.5Z" fill="#CCCCCC"/>
</svg>
