<svg width="28" height="33" viewBox="0 0 28 33" fill="none" xmlns="http://www.w3.org/2000/svg">
<path fill-rule="evenodd" clip-rule="evenodd" d="M2.50429 0.5H25.0722C26.9014 0.5 27.5765 1.17507 27.5765 3.00514V25.0877C27.5765 25.2948 27.5681 25.4872 27.5498 25.6654C27.5463 25.6987 27.5431 25.7319 27.5399 25.7651C27.5043 26.1298 27.4693 26.4887 27.1288 26.8927C27.0926 26.9359 26.7133 27.2181 26.7133 27.2181C26.6764 27.2362 26.6417 27.2534 26.6081 27.27C26.4559 27.3454 26.3284 27.4086 26.1398 27.4845L15.0271 32.1403C14.4501 32.4048 14.2089 32.5079 13.7899 32.4995V32.4996H13.7882H13.7866V32.4995C13.3676 32.5079 13.1263 32.4048 12.5495 32.1403L1.43668 27.4845C1.24788 27.4085 1.12021 27.3452 0.96776 27.2697C0.934407 27.2532 0.899867 27.2361 0.863247 27.2181C0.863247 27.2181 0.483947 26.9359 0.447647 26.8927C0.1071 26.4887 0.0721267 26.1298 0.0365867 25.7651C0.0333533 25.7319 0.03012 25.6987 0.0266467 25.6654C0.00835333 25.4872 0 25.2948 0 25.0877V3.00514C0 1.17507 0.675073 0.5 2.50429 0.5ZM21.6766 11.9913V14.7607C21.6766 15.2515 21.4497 15.4793 20.979 15.4793H20.6299C20.1417 15.4793 19.9148 15.2515 19.9148 14.7607V7.01336C19.9148 6.52259 20.1417 6.29487 20.6299 6.29487H20.944C21.415 6.29487 21.6418 6.52259 21.6418 7.01336V9.41487H23.4731V6.90819C23.4731 5.38345 22.7405 4.64725 21.2233 4.64725H20.316C18.7987 4.64725 18.0484 5.40083 18.0484 6.92586V14.8483C18.0484 16.3733 18.7987 17.1269 20.316 17.1269H21.2406C22.7583 17.1269 23.5081 16.3733 23.5081 14.8483V11.9913H21.6766ZM5.93471 11.6232H8.13245V9.92322H5.93471V6.45259H8.21998V4.75258H4.06838V17.0218H8.25471V15.3218H5.93471V11.6232ZM17.062 17.0218H15.1953V4.75257H17.062V17.0218ZM12.4871 10.2035C12.4871 10.6943 12.2607 10.9223 11.7897 10.9223H11.022V6.40007H11.7897C12.2607 6.40007 12.4871 6.62784 12.4871 7.11855V10.2035ZM12.086 4.75245H9.15567V17.0217H11.022V12.5696H12.086C13.6036 12.5696 14.3535 11.8161 14.3535 10.2913V7.03107C14.3535 5.50604 13.6036 4.75245 12.086 4.75245ZM23.5555 22.7521L23.5606 22.7011L23.5657 22.6451V22.5891V22.5789V22.5229L23.5606 22.4669L23.5555 22.4159L23.5454 22.365L23.5352 22.314L23.525 22.2682L23.51 22.2223L23.4947 22.1765L23.4744 22.1358L23.4488 22.0899L23.4237 22.0491L23.3931 22.0033L23.3628 21.9626L23.3272 21.9269L23.2919 21.8861L23.2512 21.8505L23.2107 21.8149L23.1702 21.7894L23.1294 21.7588L23.089 21.7334L23.0435 21.7079L22.9976 21.6824L22.947 21.6569L22.8964 21.6366L22.8457 21.6111L22.7897 21.5911L22.7442 21.5758L22.6986 21.5605L22.6476 21.5452L22.6022 21.5299L22.5515 21.5147L22.5008 21.4993L22.4499 21.4892L22.3942 21.4739L22.3435 21.4586L22.2878 21.4485L22.2321 21.4331L22.1764 21.4179L22.1203 21.4026L22.0697 21.3924L22.0242 21.3771L21.9783 21.3669L21.9379 21.3517L21.8974 21.3415L21.8366 21.3211L21.7806 21.3007L21.7299 21.2803L21.6895 21.2549L21.6436 21.2294L21.6083 21.1937L21.5879 21.1632L21.5628 21.1071L21.5576 21.041V21.0307L21.5628 20.9799L21.5828 20.934L21.6134 20.8881L21.6589 20.8473L21.6946 20.827L21.735 20.8066L21.7806 20.7965L21.8315 20.7862L21.8872 20.7761H21.948H21.9987L22.0442 20.7811L22.0952 20.7862L22.1458 20.7913L22.1964 20.8015L22.247 20.8117L22.298 20.8219L22.3486 20.8372L22.3992 20.8525L22.455 20.8677L22.4958 20.8881L22.5413 20.9034L22.5818 20.9237L22.6276 20.9441L22.668 20.9645L22.7136 20.9849L22.7544 21.0104L22.7999 21.0307L22.8406 21.0613L22.8811 21.0867L22.9266 21.1123L22.9674 21.1428L22.9976 21.1021L23.0231 21.0613L23.0533 21.0206L23.084 20.9799L23.1142 20.934L23.1397 20.8933L23.1702 20.8525L23.2005 20.8117L23.2259 20.771L23.2562 20.7303L23.2868 20.6895L23.3123 20.6487L23.3425 20.6029L23.3731 20.5621L23.4034 20.5214L23.4288 20.4807L23.459 20.4399L23.4186 20.4093L23.3782 20.3788L23.3374 20.3482L23.297 20.3228L23.2512 20.2922L23.2107 20.2667L23.1651 20.2413L23.1193 20.2158L23.0788 20.1954L23.0332 20.1699L22.9824 20.1495L22.9368 20.1291L22.8913 20.1088L22.8457 20.0935L22.7948 20.0732L22.7492 20.0629L22.7037 20.0477L22.6528 20.0324L22.6072 20.0222L22.5566 20.012L22.506 20.0018L22.4601 19.9917L22.4094 19.9815L22.3537 19.9764L22.3031 19.9662L22.247 19.9611H22.1964L22.1407 19.956L22.085 19.9509H22.0293H21.9735H21.9175H21.8668L21.8162 19.956L21.7656 19.9611L21.7146 19.9662L21.664 19.9713L21.6184 19.9815L21.5678 19.9917L21.522 20.0018L21.4764 20.012L21.436 20.0222L21.3901 20.0375L21.3395 20.0579L21.2889 20.0732L21.243 20.0935L21.1975 20.119L21.152 20.1394L21.1061 20.1648L21.0657 20.1903L21.0252 20.2209L20.9844 20.2514L20.9491 20.2769L20.9084 20.3125L20.873 20.3533L20.8374 20.389L20.802 20.4297L20.7714 20.4705L20.7411 20.5112L20.7157 20.557L20.6905 20.6029L20.6702 20.6487L20.6498 20.6946L20.6297 20.7404L20.6196 20.7862L20.6042 20.8321L20.594 20.878L20.5838 20.9237L20.5788 20.9747L20.5737 21.0206L20.5686 21.0715V21.1225V21.1326V21.1887L20.5737 21.2447L20.5788 21.2956L20.5838 21.3465L20.594 21.3924L20.6042 21.4433L20.6196 21.4841L20.6345 21.5299L20.6498 21.5707L20.6702 21.6061L20.6956 21.6519L20.7208 21.6927L20.7463 21.7283L20.7765 21.7639L20.8071 21.7996L20.8425 21.8353L20.8781 21.8709L20.9134 21.9015L20.9542 21.9269L20.9946 21.9575L21.0402 21.9829L21.081 22.0084L21.1316 22.0339L21.1771 22.0593L21.228 22.0797L21.2787 22.1001L21.3293 22.1205L21.385 22.1409L21.4309 22.1561L21.4764 22.1714L21.522 22.1867L21.5726 22.1969L21.6184 22.2121L21.6692 22.2275L21.7197 22.2377L21.7706 22.2529L21.8213 22.2631L21.877 22.2784L21.9277 22.2886L21.9834 22.3039L22.0344 22.314L22.085 22.3293L22.1305 22.3395L22.1764 22.3548L22.2168 22.365L22.2522 22.3752L22.313 22.4006L22.3639 22.421L22.4094 22.4414L22.4499 22.4617L22.4907 22.4923L22.526 22.5229L22.5515 22.5585L22.5719 22.6095L22.5769 22.6706V22.6807L22.5719 22.7317L22.5566 22.7775L22.5362 22.8183L22.506 22.854L22.4652 22.8845L22.4298 22.9049L22.3891 22.9202L22.3435 22.9303L22.298 22.9406L22.247 22.9507L22.1913 22.9558H22.1305H22.0798L22.0242 22.9507H21.9735L21.9226 22.9406L21.8668 22.9355L21.8162 22.9253L21.7656 22.9151L21.7146 22.9049L21.6692 22.8896L21.6184 22.8743L21.5678 22.8591L21.522 22.8387L21.4764 22.8234L21.4309 22.803L21.385 22.7827L21.3395 22.7623L21.2991 22.7368L21.2532 22.7165L21.2128 22.6909L21.1672 22.6604L21.1265 22.635L21.081 22.6044L21.0402 22.5739L20.9946 22.5433L20.9542 22.5127L20.9236 22.5535L20.8883 22.5891L20.8577 22.6299L20.8224 22.6706L20.7918 22.7062L20.7615 22.747L20.7259 22.7877L20.6956 22.8234L20.66 22.8641L20.6297 22.8998L20.594 22.9406L20.5638 22.9813L20.5332 23.0169L20.4978 23.0577L20.4673 23.0985L20.432 23.1341L20.4014 23.1749L20.4418 23.2105L20.4774 23.2411L20.518 23.2717L20.5587 23.3022L20.5992 23.3328L20.6396 23.3633L20.6803 23.3888L20.7208 23.4143L20.7666 23.4397L20.8071 23.4651L20.8526 23.4907L20.8984 23.5111L20.944 23.5362L20.9896 23.5566L21.0354 23.5769L21.086 23.5973L21.1316 23.6126L21.1822 23.6279L21.228 23.6483L21.2787 23.6635L21.3293 23.6788L21.3749 23.6891L21.4258 23.7043L21.4764 23.7145L21.527 23.7247L21.5777 23.7349L21.6287 23.745L21.6793 23.7501L21.7299 23.7603L21.7857 23.7654L21.8366 23.7705L21.8872 23.7757H21.9429L21.9936 23.7807H22.0442H22.1002H22.156H22.2066L22.2573 23.7757L22.313 23.7705L22.3639 23.7654L22.4094 23.7603L22.4601 23.7553L22.5111 23.745L22.5566 23.7349L22.6022 23.7247L22.6528 23.7145L22.6986 23.6992L22.7492 23.6839L22.7999 23.6687L22.8505 23.6483L22.9014 23.6279L22.947 23.6024L22.9925 23.582L23.0384 23.5566L23.0788 23.526L23.1193 23.5009L23.16 23.4703L23.1954 23.4397L23.2361 23.4041L23.2664 23.3735L23.302 23.3378L23.3323 23.3022L23.3578 23.2615L23.3881 23.2207L23.4135 23.1799L23.439 23.1392L23.459 23.0934L23.4794 23.0526L23.4998 23.0068L23.5151 22.9558L23.525 22.9099L23.5402 22.8591L23.5504 22.8081L23.5555 22.7521ZM19.9534 23.7196H20.0044H20.055V23.6686V23.6227V23.5718V23.5209V23.4703V23.4244V23.3735V23.3226V23.2766V23.2258V23.1748V23.129V23.078V23.0271V22.9762V22.9303V22.8794H20.0044H19.9534H19.9028H19.8522H19.8016H19.7506H19.7H19.6494H19.5987H19.5427H19.492H19.4414H19.3908H19.3398H19.2892H19.2386H19.1879H19.137H19.0863H19.0357H18.9851H18.9344H18.8835H18.8329H18.7822H18.7316H18.6806H18.63H18.5794H18.5236H18.4727H18.422H18.3714H18.3208H18.2699H18.2192H18.1686H18.1179H18.067V22.8284V22.7724V22.7215V22.6706V22.6146V22.5636V22.5127V22.4566V22.4057V22.3548V22.2987V22.2478H18.1179H18.1686H18.2192H18.2699H18.3208H18.3714H18.422H18.4727H18.5186H18.5692H18.6198H18.6704H18.7214H18.772H18.8227H18.8733H18.9242H18.9748H19.0256H19.0762H19.1271H19.1777H19.2284H19.279H19.33H19.3806H19.4262H19.4768H19.5277H19.5784H19.629H19.6796H19.7305H19.7812H19.8318V22.1969V22.151V22.1V22.0491V22.0033V21.9524V21.9014V21.8505V21.8046V21.7537V21.7028V21.6569V21.606V21.5554V21.5095V21.4586H19.7812H19.7305H19.6796H19.629H19.5784H19.5277H19.4768H19.4262H19.3806H19.33H19.279H19.2284H19.1777H19.1271H19.0762H19.0256H18.9748H18.9242H18.8733H18.8227H18.772H18.7214H18.6704H18.6198H18.5692H18.5186H18.4727H18.422H18.3714H18.3208H18.2699H18.2192H18.1686H18.1179H18.067V21.4076V21.3567V21.3058V21.2548V21.2039V21.153V21.1071V21.0562V21.0052V20.9543V20.9034V20.8525H18.1179H18.1686H18.2192H18.2699H18.3208H18.3714H18.417H18.4676H18.5186H18.5692H18.6198H18.6704H18.7214H18.772H18.8227H18.8733H18.9242H18.9748H19.0256H19.071H19.122H19.1726H19.2232H19.2739H19.3248H19.3754H19.4262H19.4768H19.5277H19.5784H19.629H19.6796H19.7254H19.776H19.8267H19.8774H19.9283H19.979H20.0296V20.8015V20.7557V20.7047V20.6538V20.6029V20.557V20.5061V20.4551V20.4093V20.3584V20.3074V20.2616V20.2106V20.1597V20.1088V20.0629V20.012H19.979H19.9283H19.8774H19.8267H19.776H19.7254H19.6745H19.6238H19.5732H19.5226H19.4717H19.421H19.3704H19.3198H19.2739H19.2232H19.1726H19.122H19.071H19.0204H18.9698H18.9192H18.8682H18.8176H18.7669H18.7164H18.6657H18.6147H18.5641H18.5135H18.4628H18.4119H18.3612H18.3106H18.26H18.209H18.1584H18.1078H18.0571H18.0062H17.9556H17.9049H17.8542H17.8084H17.7578H17.7072H17.6565H17.6056H17.555H17.5043H17.4537H17.4028H17.3521H17.3014H17.2509H17.2H17.1493H17.0986V20.0629V20.1139V20.1648V20.2158V20.2667V20.3176V20.3686V20.4195V20.4704V20.5214V20.5723V20.6232V20.6742V20.7251V20.776V20.827V20.878V20.9288V20.9747V21.0256V21.0766V21.1275V21.1784V21.2294V21.2803V21.3312V21.3822V21.4331V21.484V21.535V21.5859V21.6366V21.6875V21.7384V21.7894V21.8403V21.8912V21.9422V21.9931V22.044V22.095V22.146V22.1969V22.2478V22.2987V22.3496V22.4006V22.4516V22.5024V22.5534V22.6044V22.6553V22.7062V22.7572V22.803V22.854V22.9049V22.9558V23.0068V23.0576V23.1086V23.1596V23.2105V23.2614V23.3124V23.3633V23.4142V23.4651V23.5161V23.5668V23.6177V23.6686V23.7196H17.1493H17.2H17.2509H17.3014H17.3521H17.4028H17.4537H17.5043H17.555H17.6107H17.6614H17.7122H17.7629H17.8136H17.8641H17.9151H17.9658H18.0164H18.067H18.1179H18.1686H18.2192H18.2699H18.3208H18.3714H18.422H18.4727H18.5236H18.5794H18.63H18.6806H18.7316H18.7822H18.8329H18.8835H18.9344H18.9851H19.0357H19.0863H19.137H19.1879H19.2386H19.2892H19.3398H19.3908H19.4414H19.492H19.5427H19.5987H19.6494H19.7H19.7506H19.8016H19.8522H19.9028H19.9534ZM16.2487 23.7196H16.2993H16.3499V23.6686V23.6177V23.5668V23.5161V23.4651V23.4142V23.3633V23.3124V23.2614V23.2105V23.1596V23.1086V23.0576V23.0068V22.9558V22.9049V22.854V22.803V22.7572V22.7062V22.6553V22.6044V22.5534V22.5024V22.4516V22.4006V22.3496V22.2987V22.2478V22.1969V22.146V22.095V22.044V21.9931V21.9422V21.8912V21.8403V21.7894V21.7384V21.6875V21.6366V21.5859V21.535V21.484V21.4331V21.3822V21.3312V21.2803V21.2294V21.1784V21.1275V21.0766V21.0256V20.9747V20.9288V20.878V20.827V20.776V20.7251V20.6742V20.6232V20.5723V20.5214V20.4704V20.4195V20.3686V20.3176V20.2667V20.2158V20.1648V20.1139V20.0629V20.012H16.2993H16.2487H16.2028H16.1522H16.1016H16.0509H16.0051H15.9544H15.9038H15.8532H15.8073H15.7566H15.7061H15.6554H15.6096H15.559H15.5083H15.4576H15.4118H15.3612H15.3106L15.2851 20.0528L15.2599 20.0986L15.2294 20.139L15.2038 20.1848L15.1787 20.2256L15.1532 20.2715L15.123 20.3119L15.0975 20.3578L15.0721 20.3986L15.0468 20.4393L15.0164 20.4848L14.9911 20.5256L14.9657 20.5714L14.9402 20.6122L14.91 20.6577L14.8844 20.6984L14.8593 20.7392L14.8338 20.7848L14.8084 20.8254L14.7781 20.8713L14.7527 20.9121L14.7272 20.9576L14.702 20.9984L14.6714 21.0442L14.6463 21.0846L14.6208 21.1254L14.5954 21.1712L14.5651 21.212L14.5396 21.2578L14.5144 21.2983L14.489 21.3442L14.4587 21.3849L14.4332 21.4304L14.4078 21.4712L14.3826 21.4304L14.3572 21.3849L14.3266 21.3442L14.3014 21.2983L14.276 21.2578L14.2508 21.212L14.2253 21.1712L14.1948 21.1254L14.1696 21.0846L14.1441 21.0442L14.119 20.9984L14.0935 20.9576L14.063 20.9121L14.0377 20.8713L14.0122 20.8254L13.9872 20.7848L13.9616 20.7392L13.9311 20.6984L13.9059 20.6577L13.8804 20.6122L13.855 20.5714L13.8247 20.5256L13.7992 20.4848L13.7741 20.4393L13.7486 20.3986L13.7232 20.3578L13.6928 20.3119L13.6674 20.2715L13.6422 20.2256L13.6168 20.1848L13.5912 20.139L13.561 20.0986L13.5356 20.0528L13.5104 20.012H13.4594H13.4088H13.3633H13.3126H13.2617H13.211H13.1656H13.1149H13.064H13.0134H12.9678H12.9172H12.8662H12.8156H12.77H12.7191H12.6684H12.6178H12.5722H12.5213H12.4707V20.0629V20.1139V20.1648V20.2158V20.2667V20.3176V20.3686V20.4195V20.4704V20.5214V20.5723V20.6232V20.6742V20.7251V20.776V20.827V20.878V20.9288V20.9747V21.0256V21.0766V21.1275V21.1784V21.2294V21.2803V21.3312V21.3822V21.4331V21.484V21.535V21.5859V21.6366V21.6875V21.7384V21.7894V21.8403V21.8912V21.9422V21.9931V22.044V22.095V22.146V22.1969V22.2478V22.2987V22.3496V22.4006V22.4516V22.5024V22.5534V22.6044V22.6553V22.7062V22.7572V22.803V22.854V22.9049V22.9558V23.0068V23.0576V23.1086V23.1596V23.2105V23.2614V23.3124V23.3633V23.4142V23.4651V23.5161V23.5668V23.6177V23.6686V23.7196H12.5213H12.5722H12.6229H12.6736H12.7242H12.7751H12.8258H12.8764H12.927H12.978H13.0286H13.0792H13.1299H13.1808H13.2314H13.2821H13.3328H13.3836H13.4343V23.6686V23.6177V23.5668V23.5158V23.4646V23.4136V23.3627V23.3117V23.2608V23.2099V23.164V23.1128V23.0618V23.011V22.96V22.9091V22.8578V22.8069V22.756V22.705V22.6541V22.6031V22.5519V22.501V22.45V22.3991V22.3482V22.2972V22.246V22.1951V22.1441V22.0932V22.0474V21.9964V21.9452V21.8942V21.8433V21.7924V21.7414V21.6902V21.6392V21.5883V21.5374L13.4645 21.5781L13.4901 21.6243L13.5203 21.665L13.5458 21.7108L13.5763 21.7516L13.6015 21.7974L13.632 21.8385L13.6572 21.8844L13.6878 21.9251L13.7132 21.971L13.7435 22.0117L13.769 22.0579L13.7992 22.0986L13.8247 22.1444L13.855 22.1852L13.8804 22.2313L13.911 22.272L13.9412 22.3179L13.9668 22.3586L13.997 22.4048L14.0225 22.4455L14.053 22.4914L14.0782 22.5321L14.1088 22.5783L14.1339 22.619L14.1645 22.6648L14.19 22.7056L14.2202 22.7515L14.2456 22.7926L14.276 22.8384L14.3014 22.8791L14.3317 22.9249L14.3572 22.966L14.3877 23.0118H14.4078L14.4332 22.9711L14.4636 22.9249L14.489 22.8842L14.5196 22.8434L14.5447 22.7976L14.5752 22.7568L14.6004 22.7158L14.6259 22.67L14.6565 22.6292L14.6816 22.5885L14.7122 22.5474L14.7374 22.5016L14.7679 22.4608L14.7934 22.42L14.8186 22.374L14.8492 22.3332L14.8742 22.2924L14.9048 22.2466L14.93 22.2058L14.9606 22.1648L14.9861 22.119L15.0112 22.0782L15.0418 22.0375L15.067 21.9914L15.0975 21.9506L15.123 21.9098L15.1532 21.8691L15.1787 21.823L15.2038 21.7822L15.2344 21.7414L15.2599 21.6956L15.2902 21.6548L15.3156 21.6141L15.346 21.5679L15.3713 21.5272V21.5781V21.6291V21.68V21.7312V21.7822V21.8331V21.8841V21.935V21.9862V22.0372V22.0881V22.139V22.1899V22.2409V22.2921V22.3431V22.394V22.445V22.4959V22.5468V22.5981V22.649V22.7V22.7508V22.8018V22.8527V22.904V22.9549V23.0058V23.0568V23.1078V23.159V23.2099V23.2608V23.3117V23.3627V23.4136V23.4646V23.5158V23.5668V23.6177V23.6686V23.7196H15.422H15.4726H15.5236H15.5793H15.63H15.6806H15.7315H15.7822H15.8328H15.8885H15.9392H15.9901H16.0407H16.0914H16.142H16.198H16.2487ZM10.4003 22.1457L10.4155 22.1918L10.4359 22.2377H10.3853H10.3344H10.2837H10.2331H10.1825H10.1318H10.0809H10.0303H9.98474H9.93381H9.88307H9.83247H9.78187H9.73094H9.68027H9.62967H9.57901L9.59907 22.1918L9.61434 22.1457L9.63474 22.0947L9.65514 22.0489L9.67007 22.0027L9.69047 21.9569L9.71081 21.9059L9.73094 21.8598L9.74621 21.8139L9.76661 21.7681L9.78694 21.722L9.80194 21.6711L9.82234 21.6252L9.84267 21.5791L9.85801 21.5332L9.87807 21.4874L9.89847 21.4362L9.91881 21.3903L9.93381 21.3445L9.95421 21.2983L9.97461 21.2474L9.98981 21.2013L10.0099 21.1554L10.0303 21.2013L10.0455 21.2474L10.0656 21.2983L10.086 21.3445L10.1013 21.3903L10.1216 21.4362L10.1417 21.4874L10.1569 21.5332L10.1773 21.5791L10.1977 21.6252L10.2127 21.6711L10.2331 21.722L10.2484 21.7681L10.2684 21.8139L10.2888 21.8598L10.3041 21.9059L10.3245 21.9569L10.3445 22.0027L10.3598 22.0489L10.3802 22.0947L10.4003 22.1457ZM11.9572 23.7196H12.008H12.0586L12.0383 23.6737L12.0179 23.6279L11.9979 23.582L11.9826 23.5311L11.9622 23.4855L11.9418 23.4397L11.9217 23.3939L11.9014 23.3481L11.881 23.3022L11.861 23.2513L11.8406 23.2054L11.8252 23.1596L11.8052 23.1137L11.7848 23.0679L11.7644 23.0221L11.7441 22.9711L11.724 22.9253L11.7036 22.8794L11.6832 22.8336L11.6683 22.7877L11.6479 22.7419L11.6275 22.6909L11.6071 22.6451L11.587 22.5993L11.5666 22.5535L11.5463 22.5076L11.5262 22.4617L11.511 22.4108L11.4906 22.365L11.4705 22.3191L11.4501 22.2733L11.4297 22.2275L11.4094 22.1816L11.3893 22.1307L11.369 22.0849L11.3536 22.039L11.3336 21.9931L11.3132 21.9473L11.2928 21.9015L11.2725 21.8505L11.2524 21.8047L11.232 21.7588L11.2116 21.713L11.1966 21.6672L11.1763 21.6213L11.1559 21.5758L11.1358 21.5248L11.1154 21.479L11.095 21.4331L11.0747 21.3873L11.0546 21.3415L11.0393 21.2956L11.019 21.2447L10.9989 21.1989L10.9785 21.153L10.9582 21.1071L10.9378 21.0613L10.9176 21.0155L10.8973 20.9645L10.882 20.9187L10.862 20.8729L10.8416 20.827L10.8212 20.7811L10.8012 20.7353L10.7808 20.6844L10.7604 20.6385L10.74 20.5927L10.725 20.5469L10.7046 20.5011L10.6842 20.4551L10.6642 20.4043L10.6438 20.3584L10.6235 20.3125L10.6031 20.2667L10.583 20.2209L10.5678 20.1751L10.5474 20.1241L10.5273 20.0783L10.5069 20.0324L10.4866 19.9865H10.4359H10.3904H10.3394H10.2888H10.2382H10.1926H10.1417H10.091H10.0404H9.99491H9.94391H9.89325H9.84265H9.79711H9.74618H9.69551H9.64491H9.59905H9.54845L9.52838 20.0324L9.50798 20.0783L9.48765 20.1241L9.47231 20.1751L9.45225 20.2209L9.43191 20.2667L9.41151 20.3125L9.39145 20.3584L9.37105 20.4043L9.35065 20.4551L9.33025 20.5011L9.31531 20.5469L9.29491 20.5927L9.27451 20.6385L9.25445 20.6844L9.23405 20.7353L9.21371 20.7811L9.19365 20.827L9.17331 20.8729L9.15798 20.9187L9.13765 20.9645L9.11758 21.0155L9.09718 21.0613L9.07685 21.1071L9.05671 21.153L9.03638 21.1989L9.01598 21.2447L9.00071 21.2956L8.98065 21.3415L8.96025 21.3873L8.93991 21.4331L8.91978 21.479L8.89945 21.5248L8.87911 21.5758L8.85898 21.6213L8.84371 21.6672L8.82331 21.713L8.80298 21.7588L8.78291 21.8047L8.76251 21.8505L8.74211 21.9015L8.72205 21.9473L8.70165 21.9931L8.68638 22.039L8.66605 22.0849L8.64591 22.1307L8.62558 22.1816L8.60525 22.2275L8.58511 22.2733L8.56478 22.3191L8.54438 22.365L8.52911 22.4108L8.50905 22.4617L8.48865 22.5076L8.46825 22.5535L8.44825 22.5993L8.42785 22.6451L8.40745 22.6909L8.38738 22.7419L8.37211 22.7877L8.35171 22.8336L8.33138 22.8794L8.31125 22.9253L8.29091 22.9711L8.27051 23.0221L8.25045 23.0679L8.23005 23.1137L8.21485 23.1596L8.19445 23.2054L8.17438 23.2513L8.15398 23.3022L8.13358 23.3481L8.11351 23.3939L8.09318 23.4397L8.07278 23.4855L8.05751 23.5311L8.03738 23.582L8.01705 23.6279L7.99665 23.6737L7.97658 23.7196H8.02725H8.07791H8.12851H8.17951H8.23525H8.28585H8.33638H8.38738H8.43805H8.48865H8.53931H8.59018H8.64085H8.69151H8.74725H8.79785H8.84885H8.89945H8.95005H9.00071L9.02111 23.6737L9.03638 23.6279L9.05671 23.582L9.07685 23.5311L9.09211 23.4855L9.11251 23.4397L9.13258 23.3939L9.14785 23.3481L9.16825 23.3022L9.18858 23.2563L9.20358 23.2105L9.22391 23.1596L9.24431 23.1137L9.25958 23.0679L9.27965 23.0221H9.33025H9.38125H9.43191H9.48245H9.52838H9.57898H9.62965H9.68025H9.73091H9.78185H9.83245H9.88305H9.93378H9.98471H10.0302H10.0808H10.1318H10.1824H10.233H10.2837H10.3344H10.3852H10.4359H10.4866H10.5324H10.583H10.6336H10.6842H10.7349L10.7553 23.0679L10.7706 23.1137L10.791 23.1596L10.8111 23.2105L10.8263 23.2563L10.8467 23.3022L10.867 23.3481L10.882 23.3939L10.9024 23.4397L10.9228 23.4855L10.9378 23.5311L10.9582 23.582L10.9785 23.6279L10.9938 23.6737L11.0139 23.7196H11.0648H11.1154H11.161H11.2116H11.2625H11.3132H11.3638H11.4094H11.4603H11.511H11.5616H11.6122H11.6632H11.7087H11.7594H11.81H11.861H11.9115H11.9572ZM7.52479 23.2766L7.56552 23.2461L7.60085 23.2156V23.1646V23.1137V23.0628V23.0169V22.966V22.9151V22.8641V22.8132V22.7622V22.7164V22.6655V22.6146V22.5636V22.5127V22.4617V22.4108V22.365V22.314V22.2631V22.2121V22.1612V22.1102V22.0593V22.0135V21.9626V21.9116V21.8606V21.8097V21.7588V21.713V21.662V21.6111V21.5604H7.55019H7.49959H7.44865H7.39805H7.34739H7.29679H7.24579H7.19519H7.14452H7.09385H7.04299H6.99232H6.94172H6.89105H6.84012H6.78952H6.73892H6.68819H6.63725H6.58665H6.53599H6.48539H6.43445H6.38379H6.33319H6.28252H6.23159H6.18099H6.13032H6.07972H6.02905H5.97812H5.92745V21.6111V21.6569V21.7079V21.7588V21.8097V21.8556V21.9065V21.9575V22.0084V22.0542V22.1052V22.1561V22.2071V22.2529V22.3038H5.97812H6.02392H6.07459H6.12525H6.17592H6.22172H6.27232H6.32292H6.37365H6.41945H6.47012H6.52072H6.57139H6.61719H6.66785V22.3548V22.4057V22.4566V22.5076V22.5636V22.6146V22.6655V22.7164V22.7673L6.62739 22.7928L6.59172 22.8132L6.54625 22.8336L6.50552 22.854L6.45985 22.8743L6.41439 22.8845L6.36372 22.8998L6.31279 22.9099L6.26219 22.9202L6.21152 22.9252L6.15579 22.9303L6.09972 22.9354H6.03892H5.98319L5.92745 22.9303L5.87685 22.9252L5.82619 22.9151L5.77525 22.9049L5.72465 22.8896L5.67392 22.8743L5.62819 22.854L5.58265 22.8336L5.53705 22.8132L5.49632 22.7877L5.45592 22.7622L5.41545 22.7317L5.37465 22.7011L5.33939 22.6706L5.30872 22.635L5.27339 22.5992L5.24285 22.5636L5.21259 22.5228L5.18712 22.4821L5.16165 22.4414L5.13645 22.3955L5.11612 22.3496L5.09572 22.2987L5.08072 22.258L5.06545 22.2121L5.05532 22.1663L5.04505 22.1204L5.03492 22.0746L5.02979 22.0237L5.02472 21.9778L5.01999 21.9269V21.876V21.8658V21.8097L5.02472 21.7588L5.02979 21.7079L5.03999 21.6518L5.05019 21.606L5.06032 21.5554L5.07565 21.5044L5.09572 21.4586L5.11105 21.4128L5.13139 21.3669L5.15685 21.3262L5.18199 21.2803L5.20745 21.2396L5.23265 21.2039L5.26325 21.1632L5.29859 21.1275L5.32912 21.0918L5.36445 21.0613L5.40019 21.0307L5.43552 21.0002L5.47632 20.9747L5.51672 20.9492L5.55745 20.9237L5.60299 20.9034L5.64859 20.883L5.69405 20.8677L5.73992 20.8525L5.78545 20.8422L5.83612 20.8321L5.88192 20.827L5.93259 20.8219H5.98319H6.03892L6.09492 20.827L6.15065 20.8321L6.20139 20.8372L6.25199 20.8473L6.30259 20.8576L6.34845 20.8677L6.39399 20.883L6.43952 20.8983L6.48025 20.9136L6.52072 20.934L6.56145 20.9543L6.60699 20.9798L6.64745 21.0052L6.68819 21.0307L6.72865 21.0562L6.76912 21.0867L6.80985 21.1122L6.85032 21.1478L6.89105 21.1784L6.92132 21.1377L6.95692 21.102L6.98725 21.0613L7.02292 21.0206L7.05312 20.9798L7.08372 20.9441L7.11912 20.9034L7.14959 20.8626L7.18499 20.8219L7.21559 20.7862L7.24579 20.7454L7.28145 20.7047L7.31172 20.6691L7.34232 20.6283L7.37765 20.5876L7.40825 20.5468L7.44359 20.5112L7.47412 20.4704L7.43365 20.4398L7.39292 20.4042L7.35252 20.3736L7.31172 20.3431L7.27132 20.3176L7.23085 20.287L7.18499 20.2616L7.14452 20.2361L7.09905 20.2106L7.05825 20.1852L7.01272 20.1648L6.96719 20.1394L6.92132 20.119L6.87579 20.0986L6.83025 20.0782L6.78439 20.0629L6.74392 20.0476L6.69845 20.0375L6.65259 20.0222L6.60699 20.012L6.56145 20.0018L6.51565 19.9916L6.46499 19.9814L6.41439 19.9712L6.36852 19.9662L6.31279 19.956L6.26219 19.9509H6.21152L6.15579 19.9458L6.09972 19.9406H6.04399H5.98832H5.93765H5.88192L5.83099 19.9458L5.78032 19.9509L5.72972 19.956L5.67905 19.961L5.62819 19.9712L5.57745 19.9764L5.52685 19.9865L5.48132 20.0018L5.43039 20.012L5.38485 20.0272L5.33939 20.0375L5.29345 20.0578L5.24285 20.0732L5.20239 20.0884L5.15172 20.1139L5.10592 20.1342L5.06032 20.1546L5.01485 20.1801L4.96899 20.2056L4.92345 20.231L4.88305 20.2565L4.84225 20.282L4.80179 20.3125L4.76105 20.338L4.72059 20.3686L4.68519 20.3991L4.64447 20.4348L4.60913 20.4653L4.57351 20.501L4.53811 20.5366L4.50754 20.5723L4.4722 20.6079L4.44163 20.6436L4.41135 20.6844L4.38079 20.7251L4.35056 20.7658L4.32505 20.8066L4.29965 20.8473L4.27443 20.8881L4.24898 20.9288L4.22353 20.9747L4.20347 21.0206L4.18307 21.0664L4.16273 21.1122L4.14262 21.158L4.12223 21.209L4.10694 21.2548L4.09165 21.3058L4.07671 21.3516L4.06649 21.4026L4.05121 21.4535L4.04103 21.4993L4.03598 21.5503L4.02581 21.6009L4.02064 21.6569L4.01587 21.7079V21.7588L4.01081 21.8148V21.8658V21.876V21.9269V21.9829L4.01587 22.0338L4.02064 22.0848L4.02581 22.1358L4.03081 22.1816L4.04103 22.2325L4.04615 22.2784L4.05632 22.3293L4.0716 22.3752L4.08177 22.4261L4.09677 22.4719L4.10694 22.5177L4.12734 22.5636L4.14262 22.6044L4.16273 22.6502L4.18307 22.696L4.20347 22.7418L4.22353 22.7877L4.24898 22.8284L4.27443 22.8743L4.29965 22.9151L4.32505 22.9558L4.35533 22.9966L4.38079 23.0373L4.41135 23.073L4.44163 23.1137L4.4722 23.1494L4.50754 23.185L4.54322 23.2207L4.57856 23.2512L4.61424 23.2869L4.64958 23.3174L4.68519 23.348L4.72572 23.3786L4.76619 23.4091L4.80692 23.4397L4.84732 23.4651L4.88812 23.4906L4.93365 23.5161L4.97405 23.5413L5.01999 23.5668L5.06545 23.5872L5.11105 23.6075L5.15685 23.6278L5.20745 23.6482L5.25299 23.6635L5.29859 23.6838L5.34445 23.6992L5.39505 23.7094L5.44059 23.7246L5.49152 23.7348L5.53705 23.745L5.58772 23.7552L5.63832 23.7654L5.68932 23.7705L5.73992 23.7756L5.79052 23.7807L5.84625 23.7858L5.89692 23.7908H5.94785H6.00352H6.05932H6.11505L6.17072 23.7858L6.22172 23.7807L6.27745 23.7756L6.32805 23.7705L6.38379 23.7654L6.43445 23.7603L6.48539 23.7501L6.53599 23.74L6.58159 23.7298L6.63252 23.7196L6.67805 23.7042L6.72865 23.689L6.77425 23.6737L6.82005 23.6584L6.86565 23.6431L6.91112 23.6227L6.96212 23.6024L7.00765 23.582L7.05825 23.5616L7.10379 23.5362L7.14959 23.5161L7.19519 23.4906L7.24072 23.4651L7.28659 23.4397L7.32705 23.4142L7.36779 23.3888L7.40825 23.3582L7.44865 23.3328L7.48939 23.3022L7.52479 23.2766ZM8.47144 28.1156H19.1557L13.7022 29.914L8.47144 28.1156Z" fill="#CCCCCC"/>
</svg>
