<svg width="9" height="13" viewBox="0 0 9 13" fill="none" xmlns="http://www.w3.org/2000/svg">
<path d="M4.97052 0.255076C4.27959 0.344809 3.86819 0.487324 3.47261 0.782911C3.23 0.965014 3.06913 1.16559 2.92672 1.46646C2.75003 1.83594 2.72893 1.9811 2.72893 2.91272C2.72893 3.56196 2.72102 3.72295 2.69201 3.7467C2.67355 3.76254 2.62345 3.84963 2.58125 3.942C2.51005 4.10035 2.50741 4.12411 2.49686 4.60707C2.48104 5.33021 2.52587 5.54662 2.74212 5.80262C2.80805 5.87652 2.86343 5.99 2.91617 6.15627C3.01902 6.47297 3.29065 7.0272 3.48053 7.30959L3.63084 7.53392L3.6203 7.98258C3.61238 8.42332 3.60975 8.43652 3.53854 8.56056C3.44361 8.72155 3.39614 8.75322 2.25424 9.37342C1.10972 9.99627 1.07543 10.0174 0.830176 10.2655C0.611291 10.4898 0.487345 10.6825 0.38977 10.949C0.279009 11.2472 0.252637 11.4742 0.25 12.1076C0.25 12.6882 0.25 12.6935 0.313292 12.7674L0.376584 12.8413L4.25585 12.8492L8.13512 12.8545L8.01381 12.6777C7.78174 12.3319 7.61296 11.9229 7.51275 11.4531C7.43891 11.1179 7.44418 10.5003 7.52593 10.1361C7.5945 9.8168 7.75273 9.39717 7.88195 9.18076L7.97425 9.03033L7.72372 8.89309C7.26486 8.63973 7.23848 8.58695 7.23848 7.96674V7.51017L7.37298 7.31223C7.56813 7.02192 7.83185 6.48089 7.92678 6.1721C7.99271 5.95833 8.03491 5.87652 8.11666 5.78678C8.325 5.55718 8.33291 5.51231 8.33291 4.74959V4.07396L8.23533 3.87866L8.13776 3.68336L8.12721 2.83883C8.1193 2.05763 8.11402 1.97846 8.05864 1.79635C7.87668 1.1867 7.45737 0.732767 6.85082 0.484685C6.47634 0.331613 6.09132 0.262994 5.53751 0.252438C5.27643 0.247159 5.02063 0.249798 4.97052 0.255076Z" fill="white"/>
</svg>
