<svg width="85" height="56" viewBox="0 0 85 56" fill="none" xmlns="http://www.w3.org/2000/svg">
<rect width="85" height="56" fill="white"/>
<path d="M27.5 28C27.5 19.7157 34.2157 13 42.5 13C50.7843 13 57.5 19.7157 57.5 28C57.5 36.2843 50.7843 43 42.5 43C34.2157 43 27.5 36.2843 27.5 28Z" fill="white"/>
<path fill-rule="evenodd" clip-rule="evenodd" d="M45.7918 19.0001C45.9489 20.0668 45.5147 21.1117 44.942 21.851C44.3292 22.644 43.2731 23.2574 42.2498 23.2254C42.063 22.2042 42.5413 21.152 43.1232 20.4447C43.7616 19.6641 44.8558 19.0652 45.7918 19.0001ZM48.8658 34.0136C49.3934 33.2051 49.5905 32.7972 50 31.8844C47.0214 30.7517 46.5442 26.5172 49.4919 24.8919C48.5928 23.7643 47.3293 23.1107 46.1367 23.1107C45.2773 23.1107 44.6885 23.335 44.1532 23.5389C43.7072 23.7088 43.2983 23.8645 42.8009 23.8645C42.2635 23.8645 41.7876 23.6939 41.2892 23.5152C40.7416 23.3188 40.167 23.1128 39.4539 23.1128C38.1155 23.1128 36.6909 23.9306 35.7877 25.3287C34.518 27.2978 34.7346 30.9995 36.7935 34.153C37.5294 35.2816 38.5127 36.5496 39.7988 36.5609C40.3324 36.5662 40.6875 36.407 41.0718 36.2346C41.5116 36.0373 41.9896 35.8229 42.8174 35.8185C43.65 35.8135 44.1205 36.0305 44.5545 36.2307C44.9289 36.4034 45.2761 36.5636 45.8052 36.5578C47.0923 36.5475 48.1299 35.1422 48.8658 34.0136Z" fill="#0B0B0A"/>
</svg>
