<svg width="85" height="56" viewBox="0 0 85 56" fill="none" xmlns="http://www.w3.org/2000/svg">
<rect width="85" height="56" fill="#3D3D3D"/>
<path fill-rule="evenodd" clip-rule="evenodd" d="M31.7228 13H52.8802C54.5951 13 55.228 13.6329 55.228 15.3486V36.051C55.228 36.2451 55.2201 36.4255 55.2029 36.5926C55.1997 36.6238 55.1967 36.6549 55.1936 36.686C55.1603 37.0279 55.1275 37.3644 54.8082 37.7431C54.7743 37.7836 54.4187 38.0483 54.4187 38.0483C54.3841 38.0652 54.3516 38.0813 54.3201 38.0969C54.1774 38.1676 54.0579 38.2268 53.8811 38.2979L43.4629 42.6628C42.922 42.9107 42.6958 43.0074 42.303 42.9996V42.9996H42.3014H42.2999V42.9996C41.9071 43.0074 41.6809 42.9107 41.1401 42.6628L30.7219 38.2979C30.5449 38.2267 30.4252 38.1674 30.2823 38.0966C30.251 38.0811 30.2186 38.0651 30.1843 38.0483C30.1843 38.0483 29.8287 37.7836 29.7947 37.7431C29.4754 37.3644 29.4426 37.0279 29.4093 36.686C29.4063 36.6549 29.4032 36.6238 29.4 36.5926C29.3828 36.4255 29.375 36.2451 29.375 36.051V15.3486C29.375 13.6329 30.0079 13 31.7228 13ZM49.6968 23.7731V26.3694C49.6968 26.8296 49.4841 27.0431 49.0428 27.0431H48.7156C48.2578 27.0431 48.0451 26.8296 48.0451 26.3694V19.1063C48.0451 18.6462 48.2578 18.4327 48.7156 18.4327H49.01C49.4516 18.4327 49.6642 18.6462 49.6642 19.1063V21.3577H51.3811V19.0077C51.3811 17.5782 50.6942 16.888 49.2718 16.888H48.4212C46.9988 16.888 46.2954 17.5945 46.2954 19.0242V26.4515C46.2954 27.8813 46.9988 28.5877 48.4212 28.5877H49.2881C50.7109 28.5877 51.4139 27.8813 51.4139 26.4515V23.7731H49.6968ZM34.9388 23.428H36.9992V21.8343H34.9388V18.5806H37.0812V16.9868H33.1891V28.4892H37.1138V26.8954H34.9388V23.428ZM45.3706 28.4892H43.6206V16.9868H45.3706V28.4892ZM41.0817 22.097C41.0817 22.5572 40.8694 22.7709 40.4278 22.7709H39.7081V18.5313H40.4278C40.8694 18.5313 41.0817 18.7449 41.0817 19.2049V22.097ZM40.7056 16.9867H37.9584V28.4891H39.7081V24.3152H40.7056C42.1284 24.3152 42.8314 23.6088 42.8314 22.1794V19.1229C42.8314 17.6932 42.1284 16.9867 40.7056 16.9867ZM51.4583 33.8614L51.4631 33.8136L51.4679 33.7611V33.7085V33.6989V33.6464L51.4631 33.5939L51.4583 33.5462L51.4488 33.4984L51.4392 33.4506L51.4297 33.4077L51.4156 33.3647L51.4013 33.3218L51.3822 33.2836L51.3583 33.2405L51.3347 33.2023L51.306 33.1594L51.2777 33.1212L51.2443 33.0878L51.2112 33.0495L51.173 33.0161L51.135 32.9827L51.097 32.9588L51.0589 32.9301L51.021 32.9063L50.9783 32.8824L50.9353 32.8585L50.8878 32.8346L50.8404 32.8156L50.7929 32.7917L50.7404 32.7729L50.6977 32.7586L50.655 32.7442L50.6072 32.7299L50.5645 32.7156L50.517 32.7013L50.4695 32.6869L50.4218 32.6774L50.3695 32.6631L50.322 32.6487L50.2699 32.6392L50.2176 32.6248L50.1654 32.6105L50.1128 32.5962L50.0654 32.5866L50.0227 32.5723L49.9797 32.5628L49.9418 32.5484L49.9039 32.5389L49.8468 32.5198L49.7943 32.5007L49.7468 32.4816L49.7089 32.4577L49.6659 32.4338L49.6328 32.4004L49.6137 32.3718L49.5901 32.3192L49.5853 32.2572V32.2476L49.5901 32.1999L49.6089 32.1569L49.6375 32.1139L49.6802 32.0756L49.7137 32.0566L49.7516 32.0374L49.7943 32.0279L49.842 32.0183L49.8943 32.0088H49.9513H49.9988L50.0415 32.0136L50.0892 32.0183L50.1367 32.0231L50.1842 32.0327L50.2316 32.0423L50.2794 32.0518L50.3269 32.0661L50.3743 32.0805L50.4266 32.0948L50.4648 32.1139L50.5075 32.1282L50.5454 32.1473L50.5884 32.1664L50.6263 32.1855L50.669 32.2046L50.7072 32.2285L50.7499 32.2476L50.7881 32.2763L50.826 32.3001L50.8687 32.324L50.9069 32.3526L50.9353 32.3144L50.9592 32.2763L50.9875 32.2381L51.0162 32.1999L51.0445 32.1569L51.0685 32.1187L51.097 32.0805L51.1255 32.0423L51.1493 32.0041L51.1777 31.9659L51.2064 31.9276L51.2303 31.8894L51.2586 31.8465L51.2873 31.8083L51.3157 31.7701L51.3395 31.7319L51.3679 31.6936L51.33 31.665L51.292 31.6364L51.2539 31.6077L51.2159 31.5839L51.173 31.5552L51.135 31.5313L51.0923 31.5074L51.0494 31.4836L51.0114 31.4644L50.9687 31.4406L50.921 31.4214L50.8782 31.4023L50.8356 31.3833L50.7929 31.3689L50.7452 31.3499L50.7024 31.3403L50.6597 31.3259L50.612 31.3116L50.5693 31.3021L50.5218 31.2925L50.4744 31.2829L50.4314 31.2734L50.3839 31.2639L50.3316 31.2591L50.2842 31.2496L50.2316 31.2448H50.1842L50.1319 31.24L50.0797 31.2353H50.0275H49.9752H49.9227H49.8752L49.8277 31.24L49.7803 31.2448L49.7325 31.2496L49.685 31.2543L49.6423 31.2639L49.5949 31.2734L49.5519 31.2829L49.5092 31.2925L49.4712 31.3021L49.4282 31.3164L49.3808 31.3355L49.3334 31.3499L49.2904 31.3689L49.2477 31.3928L49.205 31.4119L49.162 31.4358L49.1241 31.4596L49.0861 31.4883L49.0479 31.5169L49.0148 31.5408L48.9766 31.5743L48.9434 31.6125L48.91 31.6459L48.8769 31.6841L48.8482 31.7223L48.8198 31.7605L48.796 31.8034L48.7724 31.8465L48.7533 31.8894L48.7342 31.9324L48.7154 31.9754L48.7059 32.0183L48.6915 32.0614L48.6819 32.1044L48.6724 32.1473L48.6676 32.1951L48.6629 32.2381L48.658 32.2858V32.3336V32.3431V32.3956L48.6629 32.4481L48.6676 32.4959L48.6724 32.5436L48.6819 32.5866L48.6915 32.6344L48.7059 32.6726L48.7199 32.7156L48.7342 32.7538L48.7533 32.7869L48.7772 32.8299L48.8007 32.8681L48.8247 32.9015L48.853 32.9349L48.8817 32.9684L48.9149 33.0018L48.9482 33.0352L48.9814 33.0639L49.0195 33.0878L49.0575 33.1164L49.1002 33.1403L49.1384 33.1641L49.1859 33.188L49.2285 33.2119L49.2763 33.231L49.3238 33.2501L49.3712 33.2692L49.4235 33.2883L49.4665 33.3026L49.5092 33.3169L49.5519 33.3313L49.5994 33.3409L49.6423 33.3551L49.6899 33.3695L49.7372 33.3791L49.785 33.3934L49.8325 33.4029L49.8847 33.4173L49.9322 33.4268L49.9844 33.4411L50.0322 33.4506L50.0797 33.465L50.1224 33.4745L50.1654 33.4889L50.2032 33.4984L50.2364 33.508L50.2934 33.5318L50.3412 33.5509L50.3839 33.5701L50.4218 33.5891L50.46 33.6178L50.4932 33.6464L50.517 33.6799L50.5362 33.7276L50.5409 33.7849V33.7944L50.5362 33.8423L50.5218 33.8852L50.5027 33.9234L50.4744 33.9569L50.4362 33.9855L50.403 34.0046L50.3648 34.0189L50.322 34.0284L50.2794 34.0381L50.2316 34.0476L50.1794 34.0523H50.1224H50.0749L50.0227 34.0476H49.9752L49.9274 34.0381L49.8752 34.0333L49.8277 34.0237L49.7803 34.0142L49.7325 34.0046L49.6899 33.9903L49.6423 33.9759L49.5949 33.9616L49.5519 33.9426L49.5092 33.9282L49.4665 33.9091L49.4235 33.89L49.3808 33.8709L49.3429 33.847L49.2999 33.8279L49.262 33.804L49.2193 33.7754L49.1811 33.7516L49.1384 33.7229L49.1002 33.6943L49.0575 33.6656L49.0195 33.6369L48.9909 33.6751L48.9578 33.7085L48.9291 33.7468L48.896 33.7849L48.8674 33.8183L48.8389 33.8566L48.8055 33.8948L48.7772 33.9282L48.7437 33.9664L48.7154 33.9998L48.6819 34.0381L48.6536 34.0763L48.6249 34.1096L48.5917 34.1478L48.5631 34.1861L48.53 34.2195L48.5013 34.2577L48.5392 34.2911L48.5726 34.3198L48.6106 34.3484L48.6488 34.3771L48.6867 34.4058L48.7246 34.4344L48.7628 34.4583L48.8007 34.4821L48.8437 34.506L48.8817 34.5298L48.9244 34.5538L48.9673 34.5729L49.01 34.5964L49.0527 34.6156L49.0957 34.6346L49.1432 34.6538L49.1859 34.6681L49.2334 34.6824L49.2763 34.7015L49.3238 34.7158L49.3712 34.7301L49.414 34.7398L49.4617 34.754L49.5092 34.7636L49.5566 34.7731L49.6041 34.7827L49.6519 34.7922L49.6994 34.797L49.7468 34.8066L49.7991 34.8113L49.8468 34.8161L49.8943 34.8209H49.9465L49.994 34.8257H50.0415H50.094H50.1462H50.1937L50.2412 34.8209L50.2934 34.8161L50.3412 34.8113L50.3839 34.8066L50.4314 34.8018L50.4792 34.7922L50.5218 34.7827L50.5645 34.7731L50.612 34.7636L50.655 34.7493L50.7024 34.7349L50.7499 34.7206L50.7974 34.7015L50.8451 34.6824L50.8878 34.6585L50.9305 34.6394L50.9735 34.6156L51.0114 34.5869L51.0494 34.5633L51.0875 34.5347L51.1207 34.506L51.1589 34.4726L51.1872 34.4439L51.2207 34.4104L51.249 34.3771L51.2729 34.3389L51.3014 34.3007L51.3252 34.2624L51.349 34.2243L51.3679 34.1813L51.387 34.1431L51.406 34.1001L51.4204 34.0523L51.4297 34.0093L51.444 33.9616L51.4535 33.9138L51.4583 33.8614ZM48.0814 34.7684H48.1291H48.1766V34.7206V34.6775V34.6299V34.5821V34.5347V34.4916V34.4439V34.3962V34.3531V34.3054V34.2577V34.2147V34.1669V34.1192V34.0714V34.0284V33.9807H48.1291H48.0814H48.0339H47.9864H47.939H47.8912H47.8437H47.7963H47.7488H47.6963H47.6488H47.6014H47.5539H47.506H47.4587H47.4112H47.3637H47.3159H47.2684H47.221H47.1735H47.126H47.0783H47.0309H46.9834H46.9359H46.8881H46.8406H46.7932H46.7409H46.6932H46.6457H46.5982H46.5508H46.503H46.4555H46.4081H46.3605H46.3129V33.9329V33.8804V33.8327V33.7849V33.7324V33.6847V33.6369V33.5844V33.5366V33.4889V33.4363V33.3886H46.3605H46.4081H46.4555H46.503H46.5508H46.5982H46.6457H46.6932H46.7362H46.7837H46.8311H46.8785H46.9264H46.9738H47.0213H47.0687H47.1165H47.1639H47.2115H47.2589H47.3067H47.3541H47.4016H47.4491H47.4969H47.5443H47.587H47.6345H47.6822H47.7297H47.7772H47.8246H47.8724H47.9199H47.9674V33.3409V33.2978V33.25V33.2023V33.1594V33.1116V33.0639V33.0161V32.9731V32.9254V32.8776V32.8346V32.7869V32.7394V32.6964V32.6487H47.9199H47.8724H47.8246H47.7772H47.7297H47.6822H47.6345H47.587H47.5443H47.4969H47.4491H47.4016H47.3541H47.3067H47.2589H47.2115H47.1639H47.1165H47.0687H47.0213H46.9738H46.9264H46.8785H46.8311H46.7837H46.7362H46.6932H46.6457H46.5982H46.5508H46.503H46.4555H46.4081H46.3605H46.3129V32.6009V32.5532V32.5054V32.4577V32.4099V32.3622V32.3192V32.2714V32.2237V32.1759V32.1282V32.0805H46.3605H46.4081H46.4555H46.503H46.5508H46.5982H46.6409H46.6884H46.7362H46.7837H46.8311H46.8785H46.9264H46.9738H47.0213H47.0687H47.1165H47.1639H47.2115H47.2541H47.3019H47.3494H47.3968H47.4443H47.492H47.5395H47.587H47.6345H47.6822H47.7297H47.7772H47.8246H47.8676H47.915H47.9625H48.01H48.0578H48.1053H48.1527V32.0327V31.9897V31.9419V31.8942V31.8465V31.8034V31.7557V31.7079V31.665V31.6172V31.5695V31.5265V31.4787V31.431V31.3832V31.3402V31.2925H48.1053H48.0578H48.01H47.9625H47.915H47.8676H47.8199H47.7724H47.7249H47.6775H47.6297H47.5822H47.5348H47.4873H47.4443H47.3968H47.3494H47.3019H47.2541H47.2067H47.1592H47.1117H47.064H47.0165H46.969H46.9216H46.8741H46.8263H46.7789H46.7314H46.6839H46.6362H46.5887H46.5412H46.4937H46.446H46.3985H46.351H46.3035H46.2559H46.2084H46.1609H46.1134H46.0704H46.0229H45.9755H45.928H45.8803H45.8328H45.7853H45.7379H45.6901H45.6426H45.5951H45.5477H45.5H45.4525H45.405V31.3402V31.388V31.4357V31.4835V31.5313V31.579V31.6268V31.6745V31.7223V31.77V31.8178V31.8655V31.9133V31.961V32.0088V32.0565V32.1044V32.152V32.195V32.2428V32.2905V32.3383V32.386V32.4338V32.4815V32.5293V32.577V32.6248V32.6725V32.7204V32.768V32.8155V32.8633V32.911V32.9588V33.0065V33.0543V33.102V33.1498V33.1975V33.2453V33.2931V33.3409V33.3886V33.4363V33.484V33.5318V33.5796V33.6273V33.6751V33.7229V33.7706V33.8183V33.8661V33.909V33.9569V34.0046V34.0523V34.1001V34.1478V34.1956V34.2434V34.2911V34.3389V34.3867V34.4344V34.4821V34.5298V34.5776V34.6251V34.6729V34.7206V34.7684H45.4525H45.5H45.5477H45.5951H45.6426H45.6901H45.7379H45.7853H45.8328H45.885H45.9325H45.9802H46.0277H46.0752H46.1226H46.1704H46.2179H46.2654H46.3129H46.3605H46.4081H46.4555H46.503H46.5508H46.5982H46.6457H46.6932H46.7409H46.7932H46.8406H46.8881H46.9359H46.9834H47.0309H47.0783H47.126H47.1735H47.221H47.2684H47.3159H47.3637H47.4112H47.4587H47.506H47.5539H47.6014H47.6488H47.6963H47.7488H47.7963H47.8437H47.8912H47.939H47.9864H48.0339H48.0814ZM44.6081 34.7684H44.6556H44.703V34.7206V34.6729V34.6251V34.5776V34.5298V34.4821V34.4344V34.3867V34.3389V34.2911V34.2434V34.1956V34.1478V34.1001V34.0523V34.0046V33.9569V33.909V33.8661V33.8183V33.7706V33.7229V33.6751V33.6273V33.5796V33.5318V33.484V33.4363V33.3886V33.3409V33.2931V33.2453V33.1975V33.1498V33.102V33.0543V33.0065V32.9588V32.911V32.8633V32.8155V32.768V32.7204V32.6725V32.6248V32.577V32.5293V32.4815V32.4338V32.386V32.3383V32.2905V32.2428V32.195V32.152V32.1044V32.0565V32.0088V31.961V31.9133V31.8655V31.8178V31.77V31.7223V31.6745V31.6268V31.579V31.5313V31.4835V31.4357V31.388V31.3402V31.2925H44.6556H44.6081H44.5651H44.5176H44.4702H44.4227H44.3798H44.3323H44.2848H44.2373H44.1943H44.1468H44.0995H44.052H44.009H43.9615H43.914H43.8665H43.8236H43.7761H43.7286L43.7048 31.3307L43.6811 31.3737L43.6525 31.4116L43.6286 31.4545L43.605 31.4927L43.5811 31.5358L43.5528 31.5737L43.5289 31.6167L43.5051 31.6549L43.4814 31.6931L43.4528 31.7357L43.4291 31.774L43.4053 31.8169L43.3815 31.8552L43.3531 31.8979L43.3291 31.936L43.3056 31.9742L43.2817 32.017L43.2578 32.0551L43.2295 32.0981L43.2056 32.1364L43.1817 32.179L43.1581 32.2172L43.1295 32.2602L43.1059 32.2981L43.082 32.3363L43.0581 32.3793L43.0298 32.4175L43.0059 32.4605L42.9822 32.4984L42.9584 32.5414L42.93 32.5796L42.9061 32.6223L42.8823 32.6605L42.8587 32.6223L42.8348 32.5796L42.8061 32.5414L42.7825 32.4984L42.7587 32.4605L42.7351 32.4175L42.7112 32.3793L42.6826 32.3363L42.659 32.2981L42.6351 32.2602L42.6115 32.2172L42.5876 32.179L42.559 32.1364L42.5353 32.0981L42.5115 32.0551L42.488 32.017L42.464 31.9742L42.4354 31.936L42.4118 31.8979L42.3879 31.8552L42.364 31.8169L42.3356 31.774L42.3118 31.7357L42.2882 31.6931L42.2643 31.6549L42.2405 31.6167L42.212 31.5737L42.1881 31.5358L42.1646 31.4927L42.1407 31.4545L42.1168 31.4116L42.0885 31.3737L42.0646 31.3307L42.041 31.2925H41.9932H41.9458H41.9031H41.8556H41.8078H41.7603H41.7177H41.6702H41.6225H41.575H41.5323H41.4848H41.437H41.3896H41.3469H41.2991H41.2516H41.2042H41.1615H41.1137H41.0663V31.3402V31.388V31.4357V31.4835V31.5313V31.579V31.6268V31.6745V31.7223V31.77V31.8178V31.8655V31.9133V31.961V32.0088V32.0565V32.1044V32.152V32.195V32.2428V32.2905V32.3383V32.386V32.4338V32.4815V32.5293V32.577V32.6248V32.6725V32.7204V32.768V32.8155V32.8633V32.911V32.9588V33.0065V33.0543V33.102V33.1498V33.1975V33.2453V33.2931V33.3409V33.3886V33.4363V33.484V33.5318V33.5796V33.6273V33.6751V33.7229V33.7706V33.8183V33.8661V33.909V33.9569V34.0046V34.0523V34.1001V34.1478V34.1956V34.2434V34.2911V34.3389V34.3867V34.4344V34.4821V34.5298V34.5776V34.6251V34.6729V34.7206V34.7684H41.1137H41.1615H41.209H41.2565H41.304H41.3516H41.3991H41.4466H41.4941H41.5418H41.5893H41.6368H41.6843H41.732H41.7795H41.827H41.8745H41.9221H41.9696V34.7206V34.6729V34.6251V34.5774V34.5293V34.4815V34.4338V34.386V34.3383V34.2905V34.2475V34.1995V34.1517V34.104V34.0562V34.0085V33.9605V33.9127V33.865V33.8172V33.7695V33.7217V33.6737V33.6259V33.5782V33.5304V33.4827V33.4349V33.3869V33.3392V33.2914V33.2437V33.2007V33.1529V33.1049V33.0571V33.0094V32.9616V32.9139V32.8659V32.818V32.7703V32.7225L41.998 32.7607L42.022 32.804L42.0503 32.8422L42.0741 32.8852L42.1028 32.9234L42.1264 32.9664L42.155 33.0049L42.1786 33.0479L42.2073 33.086L42.2311 33.129L42.2595 33.1672L42.2834 33.2105L42.3118 33.2487L42.3356 33.2917L42.364 33.3299L42.3879 33.3731L42.4166 33.4113L42.4449 33.4543L42.4688 33.4925L42.4971 33.5357L42.5211 33.5739L42.5497 33.6169L42.5733 33.6551L42.602 33.6984L42.6255 33.7366L42.6542 33.7795L42.6781 33.8178L42.7065 33.8608L42.7303 33.8993L42.7587 33.9422L42.7825 33.9804L42.811 34.0234L42.8348 34.0619L42.8635 34.1049H42.8823L42.9061 34.0667L42.9346 34.0234L42.9584 33.9852L42.9871 33.947L43.0106 33.904L43.0393 33.8658L43.0629 33.8273L43.0868 33.7844L43.1155 33.7462L43.139 33.708L43.1677 33.6695L43.1913 33.6265L43.2199 33.5883L43.2438 33.55L43.2674 33.5069L43.2961 33.4686L43.3196 33.4304L43.3483 33.3875L43.3718 33.3492L43.4005 33.3107L43.4245 33.2678L43.448 33.2296L43.4767 33.1914L43.5003 33.1482L43.5289 33.1099L43.5528 33.0717L43.5811 33.0335L43.605 32.9903L43.6286 32.9521L43.6573 32.9139L43.6811 32.8709L43.7095 32.8327L43.7334 32.7945L43.7618 32.7512L43.7856 32.713V32.7607V32.8085V32.8562V32.9043V32.9521V32.9998V33.0476V33.0953V33.1434V33.1911V33.2389V33.2866V33.3343V33.3821V33.4301V33.4779V33.5256V33.5734V33.6212V33.6689V33.717V33.7647V33.8125V33.8602V33.9079V33.9557V34.0037V34.0515V34.0992V34.147V34.1948V34.2428V34.2905V34.3383V34.386V34.4338V34.4815V34.5293V34.5774V34.6251V34.6729V34.7206V34.7684H43.8331H43.8806H43.9283H43.9806H44.0281H44.0755H44.1233H44.1708H44.2182H44.2705H44.318H44.3657H44.4131H44.4607H44.5081H44.5606H44.6081ZM39.1253 33.2928L39.1396 33.3361L39.1587 33.3791H39.1112H39.0635H39.016H38.9685H38.9211H38.8736H38.8258H38.7784H38.7357H38.6879H38.6404H38.5929H38.5455H38.4978H38.4503H38.4028H38.3553L38.3741 33.3361L38.3884 33.2928L38.4076 33.2451L38.4267 33.2021L38.4407 33.1588L38.4598 33.1158L38.4789 33.0681L38.4978 33.0248L38.5121 32.9818L38.5312 32.9389L38.5503 32.8956L38.5643 32.8479L38.5834 32.8049L38.6025 32.7616L38.6169 32.7186L38.6357 32.6757L38.6548 32.6277L38.6739 32.5846L38.6879 32.5417L38.7071 32.4984L38.7262 32.4507L38.7404 32.4074L38.7593 32.3644L38.7784 32.4074L38.7927 32.4507L38.8115 32.4984L38.8306 32.5417L38.8449 32.5846L38.864 32.6277L38.8829 32.6757L38.8971 32.7186L38.9163 32.7616L38.9354 32.8049L38.9494 32.8479L38.9685 32.8956L38.9829 32.9389L39.0016 32.9818L39.0208 33.0248L39.0351 33.0681L39.0542 33.1158L39.073 33.1588L39.0873 33.2021L39.1064 33.2451L39.1253 33.2928ZM40.5849 34.7684H40.6325H40.68L40.6609 34.7254L40.6418 34.6824L40.623 34.6394L40.6087 34.5917L40.5895 34.5489L40.5705 34.506L40.5516 34.4631L40.5325 34.4201L40.5135 34.3771L40.4947 34.3293L40.4755 34.2863L40.4612 34.2434L40.4424 34.2004L40.4233 34.1574L40.4042 34.1144L40.3851 34.0667L40.3663 34.0237L40.3472 33.9807L40.328 33.9378L40.314 33.8948L40.2949 33.8518L40.2758 33.804L40.2567 33.7611L40.2379 33.7181L40.2187 33.6751L40.1997 33.6321L40.1809 33.5891L40.1665 33.5414L40.1474 33.4984L40.1286 33.4554L40.1095 33.4124L40.0904 33.3695L40.0713 33.3265L40.0525 33.2788L40.0334 33.2358L40.019 33.1928L40.0003 33.1498L39.9812 33.1069L39.962 33.0639L39.943 33.0161L39.9241 32.9731L39.905 32.9301L39.8859 32.8872L39.8719 32.8443L39.8528 32.8012L39.8337 32.7586L39.8149 32.7108L39.7957 32.6678L39.7766 32.6248L39.7575 32.5818L39.7387 32.5389L39.7244 32.4959L39.7053 32.4481L39.6865 32.4052L39.6674 32.3622L39.6483 32.3192L39.6292 32.2763L39.6103 32.2333L39.5912 32.1855L39.5769 32.1426L39.5581 32.0996L39.539 32.0566L39.5199 32.0136L39.5011 31.9706L39.482 31.9229L39.4629 31.8799L39.4438 31.8369L39.4297 31.7939L39.4106 31.751L39.3915 31.7079L39.3727 31.6603L39.3536 31.6173L39.3345 31.5743L39.3154 31.5313L39.2966 31.4883L39.2823 31.4454L39.2632 31.3976L39.2444 31.3546L39.2252 31.3116L39.2062 31.2686H39.1587H39.116H39.0682H39.0207H38.9733H38.9305H38.8829H38.8354H38.7879H38.7452H38.6974H38.6499H38.6025H38.5598H38.512H38.4645H38.4171H38.3741H38.3267L38.3079 31.3116L38.2887 31.3546L38.2697 31.3976L38.2553 31.4454L38.2365 31.4883L38.2174 31.5313L38.1983 31.5743L38.1795 31.6173L38.1604 31.6603L38.1412 31.7079L38.1221 31.751L38.1081 31.7939L38.089 31.8369L38.0699 31.8799L38.051 31.9229L38.0319 31.9706L38.0129 32.0136L37.994 32.0566L37.975 32.0996L37.9606 32.1426L37.9415 32.1855L37.9227 32.2333L37.9036 32.2763L37.8845 32.3192L37.8657 32.3622L37.8466 32.4052L37.8275 32.4481L37.8132 32.4959L37.7944 32.5389L37.7752 32.5818L37.7562 32.6248L37.7373 32.6678L37.7182 32.7108L37.6992 32.7586L37.6803 32.8012L37.666 32.8443L37.6469 32.8872L37.6278 32.9301L37.609 32.9731L37.5899 33.0161L37.5707 33.0639L37.5519 33.1069L37.5328 33.1498L37.5185 33.1928L37.4994 33.2358L37.4805 33.2788L37.4615 33.3265L37.4424 33.3695L37.4235 33.4124L37.4045 33.4554L37.3854 33.4984L37.371 33.5414L37.3522 33.5891L37.3331 33.6321L37.314 33.6751L37.2952 33.7181L37.2761 33.7611L37.257 33.804L37.2382 33.8518L37.2239 33.8948L37.2047 33.9378L37.1857 33.9807L37.1668 34.0237L37.1477 34.0667L37.1286 34.1144L37.1098 34.1574L37.0907 34.2004L37.0764 34.2434L37.0573 34.2863L37.0385 34.3293L37.0194 34.3771L37.0002 34.4201L36.9814 34.4631L36.9624 34.506L36.9432 34.5489L36.9289 34.5917L36.91 34.6394L36.891 34.6824L36.8719 34.7254L36.853 34.7684H36.9005H36.948H36.9955H37.0433H37.0955H37.143H37.1904H37.2382H37.2857H37.3331H37.3806H37.4283H37.4758H37.5233H37.5755H37.623H37.6708H37.7182H37.7657H37.8132L37.8323 34.7254L37.8466 34.6824L37.8657 34.6394L37.8845 34.5917L37.8989 34.5489L37.918 34.506L37.9368 34.4631L37.9511 34.4201L37.9702 34.3771L37.9893 34.3341L38.0034 34.2911L38.0224 34.2434L38.0415 34.2004L38.0559 34.1574L38.0747 34.1144H38.1221H38.1699H38.2174H38.2648H38.3079H38.3553H38.4028H38.4502H38.4977H38.5455H38.5929H38.6404H38.6879H38.7357H38.7784H38.8258H38.8735H38.921H38.9685H39.016H39.0635H39.1112H39.1587H39.2062H39.2491H39.2966H39.344H39.3915H39.439L39.4581 34.1574L39.4724 34.2004L39.4915 34.2434L39.5104 34.2911L39.5247 34.3341L39.5438 34.3771L39.5629 34.4201L39.5769 34.4631L39.596 34.506L39.6151 34.5489L39.6292 34.5917L39.6483 34.6394L39.6674 34.6824L39.6817 34.7254L39.7005 34.7684H39.7483H39.7957H39.8384H39.8859H39.9336H39.9812H40.0286H40.0713H40.119H40.1665H40.214H40.2615H40.3092H40.3519H40.3994H40.4469H40.4947H40.542H40.5849ZM36.4295 34.3531L36.4677 34.3245L36.5008 34.2959V34.2481V34.2004V34.1527V34.1096V34.0619V34.0142V33.9664V33.9186V33.8709V33.8279V33.7802V33.7324V33.6847V33.6369V33.5891V33.5414V33.4984V33.4506V33.4029V33.3551V33.3074V33.2596V33.2119V33.1689V33.1212V33.0734V33.0256V32.9779V32.9301V32.8872V32.8394V32.7917V32.7442H36.4533H36.4059H36.3581H36.3107H36.2632H36.2157H36.1679H36.1205H36.073H36.0255H35.9778H35.9303H35.8829H35.8354H35.7876H35.7402H35.6927H35.6452H35.5974H35.55H35.5025H35.4551H35.4073H35.3598H35.3124H35.2649H35.2171H35.1697H35.1222H35.0747H35.0272H34.9795H34.932V32.7917V32.8346V32.8824V32.9301V32.9779V33.0209V33.0686V33.1164V33.1641V33.2071V33.2549V33.3026V33.3504V33.3934V33.4411H34.9795H35.0224H35.0699H35.1174H35.1649H35.2079H35.2553H35.3027H35.3503H35.3932H35.4407H35.4882H35.5357H35.5786H35.6261V33.4889V33.5366V33.5844V33.6321V33.6847V33.7324V33.7802V33.8279V33.8756L35.5882 33.8995L35.5547 33.9186L35.5121 33.9377L35.4739 33.9569L35.4311 33.9759L35.3885 33.9855L35.341 33.9998L35.2932 34.0093L35.2458 34.0189L35.1983 34.0237L35.1461 34.0284L35.0935 34.0332H35.0365H34.9842L34.932 34.0284L34.8846 34.0237L34.8371 34.0142L34.7893 34.0046L34.7419 33.9902L34.6943 33.9759L34.6514 33.9569L34.6087 33.9377L34.566 33.9186L34.5278 33.8947L34.4899 33.8709L34.452 33.8422L34.4137 33.8135L34.3807 33.7849L34.3519 33.7515L34.3188 33.718L34.2902 33.6847L34.2618 33.6464L34.2379 33.6082L34.2141 33.57L34.1904 33.527L34.1714 33.484L34.1522 33.4363L34.1382 33.3981L34.1239 33.3551L34.1144 33.3122L34.1047 33.2692L34.0952 33.2262L34.0904 33.1785L34.0857 33.1355L34.0812 33.0877V33.04V33.0304V32.9779L34.0857 32.9301L34.0904 32.8824L34.1 32.8299L34.1096 32.7869L34.1191 32.7394L34.1334 32.6917L34.1522 32.6487L34.1666 32.6057L34.1857 32.5627L34.2096 32.5245L34.2331 32.4815L34.257 32.4434L34.2806 32.4099L34.3093 32.3717L34.3424 32.3383L34.3711 32.3049L34.4042 32.2762L34.4377 32.2475L34.4708 32.219L34.5091 32.195L34.5469 32.1711L34.5851 32.1472L34.6278 32.1282L34.6706 32.109L34.7132 32.0947L34.7562 32.0805L34.7989 32.0709L34.8464 32.0614L34.8893 32.0565L34.9368 32.0518H34.9842H35.0365L35.089 32.0565L35.1412 32.0614L35.1888 32.0661L35.2362 32.0756L35.2837 32.0852L35.3267 32.0947L35.3694 32.109L35.4121 32.1234L35.4502 32.1377L35.4882 32.1569L35.5264 32.1759L35.5691 32.1999L35.607 32.2237L35.6452 32.2475L35.6831 32.2714L35.7211 32.3L35.7592 32.324L35.7972 32.3574L35.8354 32.386L35.8637 32.3479L35.8971 32.3144L35.9256 32.2762L35.959 32.238L35.9873 32.1999L36.016 32.1664L36.0492 32.1282L36.0777 32.09L36.1109 32.0518L36.1396 32.0183L36.1679 31.9801L36.2014 31.9419L36.2297 31.9085L36.2584 31.8703L36.2916 31.8321L36.3202 31.7939L36.3534 31.7605L36.382 31.7223L36.3441 31.6936L36.3059 31.6602L36.268 31.6315L36.2297 31.6029L36.1919 31.579L36.1539 31.5504L36.1109 31.5265L36.073 31.5026L36.0304 31.4787L35.9921 31.4549L35.9494 31.4357L35.9067 31.4119L35.8637 31.3928L35.8211 31.3737L35.7784 31.3546L35.7354 31.3402L35.6974 31.3259L35.6548 31.3164L35.6118 31.302L35.5691 31.2925L35.5264 31.2829L35.4834 31.2734L35.4359 31.2639L35.3885 31.2543L35.3455 31.2495L35.2932 31.24L35.2458 31.2352H35.1983L35.1461 31.2304L35.0935 31.2256H35.0412H34.9891H34.9416H34.8893L34.8416 31.2304L34.7941 31.2352L34.7466 31.24L34.6991 31.2447L34.6514 31.2543L34.6039 31.2591L34.5564 31.2686L34.5137 31.2829L34.466 31.2925L34.4233 31.3068L34.3807 31.3164L34.3376 31.3355L34.2902 31.3499L34.2522 31.3641L34.2047 31.388L34.1618 31.4071L34.1191 31.4262L34.0764 31.4501L34.0334 31.474L33.9907 31.4979L33.9529 31.5217L33.9146 31.5456L33.8767 31.5742L33.8385 31.5981L33.8006 31.6268L33.7674 31.6554L33.7292 31.6889L33.6961 31.7175L33.6627 31.751L33.6295 31.7843L33.6008 31.8178L33.5677 31.8512L33.539 31.8847L33.5106 31.9229L33.482 31.961L33.4537 31.9992L33.4297 32.0374L33.4059 32.0756L33.3823 32.1139L33.3584 32.152L33.3346 32.195L33.3158 32.238L33.2966 32.281L33.2776 32.324L33.2587 32.3669L33.2396 32.4147L33.2253 32.4577L33.2109 32.5054L33.1969 32.5484L33.1873 32.5962L33.173 32.6439L33.1635 32.6869L33.1587 32.7347L33.1492 32.7821L33.1444 32.8346L33.1399 32.8824V32.9301L33.1351 32.9827V33.0304V33.04V33.0877V33.1402L33.1399 33.188L33.1444 33.2358L33.1492 33.2835L33.1539 33.3265L33.1635 33.3742L33.1683 33.4172L33.1778 33.465L33.1921 33.508L33.2017 33.5557L33.2157 33.5987L33.2253 33.6416L33.2444 33.6847L33.2587 33.7229L33.2776 33.7658L33.2966 33.8088L33.3158 33.8517L33.3346 33.8947L33.3584 33.9329L33.3823 33.9759L33.4059 34.0142L33.4297 34.0523L33.4581 34.0905L33.482 34.1287L33.5106 34.1622L33.539 34.2004L33.5677 34.2338L33.6008 34.2672L33.6343 34.3007L33.6674 34.3293L33.7009 34.3627L33.734 34.3914L33.7674 34.42L33.8054 34.4487L33.8433 34.4773L33.8815 34.506L33.9194 34.5298L33.9576 34.5537L34.0003 34.5776L34.0382 34.6012L34.0812 34.6251L34.1239 34.6442L34.1666 34.6633L34.2096 34.6824L34.257 34.7015L34.2997 34.7158L34.3424 34.7349L34.3854 34.7492L34.4329 34.7588L34.4756 34.7731L34.5233 34.7827L34.566 34.7922L34.6135 34.8018L34.6609 34.8113L34.7087 34.8161L34.7562 34.8209L34.8036 34.8257L34.8559 34.8304L34.9034 34.8352H34.9511H35.0033H35.0556H35.1079L35.1601 34.8304L35.2079 34.8257L35.2601 34.8209L35.3076 34.8161L35.3598 34.8113L35.4073 34.8065L35.4551 34.797L35.5025 34.7875L35.5452 34.7779L35.593 34.7684L35.6357 34.754L35.6831 34.7397L35.7259 34.7254L35.7688 34.711L35.8116 34.6967L35.8542 34.6775L35.902 34.6585L35.9447 34.6394L35.9921 34.6203L36.0348 34.5964L36.0777 34.5776L36.1205 34.5537L36.1632 34.5298L36.2062 34.506L36.2441 34.4821L36.2823 34.4582L36.3202 34.4295L36.3581 34.4057L36.3963 34.377L36.4295 34.3531ZM37.317 38.8897H47.3335L42.2209 40.5757L37.317 38.8897Z" fill="white"/>
</svg>
