<svg width="85" height="56" viewBox="0 0 85 56" fill="none" xmlns="http://www.w3.org/2000/svg">
<rect width="85" height="56" fill="#1877F2"/>
<path d="M57.5 28C57.5 19.7149 50.7851 13 42.5 13C34.2149 13 27.5 19.7149 27.5 28C27.5 35.4883 32.9844 41.6934 40.1562 42.8184V32.3359H36.3476V28H40.1562V24.6953C40.1562 20.9365 42.3946 18.8594 45.8222 18.8594C47.4629 18.8594 49.1797 19.1523 49.1797 19.1523V22.8438H47.2871C45.4238 22.8438 44.8438 24.001 44.8438 25.1875V28H49.0039L48.3389 32.3359H44.8438V42.8184C52.0156 41.6934 57.5 35.4883 57.5 28Z" fill="#1877F2"/>
<path d="M48.3389 32.3359L49.0039 28H44.8438V25.1875C44.8438 24.001 45.4238 22.8438 47.2872 22.8438H49.1797V19.1523C49.1797 19.1523 47.4629 18.8594 45.8223 18.8594C42.3946 18.8594 40.1563 20.9365 40.1563 24.6953V28H36.3477V32.3359H40.1563V42.8184C40.9209 42.9385 41.7032 43 42.5 43C43.2969 43 44.0792 42.9385 44.8438 42.8184V32.3359H48.3389Z" fill="white"/>
</svg>
