<svg width="85" height="56" viewBox="0 0 85 56" fill="none" xmlns="http://www.w3.org/2000/svg">
<rect width="85" height="56" fill="white"/>
<path d="M27.5 28C27.5 19.7157 34.2157 13 42.5 13C50.7843 13 57.5 19.7157 57.5 28C57.5 36.2843 50.7843 43 42.5 43C34.2157 43 27.5 36.2843 27.5 28Z" fill="white" stroke="url(#paint0_angular_671_22513)"/>
<path d="M42.5 24.0135C43.7206 24.0135 44.5439 24.5407 45.0134 24.9812L46.8478 23.1901C45.7211 22.1429 44.255 21.5001 42.5 21.5001C39.9578 21.5001 37.7622 22.959 36.6934 25.0823L38.795 26.7146C39.3222 25.1473 40.7811 24.0135 42.5 24.0135V24.0135Z" fill="#EA4335"/>
<path d="M48.74 28.1446C48.74 27.6101 48.6967 27.2201 48.6028 26.8157H42.5V29.2279H46.0822C46.01 29.8273 45.62 30.7301 44.7533 31.3368L46.8044 32.9257C48.0322 31.7918 48.74 30.1235 48.74 28.1446V28.1446Z" fill="#4285F4"/>
<path d="M38.8022 29.2857C38.665 28.8813 38.5856 28.448 38.5856 28.0002C38.5856 27.5524 38.665 27.1191 38.795 26.7146L36.6933 25.0824C36.2528 25.9635 36 26.953 36 28.0002C36 29.0474 36.2528 30.0368 36.6933 30.918L38.8022 29.2857V29.2857Z" fill="#FBBC05"/>
<path d="M42.4999 34.5001C44.2549 34.5001 45.7282 33.9223 46.8043 32.9256L44.7532 31.3368C44.2043 31.7195 43.4677 31.9868 42.4999 31.9868C40.781 31.9868 39.3221 30.8529 38.8021 29.2856L36.7004 30.9179C37.7693 33.0412 39.9577 34.5001 42.4999 34.5001V34.5001Z" fill="#34A853"/>
<defs>
<radialGradient id="paint0_angular_671_22513" cx="0" cy="0" r="1" gradientUnits="userSpaceOnUse" gradientTransform="translate(42.5 28) rotate(90) scale(15)">
<stop offset="0.279782" stop-color="#FBBC05"/>
<stop offset="0.505787" stop-color="#EA4335"/>
<stop offset="0.746129" stop-color="#4285F4"/>
<stop offset="1" stop-color="#34A853"/>
</radialGradient>
</defs>
</svg>
