<svg width="85" height="56" viewBox="0 0 85 56" fill="none" xmlns="http://www.w3.org/2000/svg">
<rect width="85" height="56" fill="#E8442E"/>
<path d="M27.5 28C27.5 19.7157 34.2157 13 42.5 13C50.7843 13 57.5 19.7157 57.5 28C57.5 36.2843 50.7843 43 42.5 43C34.2157 43 27.5 36.2843 27.5 28Z" fill="#E8442E"/>
<path fill-rule="evenodd" clip-rule="evenodd" d="M35.1406 23.4568C35.5301 21.9624 36.7659 20.8256 38.3018 20.551C38.503 20.5159 38.9596 20.5063 40.4795 20.5031C42.3507 20.4999 42.405 20.5031 42.437 20.5606C42.4593 20.6053 42.4689 23.0449 42.4689 28.2242C42.4689 35.2109 42.4657 35.8272 42.4178 35.8751C42.3699 35.923 42.1847 35.9262 40.3965 35.9134C38.669 35.9038 38.4008 35.8942 38.19 35.8463C36.5743 35.4695 35.4375 34.3296 35.0831 32.7298C35.0192 32.4328 35.016 32.3434 35.0064 28.4988C34.9905 24.3126 35.0001 23.9965 35.1406 23.4568ZM41.1916 34.6841V28.2147V21.7454L39.9559 21.7486C38.5892 21.7518 38.3944 21.7709 37.9729 21.9401C37.1331 22.2754 36.5104 23.0194 36.3188 23.9167C36.2518 24.2328 36.2518 32.1775 36.322 32.5C36.536 33.5314 37.2991 34.3233 38.3273 34.5883C38.5668 34.649 38.6946 34.6554 39.892 34.6681L41.1916 34.6841Z" fill="white"/>
<path d="M38.5764 23.6963C38.3752 23.7346 38.0687 23.8879 37.9058 24.0316C37.5706 24.3222 37.4045 24.7341 37.4301 25.2195C37.4428 25.4717 37.4588 25.5388 37.561 25.7432C37.7111 26.0529 37.9378 26.2796 38.2475 26.4329C38.4614 26.5383 38.5157 26.551 38.7935 26.5606C39.0458 26.5702 39.1352 26.5606 39.3044 26.5031C39.9974 26.27 40.4157 25.5963 40.2975 24.9065C40.1602 24.0859 39.3811 23.5367 38.5764 23.6963Z" fill="white"/>
<path fill-rule="evenodd" clip-rule="evenodd" d="M44.0017 28.2147C44.0017 23.9933 44.0113 20.5319 44.0241 20.5223C44.0336 20.5096 44.6723 20.5 45.4386 20.5C46.5499 20.5 46.8947 20.5096 47.1182 20.5479C48.7851 20.8353 50.0528 22.0902 50.3689 23.7538C50.4136 23.9869 50.42 24.533 50.42 28.1955C50.42 32.1083 50.4246 32.5685 50.3013 32.9914C50.28 33.0644 50.2548 33.1364 50.2252 33.2248C50.1709 33.3813 50.0655 33.6335 49.9857 33.7836C49.363 34.9555 48.2199 35.7442 46.9235 35.8911C46.6169 35.923 44.139 35.9358 44.0528 35.9039C44.0049 35.8847 44.0017 35.179 44.0017 28.2147ZM48.5073 28.4734C48.3412 27.988 47.9325 27.608 47.4344 27.4771C46.6361 27.2695 45.8058 27.7294 45.5664 28.5117C45.4865 28.7608 45.4833 29.1695 45.5536 29.4122C45.7867 30.2041 46.6361 30.6862 47.4344 30.4787C47.9261 30.3478 48.3093 29.9933 48.5041 29.4888C48.6094 29.2142 48.6126 28.7735 48.5073 28.4734Z" fill="white"/>
</svg>
