<svg width="85" height="56" viewBox="0 0 85 56" fill="none" xmlns="http://www.w3.org/2000/svg">
<rect width="85" height="56" fill="#0070D1"/>
<path d="M27.5 28C27.5 19.7157 34.2157 13 42.5 13C50.7843 13 57.5 19.7157 57.5 28C57.5 36.2843 50.7843 43 42.5 43C34.2157 43 27.5 36.2843 27.5 28Z" fill="white"/>
<path d="M40.5 20.9999V34.062L43.2879 34.9999V24.0437C43.2879 23.5307 43.5049 23.1879 43.851 23.307C44.3069 23.4406 44.3959 23.9138 44.3959 24.4268V28.8023C46.1324 29.6908 47.5 28.8017 47.5 26.4522C47.5 24.0437 46.7001 22.9749 44.3392 22.1159C43.4113 21.7843 41.6845 21.2322 40.5 20.9999" fill="#0070D1"/>
<path d="M44 33.3424L48.5455 31.7006C49.0596 31.514 49.1397 31.2498 48.7215 31.111C48.3023 30.9717 47.5434 31.0122 47.0278 31.1994L44 32.2798V30.5589L44.1745 30.4996C44.1745 30.4996 45.0498 30.1861 46.2807 30.0484C47.5111 29.9106 49.0181 30.066 50.2003 30.5204C51.5338 30.9483 51.6841 31.5769 51.346 32.0099C51.0063 32.443 50.1761 32.7524 50.1761 32.7524L44 34.9999V33.3424" fill="#0070D1"/>
<path d="M34.9269 32.5102C33.4281 32.1078 33.1782 31.2697 33.8599 30.787C34.4928 30.3406 35.5648 30.0036 35.5648 30.0036L40 28.5V30.2136L36.8092 31.304C36.2443 31.498 36.1584 31.7697 36.616 31.9133C37.0748 32.0569 37.9048 32.0162 38.4692 31.8222L40 31.2933V32.8269C39.9023 32.844 39.7939 32.8601 39.6945 32.8762C38.1626 33.1152 36.5324 33.016 34.9269 32.5102" fill="#0070D1"/>
</svg>
