<svg width="85" height="56" viewBox="0 0 85 56" fill="none" xmlns="http://www.w3.org/2000/svg">
<rect width="85" height="56" fill="#145C8F"/>
<path d="M42.4839 43C50.7769 43 57.5 36.2841 57.5 28C57.5 19.7158 50.7769 13 42.4839 13C34.5259 13 28.0143 19.184 27.5 27.0034C28.4717 28.6335 28.8509 29.6416 28.0982 32.3146C29.9532 38.4961 35.692 43 42.4839 43Z" fill="white"/>
<path fill-rule="evenodd" clip-rule="evenodd" d="M41.651 24.2238V24.2238C41.651 21.0676 44.1965 18.5001 47.3255 18.5001C50.4558 18.5001 53 21.0676 53 24.2238C53 27.3796 50.4558 29.9495 47.3255 29.9495C47.2832 29.9495 47.2396 29.9482 47.1973 29.9469L41.9665 33.7112C41.9819 34.2923 41.8754 34.8748 41.6472 35.43C40.77 37.5544 38.3388 38.5655 36.2302 37.6783C34.9414 37.1372 34.0678 36.0125 33.7829 34.7301L28.1079 32.3721C27.3401 30.0975 27.5166 27.052 27.5195 27.0019L27.5195 27.0012L35.547 30.3291C35.7654 30.1845 35.9982 30.0592 36.2466 29.9572C36.81 29.7235 37.4043 29.6189 37.9965 29.646L41.6523 24.2981C41.651 24.2744 41.651 24.2491 41.651 24.2238ZM36.5938 36.7975C38.2219 37.4806 40.095 36.7019 40.7739 35.0606C41.1021 34.2677 41.1034 33.3896 40.779 32.5941C40.4546 31.7986 39.8423 31.1761 39.0533 30.8455C38.2707 30.5175 37.433 30.5279 36.6962 30.8094L38.6058 31.6062C39.8058 32.1098 40.3738 33.4993 39.8731 34.7093C39.374 35.9181 37.9965 36.4914 36.7958 35.9878L34.9486 35.2168C35.2757 35.9052 35.8428 36.4824 36.5938 36.7975ZM47.3255 28.0382C45.2416 28.0382 43.5451 26.3271 43.5451 24.2237C43.5451 22.122 45.2416 20.4104 47.3255 20.4104C49.4106 20.4104 51.1072 22.122 51.1072 24.2237C51.1072 26.3271 49.4106 28.0382 47.3255 28.0382ZM47.3319 21.3522C45.7649 21.3522 44.4927 22.6356 44.4927 24.2179C44.4927 25.8004 45.7649 27.0826 47.3319 27.0826C48.9003 27.0826 50.1724 25.8004 50.1724 24.2179C50.1724 22.6356 48.9003 21.3522 47.3319 21.3522Z" fill="#145C8F"/>
</svg>
