<svg width="85" height="56" viewBox="0 0 85 56" fill="none" xmlns="http://www.w3.org/2000/svg">
<rect width="85" height="56" fill="#027D00"/>
<g clip-path="url(#clip0_671_22517)">
<path d="M41.0444 42.6284C38.7848 42.4119 36.4973 41.6006 34.5323 40.3184C32.8857 39.2446 32.5141 38.8024 32.5141 37.9211C32.5141 36.1508 34.4607 33.0496 37.7914 29.515C39.6824 27.5071 42.317 25.1548 42.6016 25.2182C43.156 25.3419 47.5844 29.6616 49.2426 31.6955C51.8641 34.9102 53.0689 37.5434 52.4566 38.7172C51.9913 39.6093 49.1031 41.3534 46.9816 42.0233C45.2328 42.5756 42.9361 42.8094 41.0444 42.6284V42.6284ZM30.2901 36.0806C28.9216 33.9813 28.2303 31.9147 27.8969 28.9256C27.7864 27.9387 27.8253 27.3744 28.1468 25.3481C28.5466 22.8254 29.9843 19.9038 31.7127 18.1072C32.4483 17.3435 32.5138 17.3231 33.4111 17.6265C34.4986 17.9947 35.6611 18.7979 37.4645 20.4288L38.5179 21.3813L37.9418 22.0869C35.2731 25.3631 32.4565 30.0097 31.3963 32.8835C30.8202 34.4449 30.5883 36.0131 30.8372 36.6659C31.0043 37.1071 30.8508 36.9427 30.2883 36.0816L30.2901 36.0806ZM54.3081 36.4375C54.4435 35.7775 54.2723 34.5659 53.8718 33.3434C53.0041 30.6963 50.1033 25.7718 47.4398 22.4234L46.6012 21.3693L47.5087 20.5365C48.693 19.449 49.5153 18.7979 50.403 18.2446C51.1029 17.8082 52.1035 17.4219 52.5337 17.4219C52.7986 17.4219 53.7323 18.3935 54.4857 19.4504C55.653 21.0867 56.5114 23.0742 56.9464 25.1401C57.2277 26.4765 57.2512 29.3333 56.9918 30.6663C56.777 31.7599 56.327 33.1774 55.8906 34.1391C55.5599 34.8594 54.7452 36.2589 54.3872 36.7143C54.2031 36.9485 54.2031 36.9482 54.3054 36.443L54.3081 36.4375ZM41.2864 16.9222C40.0571 16.2983 38.161 15.6284 37.1137 15.4477C36.7469 15.3847 36.1206 15.3489 35.7228 15.3693C34.8582 15.413 34.8968 15.368 36.2829 14.7131C37.4352 14.1687 38.3965 13.8485 39.7022 13.5744C41.1698 13.2659 43.9295 13.2625 45.3739 13.5669C46.9336 13.8959 48.7707 14.5794 49.8057 15.2169L50.1139 15.4058L49.4082 15.3704C48.0051 15.2994 45.9603 15.8664 43.7648 16.9341C43.1028 17.2566 42.5273 17.5137 42.4851 17.5068C42.4431 17.4987 41.9035 17.2358 41.2851 16.9222H41.2864Z" fill="white"/>
</g>
<defs>
<clipPath id="clip0_671_22517">
<rect width="30" height="30" fill="white" transform="translate(27.5 13)"/>
</clipPath>
</defs>
</svg>
